%TF.GenerationSoftware,KiCad,Pcbnew,9.0.2*%
%TF.CreationDate,2025-07-09T21:54:35+02:00*%
%TF.ProjectId,drone_controller,64726f6e-655f-4636-9f6e-74726f6c6c65,rev?*%
%TF.SameCoordinates,Original*%
%TF.FileFunction,Profile,NP*%
%FSLAX46Y46*%
G04 Gerber Fmt 4.6, Leading zero omitted, Abs format (unit mm)*
G04 Created by KiCad (PCBNEW 9.0.2) date 2025-07-09 21:54:35*
%MOMM*%
%LPD*%
G01*
G04 APERTURE LIST*
%TA.AperFunction,Profile*%
%ADD10C,0.100000*%
%TD*%
%TA.AperFunction,Profile*%
%ADD11C,0.038100*%
%TD*%
%TA.AperFunction,Profile*%
%ADD12C,0.050000*%
%TD*%
G04 APERTURE END LIST*
D10*
X132791667Y-103621419D02*
X132791667Y-102357119D01*
X175050000Y-104621388D02*
G75*
G02*
X174050012Y-103621319I0J999988D01*
G01*
X133791667Y-101357117D02*
X173050000Y-101357117D01*
X132791667Y-116495794D02*
X132791667Y-115595755D01*
X174049962Y-115608019D02*
X174049962Y-116507119D01*
X131791700Y-114607978D02*
X122646431Y-114607978D01*
X174049962Y-115608019D02*
G75*
G02*
X175050000Y-114607962I1000038J19D01*
G01*
X183595031Y-114607978D02*
X175050000Y-114607978D01*
X131791700Y-114607978D02*
G75*
G02*
X132791647Y-115595755I0J-1000022D01*
G01*
D11*
X173600000Y-104000000D02*
G75*
G02*
X171200000Y-104000000I-1200000J0D01*
G01*
X171200000Y-104000000D02*
G75*
G02*
X173600000Y-104000000I1200000J0D01*
G01*
D10*
X132791667Y-103621419D02*
G75*
G02*
X131791700Y-104621367I-999967J19D01*
G01*
X133791700Y-117507116D02*
G75*
G02*
X132791646Y-116495794I100J1000216D01*
G01*
X174049962Y-102357117D02*
X174049962Y-103621319D01*
D11*
X135400000Y-104200000D02*
G75*
G02*
X133000000Y-104200000I-1200000J0D01*
G01*
X133000000Y-104200000D02*
G75*
G02*
X135400000Y-104200000I1200000J0D01*
G01*
X173400000Y-115000000D02*
G75*
G02*
X171000000Y-115000000I-1200000J0D01*
G01*
X171000000Y-115000000D02*
G75*
G02*
X173400000Y-115000000I1200000J0D01*
G01*
D10*
X132791667Y-102357119D02*
G75*
G02*
X133791667Y-101357167I1000033J-81D01*
G01*
X183595031Y-104621388D02*
X183595031Y-114607978D01*
X173038587Y-117507116D02*
X133791700Y-117507116D01*
X122646431Y-114607978D02*
X122646431Y-104621388D01*
X174050031Y-103621319D02*
X174049962Y-103621319D01*
X173050000Y-101357117D02*
G75*
G02*
X174049983Y-102357117I0J-999983D01*
G01*
X175050000Y-104621388D02*
X183595031Y-104621388D01*
D11*
X135400000Y-115000000D02*
G75*
G02*
X133000000Y-115000000I-1200000J0D01*
G01*
X133000000Y-115000000D02*
G75*
G02*
X135400000Y-115000000I1200000J0D01*
G01*
D10*
X122646431Y-104621388D02*
X131791700Y-104621388D01*
X174049962Y-116507119D02*
G75*
G02*
X173038587Y-117507099I-1000162J119D01*
G01*
D12*
%TO.C,SW1*%
X147550000Y-114475000D02*
G75*
G02*
X145150000Y-114475000I-1200000J0D01*
G01*
X145150000Y-114475000D02*
G75*
G02*
X147550000Y-114475000I1200000J0D01*
G01*
X155550000Y-114475000D02*
G75*
G02*
X153150000Y-114475000I-1200000J0D01*
G01*
X153150000Y-114475000D02*
G75*
G02*
X155550000Y-114475000I1200000J0D01*
G01*
%TD*%
M02*
