%TF.GenerationSoftware,KiCad,Pcbnew,9.0.2*%
%TF.CreationDate,2025-06-27T10:01:34+02:00*%
%TF.ProjectId,drone_controller,64726f6e-655f-4636-9f6e-74726f6c6c65,rev?*%
%TF.SameCoordinates,Original*%
%TF.FileFunction,Legend,Top*%
%TF.FilePolarity,Positive*%
%FSLAX46Y46*%
G04 Gerber Fmt 4.6, Leading zero omitted, Abs format (unit mm)*
G04 Created by KiCad (PCBNEW 9.0.2) date 2025-06-27 10:01:34*
%MOMM*%
%LPD*%
G01*
G04 APERTURE LIST*
%ADD10C,0.150000*%
%ADD11C,0.120000*%
%ADD12C,0.100000*%
%ADD13C,0.300000*%
G04 APERTURE END LIST*
D10*
X138899819Y-108863220D02*
X137899819Y-108863220D01*
X137899819Y-108863220D02*
X137899819Y-108482268D01*
X137899819Y-108482268D02*
X137947438Y-108387030D01*
X137947438Y-108387030D02*
X137995057Y-108339411D01*
X137995057Y-108339411D02*
X138090295Y-108291792D01*
X138090295Y-108291792D02*
X138233152Y-108291792D01*
X138233152Y-108291792D02*
X138328390Y-108339411D01*
X138328390Y-108339411D02*
X138376009Y-108387030D01*
X138376009Y-108387030D02*
X138423628Y-108482268D01*
X138423628Y-108482268D02*
X138423628Y-108863220D01*
X137899819Y-107958458D02*
X138899819Y-107720363D01*
X138899819Y-107720363D02*
X138185533Y-107529887D01*
X138185533Y-107529887D02*
X138899819Y-107339411D01*
X138899819Y-107339411D02*
X137899819Y-107101316D01*
X138899819Y-106148935D02*
X138423628Y-106482268D01*
X138899819Y-106720363D02*
X137899819Y-106720363D01*
X137899819Y-106720363D02*
X137899819Y-106339411D01*
X137899819Y-106339411D02*
X137947438Y-106244173D01*
X137947438Y-106244173D02*
X137995057Y-106196554D01*
X137995057Y-106196554D02*
X138090295Y-106148935D01*
X138090295Y-106148935D02*
X138233152Y-106148935D01*
X138233152Y-106148935D02*
X138328390Y-106196554D01*
X138328390Y-106196554D02*
X138376009Y-106244173D01*
X138376009Y-106244173D02*
X138423628Y-106339411D01*
X138423628Y-106339411D02*
X138423628Y-106720363D01*
X165199819Y-108107030D02*
X165199819Y-108583220D01*
X165199819Y-108583220D02*
X165676009Y-108630839D01*
X165676009Y-108630839D02*
X165628390Y-108583220D01*
X165628390Y-108583220D02*
X165580771Y-108487982D01*
X165580771Y-108487982D02*
X165580771Y-108249887D01*
X165580771Y-108249887D02*
X165628390Y-108154649D01*
X165628390Y-108154649D02*
X165676009Y-108107030D01*
X165676009Y-108107030D02*
X165771247Y-108059411D01*
X165771247Y-108059411D02*
X166009342Y-108059411D01*
X166009342Y-108059411D02*
X166104580Y-108107030D01*
X166104580Y-108107030D02*
X166152200Y-108154649D01*
X166152200Y-108154649D02*
X166199819Y-108249887D01*
X166199819Y-108249887D02*
X166199819Y-108487982D01*
X166199819Y-108487982D02*
X166152200Y-108583220D01*
X166152200Y-108583220D02*
X166104580Y-108630839D01*
X165199819Y-107773696D02*
X166199819Y-107440363D01*
X166199819Y-107440363D02*
X165199819Y-107107030D01*
X140239819Y-108453220D02*
X139239819Y-108453220D01*
X139239819Y-108453220D02*
X139239819Y-108215125D01*
X139239819Y-108215125D02*
X139287438Y-108072268D01*
X139287438Y-108072268D02*
X139382676Y-107977030D01*
X139382676Y-107977030D02*
X139477914Y-107929411D01*
X139477914Y-107929411D02*
X139668390Y-107881792D01*
X139668390Y-107881792D02*
X139811247Y-107881792D01*
X139811247Y-107881792D02*
X140001723Y-107929411D01*
X140001723Y-107929411D02*
X140096961Y-107977030D01*
X140096961Y-107977030D02*
X140192200Y-108072268D01*
X140192200Y-108072268D02*
X140239819Y-108215125D01*
X140239819Y-108215125D02*
X140239819Y-108453220D01*
X139716009Y-107453220D02*
X139716009Y-107119887D01*
X140239819Y-106977030D02*
X140239819Y-107453220D01*
X140239819Y-107453220D02*
X139239819Y-107453220D01*
X139239819Y-107453220D02*
X139239819Y-106977030D01*
X139239819Y-106691315D02*
X139239819Y-106119887D01*
X140239819Y-106405601D02*
X139239819Y-106405601D01*
X165317438Y-102539411D02*
X165269819Y-102634649D01*
X165269819Y-102634649D02*
X165269819Y-102777506D01*
X165269819Y-102777506D02*
X165317438Y-102920363D01*
X165317438Y-102920363D02*
X165412676Y-103015601D01*
X165412676Y-103015601D02*
X165507914Y-103063220D01*
X165507914Y-103063220D02*
X165698390Y-103110839D01*
X165698390Y-103110839D02*
X165841247Y-103110839D01*
X165841247Y-103110839D02*
X166031723Y-103063220D01*
X166031723Y-103063220D02*
X166126961Y-103015601D01*
X166126961Y-103015601D02*
X166222200Y-102920363D01*
X166222200Y-102920363D02*
X166269819Y-102777506D01*
X166269819Y-102777506D02*
X166269819Y-102682268D01*
X166269819Y-102682268D02*
X166222200Y-102539411D01*
X166222200Y-102539411D02*
X166174580Y-102491792D01*
X166174580Y-102491792D02*
X165841247Y-102491792D01*
X165841247Y-102491792D02*
X165841247Y-102682268D01*
X166182200Y-105670839D02*
X166229819Y-105527982D01*
X166229819Y-105527982D02*
X166229819Y-105289887D01*
X166229819Y-105289887D02*
X166182200Y-105194649D01*
X166182200Y-105194649D02*
X166134580Y-105147030D01*
X166134580Y-105147030D02*
X166039342Y-105099411D01*
X166039342Y-105099411D02*
X165944104Y-105099411D01*
X165944104Y-105099411D02*
X165848866Y-105147030D01*
X165848866Y-105147030D02*
X165801247Y-105194649D01*
X165801247Y-105194649D02*
X165753628Y-105289887D01*
X165753628Y-105289887D02*
X165706009Y-105480363D01*
X165706009Y-105480363D02*
X165658390Y-105575601D01*
X165658390Y-105575601D02*
X165610771Y-105623220D01*
X165610771Y-105623220D02*
X165515533Y-105670839D01*
X165515533Y-105670839D02*
X165420295Y-105670839D01*
X165420295Y-105670839D02*
X165325057Y-105623220D01*
X165325057Y-105623220D02*
X165277438Y-105575601D01*
X165277438Y-105575601D02*
X165229819Y-105480363D01*
X165229819Y-105480363D02*
X165229819Y-105242268D01*
X165229819Y-105242268D02*
X165277438Y-105099411D01*
X132527255Y-115869819D02*
X132717731Y-115869819D01*
X132717731Y-115869819D02*
X132812969Y-115917438D01*
X132812969Y-115917438D02*
X132908207Y-116012676D01*
X132908207Y-116012676D02*
X132955826Y-116203152D01*
X132955826Y-116203152D02*
X132955826Y-116536485D01*
X132955826Y-116536485D02*
X132908207Y-116726961D01*
X132908207Y-116726961D02*
X132812969Y-116822200D01*
X132812969Y-116822200D02*
X132717731Y-116869819D01*
X132717731Y-116869819D02*
X132527255Y-116869819D01*
X132527255Y-116869819D02*
X132432017Y-116822200D01*
X132432017Y-116822200D02*
X132336779Y-116726961D01*
X132336779Y-116726961D02*
X132289160Y-116536485D01*
X132289160Y-116536485D02*
X132289160Y-116203152D01*
X132289160Y-116203152D02*
X132336779Y-116012676D01*
X132336779Y-116012676D02*
X132432017Y-115917438D01*
X132432017Y-115917438D02*
X132527255Y-115869819D01*
X133384398Y-115869819D02*
X133384398Y-116679342D01*
X133384398Y-116679342D02*
X133432017Y-116774580D01*
X133432017Y-116774580D02*
X133479636Y-116822200D01*
X133479636Y-116822200D02*
X133574874Y-116869819D01*
X133574874Y-116869819D02*
X133765350Y-116869819D01*
X133765350Y-116869819D02*
X133860588Y-116822200D01*
X133860588Y-116822200D02*
X133908207Y-116774580D01*
X133908207Y-116774580D02*
X133955826Y-116679342D01*
X133955826Y-116679342D02*
X133955826Y-115869819D01*
X134289160Y-115869819D02*
X134860588Y-115869819D01*
X134574874Y-116869819D02*
X134574874Y-115869819D01*
D11*
%TO.C,R3*%
X140420000Y-103103641D02*
X140420000Y-102796359D01*
X141180000Y-103103641D02*
X141180000Y-102796359D01*
%TO.C,R4*%
X139410000Y-105053641D02*
X139410000Y-104746359D01*
X140170000Y-105053641D02*
X140170000Y-104746359D01*
D12*
%TO.C,D1*%
X139440000Y-102800000D02*
X139440000Y-103100000D01*
X140140000Y-102800000D02*
X140140000Y-103100000D01*
%TO.C,SW1*%
D10*
X153150000Y-117175000D02*
X139850000Y-117175000D01*
X139850000Y-110675000D01*
X153150000Y-110675000D01*
X153150000Y-117175000D01*
D11*
%TO.C,J1*%
X166620000Y-101480000D02*
X168000000Y-101480000D01*
X166620000Y-102860000D02*
X166620000Y-101480000D01*
X166620000Y-104130000D02*
X166620000Y-109320000D01*
X166620000Y-104130000D02*
X169380000Y-104130000D01*
X166620000Y-109320000D02*
X169380000Y-109320000D01*
X169380000Y-104130000D02*
X169380000Y-109320000D01*
D12*
%TO.C,D2*%
X138100000Y-102800000D02*
X138100000Y-103100000D01*
X138800000Y-102800000D02*
X138800000Y-103100000D01*
D11*
%TO.C,R5*%
X138070000Y-105053641D02*
X138070000Y-104746359D01*
X138830000Y-105053641D02*
X138830000Y-104746359D01*
D10*
%TO.C,C1*%
X161685605Y-105534640D02*
X161685605Y-106784640D01*
X162355605Y-106164640D02*
X161005605Y-106164640D01*
D12*
%TO.C,Q1*%
X142970000Y-101450000D02*
X148870000Y-101450000D01*
X142970000Y-101750000D02*
X142970000Y-101450000D01*
X142970000Y-103020000D02*
X142970000Y-102660000D01*
X142970000Y-104290000D02*
X142970000Y-103930000D01*
X142970000Y-105560000D02*
X142970000Y-105200000D01*
X142970000Y-106770000D02*
X142970000Y-106470000D01*
X142970000Y-106770000D02*
X148870000Y-106770000D01*
X148870000Y-101800000D02*
X148870000Y-101450000D01*
X148870000Y-103070000D02*
X148870000Y-102610000D01*
X148870000Y-104340000D02*
X148870000Y-103880000D01*
X148870000Y-105610000D02*
X148870000Y-105150000D01*
X148870000Y-106770000D02*
X148870000Y-106420000D01*
D13*
X148131561Y-106336362D02*
G75*
G02*
X147831561Y-106336362I-150000J0D01*
G01*
X147831561Y-106336362D02*
G75*
G02*
X148131561Y-106336362I150000J0D01*
G01*
%TO.C,Q2*%
D12*
X151900000Y-104100000D02*
X154900000Y-104100000D01*
X154900000Y-102700000D01*
X151900000Y-102700000D01*
X151900000Y-104100000D01*
D11*
%TO.C,R1*%
X155225404Y-103405119D02*
X155225404Y-103712401D01*
X155985404Y-103405119D02*
X155985404Y-103712401D01*
D10*
%TO.C,U1*%
X129400000Y-101440000D02*
X129400000Y-114550000D01*
X130110000Y-101440000D02*
X129400000Y-101440000D01*
X130110000Y-108170000D02*
X132520000Y-108170000D01*
X130110000Y-114550000D02*
X129400000Y-114550000D01*
X130110000Y-114550000D02*
X130110000Y-108170000D01*
X132520000Y-108170000D02*
X132570000Y-108170000D01*
X132570000Y-114550000D02*
X132570000Y-108170000D01*
X132830000Y-101790000D02*
X132830000Y-101790000D01*
X132830000Y-104590000D02*
X132830000Y-101790000D01*
X132830000Y-104590000D02*
X133210000Y-104590000D01*
X132830000Y-105350000D02*
X132830000Y-104590000D01*
X133210000Y-104590000D02*
X132830000Y-105350000D01*
X134110000Y-101440000D02*
X132570000Y-101440000D01*
X134110000Y-108170000D02*
X136520000Y-108170000D01*
X134110000Y-114550000D02*
X132570000Y-114550000D01*
X134110000Y-114550000D02*
X134110000Y-108170000D01*
X136520000Y-108170000D02*
X136570000Y-108170000D01*
X136570000Y-114550000D02*
X136570000Y-108170000D01*
X137400000Y-101440000D02*
X136570000Y-101440000D01*
X137400000Y-114550000D02*
X136570000Y-114550000D01*
X137400000Y-114550000D02*
X137400000Y-101440000D01*
X132010000Y-109700000D02*
G75*
G02*
X130730000Y-109700000I-640000J0D01*
G01*
X130730000Y-109700000D02*
G75*
G02*
X132010000Y-109700000I640000J0D01*
G01*
X136010000Y-109700000D02*
G75*
G02*
X134730000Y-109700000I-640000J0D01*
G01*
X134730000Y-109700000D02*
G75*
G02*
X136010000Y-109700000I640000J0D01*
G01*
%TO.C,U2*%
X156350000Y-110270000D02*
X156350000Y-109560000D01*
X156350000Y-110270000D02*
X162730000Y-110270000D01*
X156350000Y-112730000D02*
X162730000Y-112730000D01*
X156350000Y-114270000D02*
X156350000Y-112730000D01*
X156350000Y-114270000D02*
X162730000Y-114270000D01*
X156350000Y-116730000D02*
X162730000Y-116730000D01*
X156350000Y-117560000D02*
X156350000Y-116730000D01*
X156350000Y-117560000D02*
X169460000Y-117560000D01*
X162730000Y-110270000D02*
X162730000Y-112680000D01*
X162730000Y-112680000D02*
X162730000Y-112730000D01*
X162730000Y-114270000D02*
X162730000Y-116680000D01*
X162730000Y-116680000D02*
X162730000Y-116730000D01*
X165550000Y-112990000D02*
X166310000Y-112990000D01*
X166310000Y-112990000D02*
X166310000Y-113370000D01*
X166310000Y-112990000D02*
X169110000Y-112990000D01*
X166310000Y-113370000D02*
X165550000Y-112990000D01*
X169110000Y-112990000D02*
X169110000Y-112990000D01*
X169460000Y-109560000D02*
X156350000Y-109560000D01*
X169460000Y-110270000D02*
X169460000Y-109560000D01*
X169460000Y-114270000D02*
X169460000Y-112730000D01*
X169460000Y-117560000D02*
X169460000Y-116730000D01*
X161840000Y-111530000D02*
G75*
G02*
X160560000Y-111530000I-640000J0D01*
G01*
X160560000Y-111530000D02*
G75*
G02*
X161840000Y-111530000I640000J0D01*
G01*
X161840000Y-115530000D02*
G75*
G02*
X160560000Y-115530000I-640000J0D01*
G01*
X160560000Y-115530000D02*
G75*
G02*
X161840000Y-115530000I640000J0D01*
G01*
D11*
%TO.C,R2*%
X150810000Y-104523641D02*
X150810000Y-104216359D01*
X151570000Y-104523641D02*
X151570000Y-104216359D01*
%TD*%
M02*
