M48
; DRILL file {KiCad 9.0.2} date 2025-07-09T21:54:32+0200
; FORMAT={-:-/ absolute / metric / decimal}
; #@! TF.CreationDate,2025-07-09T21:54:32+02:00
; #@! TF.GenerationSoftware,Kicad,Pcbnew,9.0.2
; #@! TF.FileFunction,Plated,1,2,PTH
FMAT,2
METRIC
; #@! TA.AperFunction,Plated,PTH,ViaDrill
T1C0.300
; #@! TA.AperFunction,Plated,PTH,ViaDrill
T2C0.400
; #@! TA.AperFunction,Plated,PTH,ComponentDrill
T3C1.000
; #@! TA.AperFunction,Plated,PTH,ComponentDrill
T4C1.200
%
G90
G05
T1
X136.5Y-108.0
X139.4Y-103.9
X139.4Y-105.0
X141.7Y-105.8
X143.0Y-107.6
X143.7Y-109.8
X144.52Y-103.81
X147.24Y-109.63
X147.64Y-108.59
X149.87Y-104.4
X154.1Y-104.1
X154.2Y-106.7
X158.1Y-106.7
X160.0Y-104.77
X160.4Y-113.3
X161.1Y-114.1
T2
X154.9Y-110.8
X156.2Y-110.8
X170.0Y-107.9
X170.0Y-109.0
X170.0Y-110.2
X170.0Y-114.4
X170.0Y-115.7
X170.5Y-112.7
X171.5Y-111.6
T3
X145.27Y-108.475
X150.35Y-108.475
X155.43Y-108.475
X176.0Y-107.08
X176.0Y-109.62
X176.0Y-112.16
T4
X126.7Y-107.1
X126.7Y-112.1
X179.5Y-107.12
X179.5Y-112.12
M30
