%TF.GenerationSoftware,KiCad,Pcbnew,9.0.2*%
%TF.CreationDate,2025-07-09T21:54:35+02:00*%
%TF.ProjectId,drone_controller,64726f6e-655f-4636-9f6e-74726f6c6c65,rev?*%
%TF.SameCoordinates,Original*%
%TF.FileFunction,Soldermask,Bot*%
%TF.FilePolarity,Negative*%
%FSLAX46Y46*%
G04 Gerber Fmt 4.6, Leading zero omitted, Abs format (unit mm)*
G04 Created by KiCad (PCBNEW 9.0.2) date 2025-07-09 21:54:35*
%MOMM*%
%LPD*%
G01*
G04 APERTURE LIST*
G04 APERTURE END LIST*
G36*
X180550000Y-113170000D02*
G01*
X178450000Y-113170000D01*
X178450000Y-111070000D01*
X180550000Y-111070000D01*
X180550000Y-113170000D01*
G37*
G36*
X126792687Y-111055056D02*
G01*
X126802918Y-111055056D01*
X126842893Y-111063007D01*
X126945074Y-111079191D01*
X126977943Y-111089870D01*
X127004799Y-111095213D01*
X127042700Y-111110912D01*
X127101741Y-111130096D01*
X127157052Y-111158278D01*
X127194967Y-111173983D01*
X127217742Y-111189201D01*
X127248528Y-111204887D01*
X127332217Y-111265690D01*
X127366113Y-111288339D01*
X127373347Y-111295573D01*
X127381798Y-111301713D01*
X127498286Y-111418201D01*
X127504425Y-111426651D01*
X127511661Y-111433887D01*
X127534312Y-111467787D01*
X127595112Y-111551471D01*
X127610796Y-111582254D01*
X127626017Y-111605033D01*
X127641723Y-111642952D01*
X127669903Y-111698258D01*
X127689084Y-111757292D01*
X127704787Y-111795201D01*
X127710130Y-111822062D01*
X127720808Y-111854925D01*
X127736990Y-111957098D01*
X127744944Y-111997082D01*
X127744944Y-112007313D01*
X127746578Y-112017630D01*
X127746578Y-112182369D01*
X127744944Y-112192685D01*
X127744944Y-112202918D01*
X127736990Y-112242905D01*
X127720808Y-112345074D01*
X127710130Y-112377935D01*
X127704787Y-112404799D01*
X127689083Y-112442711D01*
X127669903Y-112501741D01*
X127641726Y-112557041D01*
X127626017Y-112594967D01*
X127610794Y-112617749D01*
X127595112Y-112648528D01*
X127534320Y-112732200D01*
X127511661Y-112766113D01*
X127504423Y-112773350D01*
X127498286Y-112781798D01*
X127381798Y-112898286D01*
X127373350Y-112904423D01*
X127366113Y-112911661D01*
X127332200Y-112934320D01*
X127248528Y-112995112D01*
X127217749Y-113010794D01*
X127194967Y-113026017D01*
X127157041Y-113041726D01*
X127101741Y-113069903D01*
X127042711Y-113089083D01*
X127004799Y-113104787D01*
X126977935Y-113110130D01*
X126945074Y-113120808D01*
X126842902Y-113136990D01*
X126802918Y-113144944D01*
X126792687Y-113144944D01*
X126782370Y-113146578D01*
X126617630Y-113146578D01*
X126607313Y-113144944D01*
X126597082Y-113144944D01*
X126557098Y-113136990D01*
X126454925Y-113120808D01*
X126422062Y-113110130D01*
X126395201Y-113104787D01*
X126357292Y-113089084D01*
X126298258Y-113069903D01*
X126242952Y-113041723D01*
X126205033Y-113026017D01*
X126182254Y-113010796D01*
X126151471Y-112995112D01*
X126067787Y-112934312D01*
X126033887Y-112911661D01*
X126026651Y-112904425D01*
X126018201Y-112898286D01*
X125901713Y-112781798D01*
X125895573Y-112773347D01*
X125888339Y-112766113D01*
X125865690Y-112732217D01*
X125804887Y-112648528D01*
X125789201Y-112617742D01*
X125773983Y-112594967D01*
X125758278Y-112557052D01*
X125730096Y-112501741D01*
X125710912Y-112442700D01*
X125695213Y-112404799D01*
X125689870Y-112377943D01*
X125679191Y-112345074D01*
X125663008Y-112242895D01*
X125655056Y-112202918D01*
X125655056Y-112192686D01*
X125653422Y-112182369D01*
X125653422Y-112017630D01*
X125655056Y-112007312D01*
X125655056Y-111997082D01*
X125663007Y-111957108D01*
X125679191Y-111854925D01*
X125689871Y-111822054D01*
X125695213Y-111795201D01*
X125710910Y-111757303D01*
X125730096Y-111698258D01*
X125758280Y-111642942D01*
X125773983Y-111605033D01*
X125789199Y-111582260D01*
X125804887Y-111551471D01*
X125865699Y-111467770D01*
X125888339Y-111433887D01*
X125895570Y-111426655D01*
X125901713Y-111418201D01*
X126018201Y-111301713D01*
X126026655Y-111295570D01*
X126033887Y-111288339D01*
X126067770Y-111265699D01*
X126151471Y-111204887D01*
X126182260Y-111189199D01*
X126205033Y-111173983D01*
X126242942Y-111158280D01*
X126298258Y-111130096D01*
X126357303Y-111110910D01*
X126395201Y-111095213D01*
X126422054Y-111089871D01*
X126454925Y-111079191D01*
X126557108Y-111063007D01*
X126597082Y-111055056D01*
X126607313Y-111055056D01*
X126617630Y-111053422D01*
X126782370Y-111053422D01*
X126792687Y-111055056D01*
G37*
G36*
X176850000Y-113010000D02*
G01*
X175150000Y-113010000D01*
X175150000Y-111310000D01*
X176850000Y-111310000D01*
X176850000Y-113010000D01*
G37*
G36*
X133073543Y-111182402D02*
G01*
X133185520Y-111247052D01*
X133276948Y-111338480D01*
X133341598Y-111450457D01*
X133375063Y-111575350D01*
X133375063Y-111704650D01*
X133341598Y-111829543D01*
X133276948Y-111941520D01*
X133185520Y-112032948D01*
X133073543Y-112097598D01*
X132948650Y-112131063D01*
X132819350Y-112131063D01*
X132694457Y-112097598D01*
X132582480Y-112032948D01*
X132491052Y-111941520D01*
X132426402Y-111829543D01*
X132392937Y-111704650D01*
X132392937Y-111575350D01*
X132426402Y-111450457D01*
X132491052Y-111338480D01*
X132582480Y-111247052D01*
X132694457Y-111182402D01*
X132819350Y-111148937D01*
X132948650Y-111148937D01*
X133073543Y-111182402D01*
G37*
G36*
X135105543Y-111182402D02*
G01*
X135217520Y-111247052D01*
X135308948Y-111338480D01*
X135373598Y-111450457D01*
X135407063Y-111575350D01*
X135407063Y-111704650D01*
X135373598Y-111829543D01*
X135308948Y-111941520D01*
X135217520Y-112032948D01*
X135105543Y-112097598D01*
X134980650Y-112131063D01*
X134851350Y-112131063D01*
X134726457Y-112097598D01*
X134614480Y-112032948D01*
X134523052Y-111941520D01*
X134458402Y-111829543D01*
X134424937Y-111704650D01*
X134424937Y-111575350D01*
X134458402Y-111450457D01*
X134523052Y-111338480D01*
X134614480Y-111247052D01*
X134726457Y-111182402D01*
X134851350Y-111148937D01*
X134980650Y-111148937D01*
X135105543Y-111182402D01*
G37*
G36*
X133415662Y-110006269D02*
G01*
X133504669Y-110057657D01*
X133577343Y-110130331D01*
X133628731Y-110219338D01*
X133655332Y-110318612D01*
X133655332Y-110421388D01*
X133628731Y-110520662D01*
X133577343Y-110609669D01*
X133504669Y-110682343D01*
X133415662Y-110733731D01*
X133316388Y-110760332D01*
X133213612Y-110760332D01*
X133114338Y-110733731D01*
X133025331Y-110682343D01*
X132952657Y-110609669D01*
X132901269Y-110520662D01*
X132874668Y-110421388D01*
X132874668Y-110318612D01*
X132901269Y-110219338D01*
X132952657Y-110130331D01*
X133025331Y-110057657D01*
X133114338Y-110006269D01*
X133213612Y-109979668D01*
X133316388Y-109979668D01*
X133415662Y-110006269D01*
G37*
G36*
X134685662Y-110006269D02*
G01*
X134774669Y-110057657D01*
X134847343Y-110130331D01*
X134898731Y-110219338D01*
X134925332Y-110318612D01*
X134925332Y-110421388D01*
X134898731Y-110520662D01*
X134847343Y-110609669D01*
X134774669Y-110682343D01*
X134685662Y-110733731D01*
X134586388Y-110760332D01*
X134483612Y-110760332D01*
X134384338Y-110733731D01*
X134295331Y-110682343D01*
X134222657Y-110609669D01*
X134171269Y-110520662D01*
X134144668Y-110421388D01*
X134144668Y-110318612D01*
X134171269Y-110219338D01*
X134222657Y-110130331D01*
X134295331Y-110057657D01*
X134384338Y-110006269D01*
X134483612Y-109979668D01*
X134586388Y-109979668D01*
X134685662Y-110006269D01*
G37*
G36*
X176246742Y-108806601D02*
G01*
X176400687Y-108870367D01*
X176539234Y-108962941D01*
X176657059Y-109080766D01*
X176749633Y-109219313D01*
X176813399Y-109373258D01*
X176845907Y-109536685D01*
X176845907Y-109703315D01*
X176813399Y-109866742D01*
X176749633Y-110020687D01*
X176657059Y-110159234D01*
X176539234Y-110277059D01*
X176400687Y-110369633D01*
X176246742Y-110433399D01*
X176083315Y-110465907D01*
X175916685Y-110465907D01*
X175753258Y-110433399D01*
X175599313Y-110369633D01*
X175460766Y-110277059D01*
X175342941Y-110159234D01*
X175250367Y-110020687D01*
X175186601Y-109866742D01*
X175154093Y-109703315D01*
X175154093Y-109536685D01*
X175186601Y-109373258D01*
X175250367Y-109219313D01*
X175342941Y-109080766D01*
X175460766Y-108962941D01*
X175599313Y-108870367D01*
X175753258Y-108806601D01*
X175916685Y-108774093D01*
X176083315Y-108774093D01*
X176246742Y-108806601D01*
G37*
G36*
X133415662Y-108736269D02*
G01*
X133504669Y-108787657D01*
X133577343Y-108860331D01*
X133628731Y-108949338D01*
X133655332Y-109048612D01*
X133655332Y-109151388D01*
X133628731Y-109250662D01*
X133577343Y-109339669D01*
X133504669Y-109412343D01*
X133415662Y-109463731D01*
X133316388Y-109490332D01*
X133213612Y-109490332D01*
X133114338Y-109463731D01*
X133025331Y-109412343D01*
X132952657Y-109339669D01*
X132901269Y-109250662D01*
X132874668Y-109151388D01*
X132874668Y-109048612D01*
X132901269Y-108949338D01*
X132952657Y-108860331D01*
X133025331Y-108787657D01*
X133114338Y-108736269D01*
X133213612Y-108709668D01*
X133316388Y-108709668D01*
X133415662Y-108736269D01*
G37*
G36*
X134685662Y-108736269D02*
G01*
X134774669Y-108787657D01*
X134847343Y-108860331D01*
X134898731Y-108949338D01*
X134925332Y-109048612D01*
X134925332Y-109151388D01*
X134898731Y-109250662D01*
X134847343Y-109339669D01*
X134774669Y-109412343D01*
X134685662Y-109463731D01*
X134586388Y-109490332D01*
X134483612Y-109490332D01*
X134384338Y-109463731D01*
X134295331Y-109412343D01*
X134222657Y-109339669D01*
X134171269Y-109250662D01*
X134144668Y-109151388D01*
X134144668Y-109048612D01*
X134171269Y-108949338D01*
X134222657Y-108860331D01*
X134295331Y-108787657D01*
X134384338Y-108736269D01*
X134483612Y-108709668D01*
X134586388Y-108709668D01*
X134685662Y-108736269D01*
G37*
G36*
X145560285Y-107518060D02*
G01*
X145741397Y-107593079D01*
X145904393Y-107701990D01*
X146043010Y-107840607D01*
X146151921Y-108003603D01*
X146226940Y-108184715D01*
X146265185Y-108376983D01*
X146265185Y-108573017D01*
X146226940Y-108765285D01*
X146151921Y-108946397D01*
X146043010Y-109109393D01*
X145904393Y-109248010D01*
X145741397Y-109356921D01*
X145560285Y-109431940D01*
X145368017Y-109470185D01*
X145171983Y-109470185D01*
X144979715Y-109431940D01*
X144798603Y-109356921D01*
X144635607Y-109248010D01*
X144496990Y-109109393D01*
X144388079Y-108946397D01*
X144313060Y-108765285D01*
X144274815Y-108573017D01*
X144274815Y-108376983D01*
X144313060Y-108184715D01*
X144388079Y-108003603D01*
X144496990Y-107840607D01*
X144635607Y-107701990D01*
X144798603Y-107593079D01*
X144979715Y-107518060D01*
X145171983Y-107479815D01*
X145368017Y-107479815D01*
X145560285Y-107518060D01*
G37*
G36*
X150640285Y-107518060D02*
G01*
X150821397Y-107593079D01*
X150984393Y-107701990D01*
X151123010Y-107840607D01*
X151231921Y-108003603D01*
X151306940Y-108184715D01*
X151345185Y-108376983D01*
X151345185Y-108573017D01*
X151306940Y-108765285D01*
X151231921Y-108946397D01*
X151123010Y-109109393D01*
X150984393Y-109248010D01*
X150821397Y-109356921D01*
X150640285Y-109431940D01*
X150448017Y-109470185D01*
X150251983Y-109470185D01*
X150059715Y-109431940D01*
X149878603Y-109356921D01*
X149715607Y-109248010D01*
X149576990Y-109109393D01*
X149468079Y-108946397D01*
X149393060Y-108765285D01*
X149354815Y-108573017D01*
X149354815Y-108376983D01*
X149393060Y-108184715D01*
X149468079Y-108003603D01*
X149576990Y-107840607D01*
X149715607Y-107701990D01*
X149878603Y-107593079D01*
X150059715Y-107518060D01*
X150251983Y-107479815D01*
X150448017Y-107479815D01*
X150640285Y-107518060D01*
G37*
G36*
X155720285Y-107518060D02*
G01*
X155901397Y-107593079D01*
X156064393Y-107701990D01*
X156203010Y-107840607D01*
X156311921Y-108003603D01*
X156386940Y-108184715D01*
X156425185Y-108376983D01*
X156425185Y-108573017D01*
X156386940Y-108765285D01*
X156311921Y-108946397D01*
X156203010Y-109109393D01*
X156064393Y-109248010D01*
X155901397Y-109356921D01*
X155720285Y-109431940D01*
X155528017Y-109470185D01*
X155331983Y-109470185D01*
X155139715Y-109431940D01*
X154958603Y-109356921D01*
X154795607Y-109248010D01*
X154656990Y-109109393D01*
X154548079Y-108946397D01*
X154473060Y-108765285D01*
X154434815Y-108573017D01*
X154434815Y-108376983D01*
X154473060Y-108184715D01*
X154548079Y-108003603D01*
X154656990Y-107840607D01*
X154795607Y-107701990D01*
X154958603Y-107593079D01*
X155139715Y-107518060D01*
X155331983Y-107479815D01*
X155528017Y-107479815D01*
X155720285Y-107518060D01*
G37*
G36*
X133415662Y-107466269D02*
G01*
X133504669Y-107517657D01*
X133577343Y-107590331D01*
X133628731Y-107679338D01*
X133655332Y-107778612D01*
X133655332Y-107881388D01*
X133628731Y-107980662D01*
X133577343Y-108069669D01*
X133504669Y-108142343D01*
X133415662Y-108193731D01*
X133316388Y-108220332D01*
X133213612Y-108220332D01*
X133114338Y-108193731D01*
X133025331Y-108142343D01*
X132952657Y-108069669D01*
X132901269Y-107980662D01*
X132874668Y-107881388D01*
X132874668Y-107778612D01*
X132901269Y-107679338D01*
X132952657Y-107590331D01*
X133025331Y-107517657D01*
X133114338Y-107466269D01*
X133213612Y-107439668D01*
X133316388Y-107439668D01*
X133415662Y-107466269D01*
G37*
G36*
X134685662Y-107466269D02*
G01*
X134774669Y-107517657D01*
X134847343Y-107590331D01*
X134898731Y-107679338D01*
X134925332Y-107778612D01*
X134925332Y-107881388D01*
X134898731Y-107980662D01*
X134847343Y-108069669D01*
X134774669Y-108142343D01*
X134685662Y-108193731D01*
X134586388Y-108220332D01*
X134483612Y-108220332D01*
X134384338Y-108193731D01*
X134295331Y-108142343D01*
X134222657Y-108069669D01*
X134171269Y-107980662D01*
X134144668Y-107881388D01*
X134144668Y-107778612D01*
X134171269Y-107679338D01*
X134222657Y-107590331D01*
X134295331Y-107517657D01*
X134384338Y-107466269D01*
X134483612Y-107439668D01*
X134586388Y-107439668D01*
X134685662Y-107466269D01*
G37*
G36*
X179592687Y-106075056D02*
G01*
X179602918Y-106075056D01*
X179642893Y-106083007D01*
X179745074Y-106099191D01*
X179777943Y-106109870D01*
X179804799Y-106115213D01*
X179842700Y-106130912D01*
X179901741Y-106150096D01*
X179957052Y-106178278D01*
X179994967Y-106193983D01*
X180017742Y-106209201D01*
X180048528Y-106224887D01*
X180132217Y-106285690D01*
X180166113Y-106308339D01*
X180173347Y-106315573D01*
X180181798Y-106321713D01*
X180298286Y-106438201D01*
X180304425Y-106446651D01*
X180311661Y-106453887D01*
X180334312Y-106487787D01*
X180395112Y-106571471D01*
X180410796Y-106602254D01*
X180426017Y-106625033D01*
X180441723Y-106662952D01*
X180469903Y-106718258D01*
X180489084Y-106777292D01*
X180504787Y-106815201D01*
X180510130Y-106842062D01*
X180520808Y-106874925D01*
X180536990Y-106977098D01*
X180544944Y-107017082D01*
X180544944Y-107027313D01*
X180546578Y-107037630D01*
X180546578Y-107202369D01*
X180544944Y-107212685D01*
X180544944Y-107222918D01*
X180536990Y-107262905D01*
X180520808Y-107365074D01*
X180510130Y-107397935D01*
X180504787Y-107424799D01*
X180489083Y-107462711D01*
X180469903Y-107521741D01*
X180441726Y-107577041D01*
X180426017Y-107614967D01*
X180410794Y-107637749D01*
X180395112Y-107668528D01*
X180334320Y-107752200D01*
X180311661Y-107786113D01*
X180304423Y-107793350D01*
X180298286Y-107801798D01*
X180181798Y-107918286D01*
X180173350Y-107924423D01*
X180166113Y-107931661D01*
X180132200Y-107954320D01*
X180048528Y-108015112D01*
X180017749Y-108030794D01*
X179994967Y-108046017D01*
X179957041Y-108061726D01*
X179901741Y-108089903D01*
X179842711Y-108109083D01*
X179804799Y-108124787D01*
X179777935Y-108130130D01*
X179745074Y-108140808D01*
X179642902Y-108156990D01*
X179602918Y-108164944D01*
X179592687Y-108164944D01*
X179582370Y-108166578D01*
X179417630Y-108166578D01*
X179407313Y-108164944D01*
X179397082Y-108164944D01*
X179357098Y-108156990D01*
X179254925Y-108140808D01*
X179222062Y-108130130D01*
X179195201Y-108124787D01*
X179157292Y-108109084D01*
X179098258Y-108089903D01*
X179042952Y-108061723D01*
X179005033Y-108046017D01*
X178982254Y-108030796D01*
X178951471Y-108015112D01*
X178867787Y-107954312D01*
X178833887Y-107931661D01*
X178826651Y-107924425D01*
X178818201Y-107918286D01*
X178701713Y-107801798D01*
X178695573Y-107793347D01*
X178688339Y-107786113D01*
X178665690Y-107752217D01*
X178604887Y-107668528D01*
X178589201Y-107637742D01*
X178573983Y-107614967D01*
X178558278Y-107577052D01*
X178530096Y-107521741D01*
X178510912Y-107462700D01*
X178495213Y-107424799D01*
X178489870Y-107397943D01*
X178479191Y-107365074D01*
X178463008Y-107262895D01*
X178455056Y-107222918D01*
X178455056Y-107212686D01*
X178453422Y-107202369D01*
X178453422Y-107037630D01*
X178455056Y-107027312D01*
X178455056Y-107017082D01*
X178463007Y-106977108D01*
X178479191Y-106874925D01*
X178489871Y-106842054D01*
X178495213Y-106815201D01*
X178510910Y-106777303D01*
X178530096Y-106718258D01*
X178558280Y-106662942D01*
X178573983Y-106625033D01*
X178589199Y-106602260D01*
X178604887Y-106571471D01*
X178665699Y-106487770D01*
X178688339Y-106453887D01*
X178695570Y-106446655D01*
X178701713Y-106438201D01*
X178818201Y-106321713D01*
X178826655Y-106315570D01*
X178833887Y-106308339D01*
X178867770Y-106285699D01*
X178951471Y-106224887D01*
X178982260Y-106209199D01*
X179005033Y-106193983D01*
X179042942Y-106178280D01*
X179098258Y-106150096D01*
X179157303Y-106130910D01*
X179195201Y-106115213D01*
X179222054Y-106109871D01*
X179254925Y-106099191D01*
X179357108Y-106083007D01*
X179397082Y-106075056D01*
X179407313Y-106075056D01*
X179417630Y-106073422D01*
X179582370Y-106073422D01*
X179592687Y-106075056D01*
G37*
G36*
X127750000Y-108150000D02*
G01*
X125650000Y-108150000D01*
X125650000Y-106050000D01*
X127750000Y-106050000D01*
X127750000Y-108150000D01*
G37*
G36*
X176246742Y-106266601D02*
G01*
X176400687Y-106330367D01*
X176539234Y-106422941D01*
X176657059Y-106540766D01*
X176749633Y-106679313D01*
X176813399Y-106833258D01*
X176845907Y-106996685D01*
X176845907Y-107163315D01*
X176813399Y-107326742D01*
X176749633Y-107480687D01*
X176657059Y-107619234D01*
X176539234Y-107737059D01*
X176400687Y-107829633D01*
X176246742Y-107893399D01*
X176083315Y-107925907D01*
X175916685Y-107925907D01*
X175753258Y-107893399D01*
X175599313Y-107829633D01*
X175460766Y-107737059D01*
X175342941Y-107619234D01*
X175250367Y-107480687D01*
X175186601Y-107326742D01*
X175154093Y-107163315D01*
X175154093Y-106996685D01*
X175186601Y-106833258D01*
X175250367Y-106679313D01*
X175342941Y-106540766D01*
X175460766Y-106422941D01*
X175599313Y-106330367D01*
X175753258Y-106266601D01*
X175916685Y-106234093D01*
X176083315Y-106234093D01*
X176246742Y-106266601D01*
G37*
G36*
X134089543Y-106102402D02*
G01*
X134201520Y-106167052D01*
X134292948Y-106258480D01*
X134357598Y-106370457D01*
X134391063Y-106495350D01*
X134391063Y-106624650D01*
X134357598Y-106749543D01*
X134292948Y-106861520D01*
X134201520Y-106952948D01*
X134089543Y-107017598D01*
X133964650Y-107051063D01*
X133835350Y-107051063D01*
X133710457Y-107017598D01*
X133598480Y-106952948D01*
X133507052Y-106861520D01*
X133442402Y-106749543D01*
X133408937Y-106624650D01*
X133408937Y-106495350D01*
X133442402Y-106370457D01*
X133507052Y-106258480D01*
X133598480Y-106167052D01*
X133710457Y-106102402D01*
X133835350Y-106068937D01*
X133964650Y-106068937D01*
X134089543Y-106102402D01*
G37*
M02*
