%TF.GenerationSoftware,KiCad,Pcbnew,9.0.2*%
%TF.CreationDate,2025-07-09T21:54:35+02:00*%
%TF.ProjectId,drone_controller,64726f6e-655f-4636-9f6e-74726f6c6c65,rev?*%
%TF.SameCoordinates,Original*%
%TF.FileFunction,Soldermask,Top*%
%TF.FilePolarity,Negative*%
%FSLAX46Y46*%
G04 Gerber Fmt 4.6, Leading zero omitted, Abs format (unit mm)*
G04 Created by KiCad (PCBNEW 9.0.2) date 2025-07-09 21:54:35*
%MOMM*%
%LPD*%
G01*
G04 APERTURE LIST*
G04 APERTURE END LIST*
G36*
X166200000Y-116050000D02*
G01*
X163700000Y-116050000D01*
X163700000Y-114850000D01*
X166200000Y-114850000D01*
X166200000Y-116050000D01*
G37*
G36*
X169150000Y-116050000D02*
G01*
X166650000Y-116050000D01*
X166650000Y-114850000D01*
X169150000Y-114850000D01*
X169150000Y-116050000D01*
G37*
G36*
X141036913Y-110140381D02*
G01*
X141042370Y-110142641D01*
X141042373Y-110142642D01*
X141064777Y-110151922D01*
X141075804Y-110156490D01*
X141078510Y-110159196D01*
X141094619Y-110198087D01*
X141095000Y-110200000D01*
X141095000Y-114610000D01*
X141094619Y-114611913D01*
X141078510Y-114650804D01*
X141075804Y-114653510D01*
X141036913Y-114669619D01*
X141035000Y-114670000D01*
X141029090Y-114670000D01*
X136490910Y-114670000D01*
X136485000Y-114670000D01*
X136483087Y-114669619D01*
X136444196Y-114653510D01*
X136441490Y-114650804D01*
X136436922Y-114639777D01*
X136427642Y-114617373D01*
X136427641Y-114617370D01*
X136425381Y-114611913D01*
X136425000Y-114610000D01*
X136425000Y-114010000D01*
X136425381Y-114008087D01*
X136427641Y-114002630D01*
X136427642Y-114002626D01*
X136436922Y-113980222D01*
X136436923Y-113980220D01*
X136441490Y-113969196D01*
X136444196Y-113966490D01*
X136455220Y-113961923D01*
X136455222Y-113961922D01*
X136477626Y-113952642D01*
X136477630Y-113952641D01*
X136483087Y-113950381D01*
X136485000Y-113950000D01*
X137189853Y-113950000D01*
X137225000Y-113914853D01*
X137225000Y-113435147D01*
X137189853Y-113400000D01*
X136485000Y-113400000D01*
X136483087Y-113399619D01*
X136444196Y-113383510D01*
X136441490Y-113380804D01*
X136436922Y-113369777D01*
X136427642Y-113347373D01*
X136427641Y-113347370D01*
X136425381Y-113341913D01*
X136425000Y-113340000D01*
X136425000Y-112740000D01*
X136425381Y-112738087D01*
X136427641Y-112732630D01*
X136427642Y-112732626D01*
X136436922Y-112710222D01*
X136436923Y-112710220D01*
X136441490Y-112699196D01*
X136444196Y-112696490D01*
X136455220Y-112691923D01*
X136455222Y-112691922D01*
X136477626Y-112682642D01*
X136477630Y-112682641D01*
X136483087Y-112680381D01*
X136485000Y-112680000D01*
X137189853Y-112680000D01*
X137225000Y-112644853D01*
X137225000Y-112165147D01*
X137189853Y-112130000D01*
X136485000Y-112130000D01*
X136483087Y-112129619D01*
X136444196Y-112113510D01*
X136441490Y-112110804D01*
X136436922Y-112099777D01*
X136427642Y-112077373D01*
X136427641Y-112077370D01*
X136425381Y-112071913D01*
X136425000Y-112070000D01*
X136425000Y-111470000D01*
X136425381Y-111468087D01*
X136427641Y-111462630D01*
X136427642Y-111462626D01*
X136436922Y-111440222D01*
X136436923Y-111440220D01*
X136441490Y-111429196D01*
X136444196Y-111426490D01*
X136455220Y-111421923D01*
X136455222Y-111421922D01*
X136477626Y-111412642D01*
X136477630Y-111412641D01*
X136483087Y-111410381D01*
X136485000Y-111410000D01*
X137189853Y-111410000D01*
X137225000Y-111374853D01*
X137225000Y-110895147D01*
X137189853Y-110860000D01*
X136485000Y-110860000D01*
X136483087Y-110859619D01*
X136444196Y-110843510D01*
X136441490Y-110840804D01*
X136436922Y-110829777D01*
X136427642Y-110807373D01*
X136427641Y-110807370D01*
X136425381Y-110801913D01*
X136425000Y-110800000D01*
X136425000Y-110200000D01*
X136425381Y-110198087D01*
X136427641Y-110192630D01*
X136427642Y-110192626D01*
X136436922Y-110170222D01*
X136436923Y-110170220D01*
X136441490Y-110159196D01*
X136444196Y-110156490D01*
X136455220Y-110151923D01*
X136455222Y-110151922D01*
X136477626Y-110142642D01*
X136477630Y-110142641D01*
X136483087Y-110140381D01*
X136485000Y-110140000D01*
X141035000Y-110140000D01*
X141036913Y-110140381D01*
G37*
G36*
X143165000Y-114550000D02*
G01*
X142265000Y-114550000D01*
X142265000Y-114050000D01*
X143165000Y-114050000D01*
X143165000Y-114550000D01*
G37*
G36*
X158972500Y-114550000D02*
G01*
X157547500Y-114550000D01*
X157547500Y-113600000D01*
X158972500Y-113600000D01*
X158972500Y-114550000D01*
G37*
G36*
X162947500Y-114550000D02*
G01*
X161522500Y-114550000D01*
X161522500Y-113670000D01*
X162947500Y-113670000D01*
X162947500Y-114550000D01*
G37*
G36*
X143165000Y-113280000D02*
G01*
X142265000Y-113280000D01*
X142265000Y-112780000D01*
X143165000Y-112780000D01*
X143165000Y-113280000D01*
G37*
G36*
X180550000Y-113170000D02*
G01*
X178450000Y-113170000D01*
X178450000Y-111070000D01*
X180550000Y-111070000D01*
X180550000Y-113170000D01*
G37*
G36*
X166195000Y-113150000D02*
G01*
X163695000Y-113150000D01*
X163695000Y-111950000D01*
X166195000Y-111950000D01*
X166195000Y-113150000D01*
G37*
G36*
X169145000Y-113150000D02*
G01*
X166645000Y-113150000D01*
X166645000Y-111950000D01*
X169145000Y-111950000D01*
X169145000Y-113150000D01*
G37*
G36*
X126792687Y-111055056D02*
G01*
X126802918Y-111055056D01*
X126842893Y-111063007D01*
X126945074Y-111079191D01*
X126977943Y-111089870D01*
X127004799Y-111095213D01*
X127042700Y-111110912D01*
X127101741Y-111130096D01*
X127157052Y-111158278D01*
X127194967Y-111173983D01*
X127217742Y-111189201D01*
X127248528Y-111204887D01*
X127332217Y-111265690D01*
X127366113Y-111288339D01*
X127373347Y-111295573D01*
X127381798Y-111301713D01*
X127498286Y-111418201D01*
X127504425Y-111426651D01*
X127511661Y-111433887D01*
X127534312Y-111467787D01*
X127595112Y-111551471D01*
X127610796Y-111582254D01*
X127626017Y-111605033D01*
X127641723Y-111642952D01*
X127669903Y-111698258D01*
X127689084Y-111757292D01*
X127704787Y-111795201D01*
X127710130Y-111822062D01*
X127720808Y-111854925D01*
X127736990Y-111957098D01*
X127744944Y-111997082D01*
X127744944Y-112007313D01*
X127746578Y-112017630D01*
X127746578Y-112182369D01*
X127744944Y-112192685D01*
X127744944Y-112202918D01*
X127736990Y-112242905D01*
X127720808Y-112345074D01*
X127710130Y-112377935D01*
X127704787Y-112404799D01*
X127689083Y-112442711D01*
X127669903Y-112501741D01*
X127641726Y-112557041D01*
X127626017Y-112594967D01*
X127610794Y-112617749D01*
X127595112Y-112648528D01*
X127534320Y-112732200D01*
X127511661Y-112766113D01*
X127504423Y-112773350D01*
X127498286Y-112781798D01*
X127381798Y-112898286D01*
X127373350Y-112904423D01*
X127366113Y-112911661D01*
X127332200Y-112934320D01*
X127248528Y-112995112D01*
X127217749Y-113010794D01*
X127194967Y-113026017D01*
X127157041Y-113041726D01*
X127101741Y-113069903D01*
X127042711Y-113089083D01*
X127004799Y-113104787D01*
X126977935Y-113110130D01*
X126945074Y-113120808D01*
X126842902Y-113136990D01*
X126802918Y-113144944D01*
X126792687Y-113144944D01*
X126782370Y-113146578D01*
X126617630Y-113146578D01*
X126607313Y-113144944D01*
X126597082Y-113144944D01*
X126557098Y-113136990D01*
X126454925Y-113120808D01*
X126422062Y-113110130D01*
X126395201Y-113104787D01*
X126357292Y-113089084D01*
X126298258Y-113069903D01*
X126242952Y-113041723D01*
X126205033Y-113026017D01*
X126182254Y-113010796D01*
X126151471Y-112995112D01*
X126067787Y-112934312D01*
X126033887Y-112911661D01*
X126026651Y-112904425D01*
X126018201Y-112898286D01*
X125901713Y-112781798D01*
X125895573Y-112773347D01*
X125888339Y-112766113D01*
X125865690Y-112732217D01*
X125804887Y-112648528D01*
X125789201Y-112617742D01*
X125773983Y-112594967D01*
X125758278Y-112557052D01*
X125730096Y-112501741D01*
X125710912Y-112442700D01*
X125695213Y-112404799D01*
X125689870Y-112377943D01*
X125679191Y-112345074D01*
X125663008Y-112242895D01*
X125655056Y-112202918D01*
X125655056Y-112192686D01*
X125653422Y-112182369D01*
X125653422Y-112017630D01*
X125655056Y-112007312D01*
X125655056Y-111997082D01*
X125663007Y-111957108D01*
X125679191Y-111854925D01*
X125689871Y-111822054D01*
X125695213Y-111795201D01*
X125710910Y-111757303D01*
X125730096Y-111698258D01*
X125758280Y-111642942D01*
X125773983Y-111605033D01*
X125789199Y-111582260D01*
X125804887Y-111551471D01*
X125865699Y-111467770D01*
X125888339Y-111433887D01*
X125895570Y-111426655D01*
X125901713Y-111418201D01*
X126018201Y-111301713D01*
X126026655Y-111295570D01*
X126033887Y-111288339D01*
X126067770Y-111265699D01*
X126151471Y-111204887D01*
X126182260Y-111189199D01*
X126205033Y-111173983D01*
X126242942Y-111158280D01*
X126298258Y-111130096D01*
X126357303Y-111110910D01*
X126395201Y-111095213D01*
X126422054Y-111089871D01*
X126454925Y-111079191D01*
X126557108Y-111063007D01*
X126597082Y-111055056D01*
X126607313Y-111055056D01*
X126617630Y-111053422D01*
X126782370Y-111053422D01*
X126792687Y-111055056D01*
G37*
G36*
X176850000Y-113010000D02*
G01*
X175150000Y-113010000D01*
X175150000Y-111310000D01*
X176850000Y-111310000D01*
X176850000Y-113010000D01*
G37*
G36*
X133073543Y-111182402D02*
G01*
X133185520Y-111247052D01*
X133276948Y-111338480D01*
X133341598Y-111450457D01*
X133375063Y-111575350D01*
X133375063Y-111704650D01*
X133341598Y-111829543D01*
X133276948Y-111941520D01*
X133185520Y-112032948D01*
X133073543Y-112097598D01*
X132948650Y-112131063D01*
X132819350Y-112131063D01*
X132694457Y-112097598D01*
X132582480Y-112032948D01*
X132491052Y-111941520D01*
X132426402Y-111829543D01*
X132392937Y-111704650D01*
X132392937Y-111575350D01*
X132426402Y-111450457D01*
X132491052Y-111338480D01*
X132582480Y-111247052D01*
X132694457Y-111182402D01*
X132819350Y-111148937D01*
X132948650Y-111148937D01*
X133073543Y-111182402D01*
G37*
G36*
X135105543Y-111182402D02*
G01*
X135217520Y-111247052D01*
X135308948Y-111338480D01*
X135373598Y-111450457D01*
X135407063Y-111575350D01*
X135407063Y-111704650D01*
X135373598Y-111829543D01*
X135308948Y-111941520D01*
X135217520Y-112032948D01*
X135105543Y-112097598D01*
X134980650Y-112131063D01*
X134851350Y-112131063D01*
X134726457Y-112097598D01*
X134614480Y-112032948D01*
X134523052Y-111941520D01*
X134458402Y-111829543D01*
X134424937Y-111704650D01*
X134424937Y-111575350D01*
X134458402Y-111450457D01*
X134523052Y-111338480D01*
X134614480Y-111247052D01*
X134726457Y-111182402D01*
X134851350Y-111148937D01*
X134980650Y-111148937D01*
X135105543Y-111182402D01*
G37*
G36*
X143165000Y-112010000D02*
G01*
X142265000Y-112010000D01*
X142265000Y-111510000D01*
X143165000Y-111510000D01*
X143165000Y-112010000D01*
G37*
G36*
X166205000Y-111700000D02*
G01*
X163705000Y-111700000D01*
X163705000Y-110500000D01*
X166205000Y-110500000D01*
X166205000Y-111700000D01*
G37*
G36*
X169155000Y-111700000D02*
G01*
X166655000Y-111700000D01*
X166655000Y-110500000D01*
X169155000Y-110500000D01*
X169155000Y-111700000D01*
G37*
G36*
X158997500Y-111230000D02*
G01*
X157547500Y-111230000D01*
X157547500Y-110300000D01*
X158997500Y-110300000D01*
X158997500Y-111230000D01*
G37*
G36*
X143165000Y-110740000D02*
G01*
X142265000Y-110740000D01*
X142265000Y-110240000D01*
X143165000Y-110240000D01*
X143165000Y-110740000D01*
G37*
G36*
X176246742Y-108806601D02*
G01*
X176400687Y-108870367D01*
X176539234Y-108962941D01*
X176657059Y-109080766D01*
X176749633Y-109219313D01*
X176813399Y-109373258D01*
X176845907Y-109536685D01*
X176845907Y-109703315D01*
X176813399Y-109866742D01*
X176749633Y-110020687D01*
X176657059Y-110159234D01*
X176539234Y-110277059D01*
X176400687Y-110369633D01*
X176246742Y-110433399D01*
X176083315Y-110465907D01*
X175916685Y-110465907D01*
X175753258Y-110433399D01*
X175599313Y-110369633D01*
X175460766Y-110277059D01*
X175342941Y-110159234D01*
X175250367Y-110020687D01*
X175186601Y-109866742D01*
X175154093Y-109703315D01*
X175154093Y-109536685D01*
X175186601Y-109373258D01*
X175250367Y-109219313D01*
X175342941Y-109080766D01*
X175460766Y-108962941D01*
X175599313Y-108870367D01*
X175753258Y-108806601D01*
X175916685Y-108774093D01*
X176083315Y-108774093D01*
X176246742Y-108806601D01*
G37*
G36*
X145560285Y-107518060D02*
G01*
X145741397Y-107593079D01*
X145904393Y-107701990D01*
X146043010Y-107840607D01*
X146151921Y-108003603D01*
X146226940Y-108184715D01*
X146265185Y-108376983D01*
X146265185Y-108573017D01*
X146226940Y-108765285D01*
X146151921Y-108946397D01*
X146043010Y-109109393D01*
X145904393Y-109248010D01*
X145741397Y-109356921D01*
X145560285Y-109431940D01*
X145368017Y-109470185D01*
X145171983Y-109470185D01*
X144979715Y-109431940D01*
X144798603Y-109356921D01*
X144635607Y-109248010D01*
X144496990Y-109109393D01*
X144388079Y-108946397D01*
X144313060Y-108765285D01*
X144274815Y-108573017D01*
X144274815Y-108376983D01*
X144313060Y-108184715D01*
X144388079Y-108003603D01*
X144496990Y-107840607D01*
X144635607Y-107701990D01*
X144798603Y-107593079D01*
X144979715Y-107518060D01*
X145171983Y-107479815D01*
X145368017Y-107479815D01*
X145560285Y-107518060D01*
G37*
G36*
X150640285Y-107518060D02*
G01*
X150821397Y-107593079D01*
X150984393Y-107701990D01*
X151123010Y-107840607D01*
X151231921Y-108003603D01*
X151306940Y-108184715D01*
X151345185Y-108376983D01*
X151345185Y-108573017D01*
X151306940Y-108765285D01*
X151231921Y-108946397D01*
X151123010Y-109109393D01*
X150984393Y-109248010D01*
X150821397Y-109356921D01*
X150640285Y-109431940D01*
X150448017Y-109470185D01*
X150251983Y-109470185D01*
X150059715Y-109431940D01*
X149878603Y-109356921D01*
X149715607Y-109248010D01*
X149576990Y-109109393D01*
X149468079Y-108946397D01*
X149393060Y-108765285D01*
X149354815Y-108573017D01*
X149354815Y-108376983D01*
X149393060Y-108184715D01*
X149468079Y-108003603D01*
X149576990Y-107840607D01*
X149715607Y-107701990D01*
X149878603Y-107593079D01*
X150059715Y-107518060D01*
X150251983Y-107479815D01*
X150448017Y-107479815D01*
X150640285Y-107518060D01*
G37*
G36*
X155720285Y-107518060D02*
G01*
X155901397Y-107593079D01*
X156064393Y-107701990D01*
X156203010Y-107840607D01*
X156311921Y-108003603D01*
X156386940Y-108184715D01*
X156425185Y-108376983D01*
X156425185Y-108573017D01*
X156386940Y-108765285D01*
X156311921Y-108946397D01*
X156203010Y-109109393D01*
X156064393Y-109248010D01*
X155901397Y-109356921D01*
X155720285Y-109431940D01*
X155528017Y-109470185D01*
X155331983Y-109470185D01*
X155139715Y-109431940D01*
X154958603Y-109356921D01*
X154795607Y-109248010D01*
X154656990Y-109109393D01*
X154548079Y-108946397D01*
X154473060Y-108765285D01*
X154434815Y-108573017D01*
X154434815Y-108376983D01*
X154473060Y-108184715D01*
X154548079Y-108003603D01*
X154656990Y-107840607D01*
X154795607Y-107701990D01*
X154958603Y-107593079D01*
X155139715Y-107518060D01*
X155331983Y-107479815D01*
X155528017Y-107479815D01*
X155720285Y-107518060D01*
G37*
G36*
X141548268Y-109007612D02*
G01*
X141580711Y-109029289D01*
X141602388Y-109061732D01*
X141610000Y-109100000D01*
X141610000Y-109300000D01*
X141602388Y-109338268D01*
X141580711Y-109370711D01*
X141548268Y-109392388D01*
X141510000Y-109400000D01*
X141250000Y-109400000D01*
X141211732Y-109392388D01*
X141179289Y-109370711D01*
X141157612Y-109338268D01*
X141150000Y-109300000D01*
X141150000Y-109100000D01*
X141157612Y-109061732D01*
X141179289Y-109029289D01*
X141211732Y-109007612D01*
X141250000Y-109000000D01*
X141510000Y-109000000D01*
X141548268Y-109007612D01*
G37*
G36*
X142188268Y-109007612D02*
G01*
X142220711Y-109029289D01*
X142242388Y-109061732D01*
X142250000Y-109100000D01*
X142250000Y-109300000D01*
X142242388Y-109338268D01*
X142220711Y-109370711D01*
X142188268Y-109392388D01*
X142150000Y-109400000D01*
X141890000Y-109400000D01*
X141851732Y-109392388D01*
X141819289Y-109370711D01*
X141797612Y-109338268D01*
X141790000Y-109300000D01*
X141790000Y-109100000D01*
X141797612Y-109061732D01*
X141819289Y-109029289D01*
X141851732Y-109007612D01*
X141890000Y-109000000D01*
X142150000Y-109000000D01*
X142188268Y-109007612D01*
G37*
G36*
X138390000Y-109305000D02*
G01*
X137140000Y-109305000D01*
X137140000Y-108705000D01*
X138390000Y-108705000D01*
X138390000Y-109305000D01*
G37*
G36*
X143238268Y-108847612D02*
G01*
X143270711Y-108869289D01*
X143292388Y-108901732D01*
X143300000Y-108940000D01*
X143300000Y-109200000D01*
X143292388Y-109238268D01*
X143270711Y-109270711D01*
X143238268Y-109292388D01*
X143200000Y-109300000D01*
X143000000Y-109300000D01*
X142961732Y-109292388D01*
X142929289Y-109270711D01*
X142907612Y-109238268D01*
X142900000Y-109200000D01*
X142900000Y-108940000D01*
X142907612Y-108901732D01*
X142929289Y-108869289D01*
X142961732Y-108847612D01*
X143000000Y-108840000D01*
X143200000Y-108840000D01*
X143238268Y-108847612D01*
G37*
G36*
X158550000Y-109225000D02*
G01*
X157250000Y-109225000D01*
X157250000Y-107825000D01*
X158550000Y-107825000D01*
X158550000Y-109225000D01*
G37*
G36*
X162950000Y-109225000D02*
G01*
X161650000Y-109225000D01*
X161650000Y-107825000D01*
X162950000Y-107825000D01*
X162950000Y-109225000D01*
G37*
G36*
X166200000Y-108800000D02*
G01*
X163700000Y-108800000D01*
X163700000Y-107600000D01*
X166200000Y-107600000D01*
X166200000Y-108800000D01*
G37*
G36*
X169150000Y-108800000D02*
G01*
X166650000Y-108800000D01*
X166650000Y-107600000D01*
X169150000Y-107600000D01*
X169150000Y-108800000D01*
G37*
G36*
X141548268Y-108307612D02*
G01*
X141580711Y-108329289D01*
X141602388Y-108361732D01*
X141610000Y-108400000D01*
X141610000Y-108600000D01*
X141602388Y-108638268D01*
X141580711Y-108670711D01*
X141548268Y-108692388D01*
X141510000Y-108700000D01*
X141250000Y-108700000D01*
X141211732Y-108692388D01*
X141179289Y-108670711D01*
X141157612Y-108638268D01*
X141150000Y-108600000D01*
X141150000Y-108400000D01*
X141157612Y-108361732D01*
X141179289Y-108329289D01*
X141211732Y-108307612D01*
X141250000Y-108300000D01*
X141510000Y-108300000D01*
X141548268Y-108307612D01*
G37*
G36*
X142188268Y-108307612D02*
G01*
X142220711Y-108329289D01*
X142242388Y-108361732D01*
X142250000Y-108400000D01*
X142250000Y-108600000D01*
X142242388Y-108638268D01*
X142220711Y-108670711D01*
X142188268Y-108692388D01*
X142150000Y-108700000D01*
X141890000Y-108700000D01*
X141851732Y-108692388D01*
X141819289Y-108670711D01*
X141797612Y-108638268D01*
X141790000Y-108600000D01*
X141790000Y-108400000D01*
X141797612Y-108361732D01*
X141819289Y-108329289D01*
X141851732Y-108307612D01*
X141890000Y-108300000D01*
X142150000Y-108300000D01*
X142188268Y-108307612D01*
G37*
G36*
X143238268Y-108207612D02*
G01*
X143270711Y-108229289D01*
X143292388Y-108261732D01*
X143300000Y-108300000D01*
X143300000Y-108560000D01*
X143292388Y-108598268D01*
X143270711Y-108630711D01*
X143238268Y-108652388D01*
X143200000Y-108660000D01*
X143000000Y-108660000D01*
X142961732Y-108652388D01*
X142929289Y-108630711D01*
X142907612Y-108598268D01*
X142900000Y-108560000D01*
X142900000Y-108300000D01*
X142907612Y-108261732D01*
X142929289Y-108229289D01*
X142961732Y-108207612D01*
X143000000Y-108200000D01*
X143200000Y-108200000D01*
X143238268Y-108207612D01*
G37*
G36*
X140490000Y-108350000D02*
G01*
X139240000Y-108350000D01*
X139240000Y-107750000D01*
X140490000Y-107750000D01*
X140490000Y-108350000D01*
G37*
G36*
X179592687Y-106075056D02*
G01*
X179602918Y-106075056D01*
X179642893Y-106083007D01*
X179745074Y-106099191D01*
X179777943Y-106109870D01*
X179804799Y-106115213D01*
X179842700Y-106130912D01*
X179901741Y-106150096D01*
X179957052Y-106178278D01*
X179994967Y-106193983D01*
X180017742Y-106209201D01*
X180048528Y-106224887D01*
X180132217Y-106285690D01*
X180166113Y-106308339D01*
X180173347Y-106315573D01*
X180181798Y-106321713D01*
X180298286Y-106438201D01*
X180304425Y-106446651D01*
X180311661Y-106453887D01*
X180334312Y-106487787D01*
X180395112Y-106571471D01*
X180410796Y-106602254D01*
X180426017Y-106625033D01*
X180441723Y-106662952D01*
X180469903Y-106718258D01*
X180489084Y-106777292D01*
X180504787Y-106815201D01*
X180510130Y-106842062D01*
X180520808Y-106874925D01*
X180536990Y-106977098D01*
X180544944Y-107017082D01*
X180544944Y-107027313D01*
X180546578Y-107037630D01*
X180546578Y-107202369D01*
X180544944Y-107212685D01*
X180544944Y-107222918D01*
X180536990Y-107262905D01*
X180520808Y-107365074D01*
X180510130Y-107397935D01*
X180504787Y-107424799D01*
X180489083Y-107462711D01*
X180469903Y-107521741D01*
X180441726Y-107577041D01*
X180426017Y-107614967D01*
X180410794Y-107637749D01*
X180395112Y-107668528D01*
X180334320Y-107752200D01*
X180311661Y-107786113D01*
X180304423Y-107793350D01*
X180298286Y-107801798D01*
X180181798Y-107918286D01*
X180173350Y-107924423D01*
X180166113Y-107931661D01*
X180132200Y-107954320D01*
X180048528Y-108015112D01*
X180017749Y-108030794D01*
X179994967Y-108046017D01*
X179957041Y-108061726D01*
X179901741Y-108089903D01*
X179842711Y-108109083D01*
X179804799Y-108124787D01*
X179777935Y-108130130D01*
X179745074Y-108140808D01*
X179642902Y-108156990D01*
X179602918Y-108164944D01*
X179592687Y-108164944D01*
X179582370Y-108166578D01*
X179417630Y-108166578D01*
X179407313Y-108164944D01*
X179397082Y-108164944D01*
X179357098Y-108156990D01*
X179254925Y-108140808D01*
X179222062Y-108130130D01*
X179195201Y-108124787D01*
X179157292Y-108109084D01*
X179098258Y-108089903D01*
X179042952Y-108061723D01*
X179005033Y-108046017D01*
X178982254Y-108030796D01*
X178951471Y-108015112D01*
X178867787Y-107954312D01*
X178833887Y-107931661D01*
X178826651Y-107924425D01*
X178818201Y-107918286D01*
X178701713Y-107801798D01*
X178695573Y-107793347D01*
X178688339Y-107786113D01*
X178665690Y-107752217D01*
X178604887Y-107668528D01*
X178589201Y-107637742D01*
X178573983Y-107614967D01*
X178558278Y-107577052D01*
X178530096Y-107521741D01*
X178510912Y-107462700D01*
X178495213Y-107424799D01*
X178489870Y-107397943D01*
X178479191Y-107365074D01*
X178463008Y-107262895D01*
X178455056Y-107222918D01*
X178455056Y-107212686D01*
X178453422Y-107202369D01*
X178453422Y-107037630D01*
X178455056Y-107027312D01*
X178455056Y-107017082D01*
X178463007Y-106977108D01*
X178479191Y-106874925D01*
X178489871Y-106842054D01*
X178495213Y-106815201D01*
X178510910Y-106777303D01*
X178530096Y-106718258D01*
X178558280Y-106662942D01*
X178573983Y-106625033D01*
X178589199Y-106602260D01*
X178604887Y-106571471D01*
X178665699Y-106487770D01*
X178688339Y-106453887D01*
X178695570Y-106446655D01*
X178701713Y-106438201D01*
X178818201Y-106321713D01*
X178826655Y-106315570D01*
X178833887Y-106308339D01*
X178867770Y-106285699D01*
X178951471Y-106224887D01*
X178982260Y-106209199D01*
X179005033Y-106193983D01*
X179042942Y-106178280D01*
X179098258Y-106150096D01*
X179157303Y-106130910D01*
X179195201Y-106115213D01*
X179222054Y-106109871D01*
X179254925Y-106099191D01*
X179357108Y-106083007D01*
X179397082Y-106075056D01*
X179407313Y-106075056D01*
X179417630Y-106073422D01*
X179582370Y-106073422D01*
X179592687Y-106075056D01*
G37*
G36*
X127750000Y-108150000D02*
G01*
X125650000Y-108150000D01*
X125650000Y-106050000D01*
X127750000Y-106050000D01*
X127750000Y-108150000D01*
G37*
G36*
X176246742Y-106266601D02*
G01*
X176400687Y-106330367D01*
X176539234Y-106422941D01*
X176657059Y-106540766D01*
X176749633Y-106679313D01*
X176813399Y-106833258D01*
X176845907Y-106996685D01*
X176845907Y-107163315D01*
X176813399Y-107326742D01*
X176749633Y-107480687D01*
X176657059Y-107619234D01*
X176539234Y-107737059D01*
X176400687Y-107829633D01*
X176246742Y-107893399D01*
X176083315Y-107925907D01*
X175916685Y-107925907D01*
X175753258Y-107893399D01*
X175599313Y-107829633D01*
X175460766Y-107737059D01*
X175342941Y-107619234D01*
X175250367Y-107480687D01*
X175186601Y-107326742D01*
X175154093Y-107163315D01*
X175154093Y-106996685D01*
X175186601Y-106833258D01*
X175250367Y-106679313D01*
X175342941Y-106540766D01*
X175460766Y-106422941D01*
X175599313Y-106330367D01*
X175753258Y-106266601D01*
X175916685Y-106234093D01*
X176083315Y-106234093D01*
X176246742Y-106266601D01*
G37*
G36*
X152174850Y-106705964D02*
G01*
X152219317Y-106711123D01*
X152234510Y-106717831D01*
X152256104Y-106722127D01*
X152279222Y-106737574D01*
X152296567Y-106745233D01*
X152308412Y-106757078D01*
X152329099Y-106770901D01*
X152342921Y-106791587D01*
X152354766Y-106803432D01*
X152362423Y-106820774D01*
X152377873Y-106843896D01*
X152382168Y-106865491D01*
X152388876Y-106880682D01*
X152394033Y-106925139D01*
X152395000Y-106930000D01*
X152395000Y-107380000D01*
X152394032Y-107384862D01*
X152388876Y-107429317D01*
X152382168Y-107444506D01*
X152377873Y-107466104D01*
X152362422Y-107489227D01*
X152354766Y-107506567D01*
X152342923Y-107518409D01*
X152329099Y-107539099D01*
X152308409Y-107552923D01*
X152296567Y-107564766D01*
X152279227Y-107572422D01*
X152256104Y-107587873D01*
X152234506Y-107592168D01*
X152219317Y-107598876D01*
X152174861Y-107604032D01*
X152170000Y-107605000D01*
X151670000Y-107605000D01*
X151665138Y-107604033D01*
X151620682Y-107598876D01*
X151605491Y-107592168D01*
X151583896Y-107587873D01*
X151560774Y-107572423D01*
X151543432Y-107564766D01*
X151531587Y-107552921D01*
X151510901Y-107539099D01*
X151497078Y-107518412D01*
X151485233Y-107506567D01*
X151477574Y-107489222D01*
X151462127Y-107466104D01*
X151457831Y-107444510D01*
X151451123Y-107429317D01*
X151445964Y-107384849D01*
X151445000Y-107380000D01*
X151445000Y-106930000D01*
X151445964Y-106925150D01*
X151451123Y-106880682D01*
X151457832Y-106865487D01*
X151462127Y-106843896D01*
X151477573Y-106820779D01*
X151485233Y-106803432D01*
X151497080Y-106791584D01*
X151510901Y-106770901D01*
X151531584Y-106757080D01*
X151543432Y-106745233D01*
X151560779Y-106737573D01*
X151583896Y-106722127D01*
X151605487Y-106717832D01*
X151620682Y-106711123D01*
X151665151Y-106705964D01*
X151670000Y-106705000D01*
X152170000Y-106705000D01*
X152174850Y-106705964D01*
G37*
G36*
X147046035Y-106983964D02*
G01*
X147047499Y-106987500D01*
X147047499Y-107487500D01*
X147046035Y-107491036D01*
X147042499Y-107492500D01*
X147030564Y-107492500D01*
X146754434Y-107492500D01*
X146742499Y-107492500D01*
X146738963Y-107491036D01*
X146737499Y-107487500D01*
X146737499Y-107137500D01*
X146738963Y-107133964D01*
X146888963Y-106983964D01*
X146892499Y-106982500D01*
X147042499Y-106982500D01*
X147046035Y-106983964D01*
G37*
G36*
X148896035Y-106983964D02*
G01*
X149046035Y-107133964D01*
X149047499Y-107137500D01*
X149047499Y-107487500D01*
X149046035Y-107491036D01*
X149042499Y-107492500D01*
X149030564Y-107492500D01*
X148754434Y-107492500D01*
X148742499Y-107492500D01*
X148738963Y-107491036D01*
X148737499Y-107487500D01*
X148737499Y-106987500D01*
X148738963Y-106983964D01*
X148742499Y-106982500D01*
X148892499Y-106982500D01*
X148896035Y-106983964D01*
G37*
G36*
X147542499Y-107487500D02*
G01*
X147242499Y-107487500D01*
X147242499Y-106787500D01*
X147542499Y-106787500D01*
X147542499Y-107487500D01*
G37*
G36*
X148042498Y-107487500D02*
G01*
X147742498Y-107487500D01*
X147742498Y-106787500D01*
X148042498Y-106787500D01*
X148042498Y-107487500D01*
G37*
G36*
X148542499Y-107487500D02*
G01*
X148242499Y-107487500D01*
X148242499Y-106787500D01*
X148542499Y-106787500D01*
X148542499Y-107487500D01*
G37*
G36*
X138390000Y-107395000D02*
G01*
X137140000Y-107395000D01*
X137140000Y-106795000D01*
X138390000Y-106795000D01*
X138390000Y-107395000D01*
G37*
G36*
X166200000Y-107350000D02*
G01*
X163700000Y-107350000D01*
X163700000Y-106150000D01*
X166200000Y-106150000D01*
X166200000Y-107350000D01*
G37*
G36*
X169150000Y-107350000D02*
G01*
X166650000Y-107350000D01*
X166650000Y-106150000D01*
X169150000Y-106150000D01*
X169150000Y-107350000D01*
G37*
G36*
X143793268Y-106897612D02*
G01*
X143825711Y-106919289D01*
X143847388Y-106951732D01*
X143855000Y-106990000D01*
X143855000Y-107190000D01*
X143847388Y-107228268D01*
X143825711Y-107260711D01*
X143793268Y-107282388D01*
X143755000Y-107290000D01*
X143495000Y-107290000D01*
X143456732Y-107282388D01*
X143424289Y-107260711D01*
X143402612Y-107228268D01*
X143395000Y-107190000D01*
X143395000Y-106990000D01*
X143402612Y-106951732D01*
X143424289Y-106919289D01*
X143456732Y-106897612D01*
X143495000Y-106890000D01*
X143755000Y-106890000D01*
X143793268Y-106897612D01*
G37*
G36*
X144433268Y-106897612D02*
G01*
X144465711Y-106919289D01*
X144487388Y-106951732D01*
X144495000Y-106990000D01*
X144495000Y-107190000D01*
X144487388Y-107228268D01*
X144465711Y-107260711D01*
X144433268Y-107282388D01*
X144395000Y-107290000D01*
X144135000Y-107290000D01*
X144096732Y-107282388D01*
X144064289Y-107260711D01*
X144042612Y-107228268D01*
X144035000Y-107190000D01*
X144035000Y-106990000D01*
X144042612Y-106951732D01*
X144064289Y-106919289D01*
X144096732Y-106897612D01*
X144135000Y-106890000D01*
X144395000Y-106890000D01*
X144433268Y-106897612D01*
G37*
G36*
X142240000Y-107155000D02*
G01*
X140990000Y-107155000D01*
X140990000Y-106555000D01*
X142240000Y-106555000D01*
X142240000Y-107155000D01*
G37*
G36*
X134089543Y-106102402D02*
G01*
X134201520Y-106167052D01*
X134292948Y-106258480D01*
X134357598Y-106370457D01*
X134391063Y-106495350D01*
X134391063Y-106624650D01*
X134357598Y-106749543D01*
X134292948Y-106861520D01*
X134201520Y-106952948D01*
X134089543Y-107017598D01*
X133964650Y-107051063D01*
X133835350Y-107051063D01*
X133710457Y-107017598D01*
X133598480Y-106952948D01*
X133507052Y-106861520D01*
X133442402Y-106749543D01*
X133408937Y-106624650D01*
X133408937Y-106495350D01*
X133442402Y-106370457D01*
X133507052Y-106258480D01*
X133598480Y-106167052D01*
X133710457Y-106102402D01*
X133835350Y-106068937D01*
X133964650Y-106068937D01*
X134089543Y-106102402D01*
G37*
G36*
X146746035Y-106683964D02*
G01*
X146747499Y-106687500D01*
X146747499Y-106837500D01*
X146746035Y-106841036D01*
X146596035Y-106991036D01*
X146592499Y-106992500D01*
X146580564Y-106992500D01*
X146254434Y-106992500D01*
X146242499Y-106992500D01*
X146238963Y-106991036D01*
X146237499Y-106987500D01*
X146237499Y-106687500D01*
X146238963Y-106683964D01*
X146242499Y-106682500D01*
X146742499Y-106682500D01*
X146746035Y-106683964D01*
G37*
G36*
X149546035Y-106683964D02*
G01*
X149547499Y-106687500D01*
X149547499Y-106987500D01*
X149546035Y-106991036D01*
X149542499Y-106992500D01*
X149530564Y-106992500D01*
X149204434Y-106992500D01*
X149192499Y-106992500D01*
X149188963Y-106991036D01*
X149038963Y-106841036D01*
X149037499Y-106837500D01*
X149037499Y-106687500D01*
X149038963Y-106683964D01*
X149042499Y-106682500D01*
X149542499Y-106682500D01*
X149546035Y-106683964D01*
G37*
G36*
X156525000Y-106950000D02*
G01*
X155455000Y-106950000D01*
X155455000Y-106350000D01*
X156525000Y-106350000D01*
X156525000Y-106950000D01*
G37*
G36*
X143788268Y-106157612D02*
G01*
X143820711Y-106179289D01*
X143842388Y-106211732D01*
X143850000Y-106250000D01*
X143850000Y-106450000D01*
X143842388Y-106488268D01*
X143820711Y-106520711D01*
X143788268Y-106542388D01*
X143750000Y-106550000D01*
X143490000Y-106550000D01*
X143451732Y-106542388D01*
X143419289Y-106520711D01*
X143397612Y-106488268D01*
X143390000Y-106450000D01*
X143390000Y-106250000D01*
X143397612Y-106211732D01*
X143419289Y-106179289D01*
X143451732Y-106157612D01*
X143490000Y-106150000D01*
X143750000Y-106150000D01*
X143788268Y-106157612D01*
G37*
G36*
X144428268Y-106157612D02*
G01*
X144460711Y-106179289D01*
X144482388Y-106211732D01*
X144490000Y-106250000D01*
X144490000Y-106450000D01*
X144482388Y-106488268D01*
X144460711Y-106520711D01*
X144428268Y-106542388D01*
X144390000Y-106550000D01*
X144130000Y-106550000D01*
X144091732Y-106542388D01*
X144059289Y-106520711D01*
X144037612Y-106488268D01*
X144030000Y-106450000D01*
X144030000Y-106250000D01*
X144037612Y-106211732D01*
X144059289Y-106179289D01*
X144091732Y-106157612D01*
X144130000Y-106150000D01*
X144390000Y-106150000D01*
X144428268Y-106157612D01*
G37*
G36*
X150863576Y-106000657D02*
G01*
X150908995Y-106031005D01*
X150939343Y-106076424D01*
X150950000Y-106130000D01*
X150950000Y-106410000D01*
X150939343Y-106463576D01*
X150908995Y-106508995D01*
X150863576Y-106539343D01*
X150810000Y-106550000D01*
X150470000Y-106550000D01*
X150416424Y-106539343D01*
X150371005Y-106508995D01*
X150340657Y-106463576D01*
X150330000Y-106410000D01*
X150330000Y-106130000D01*
X150340657Y-106076424D01*
X150371005Y-106031005D01*
X150416424Y-106000657D01*
X150470000Y-105990000D01*
X150810000Y-105990000D01*
X150863576Y-106000657D01*
G37*
G36*
X146942499Y-106487500D02*
G01*
X146242499Y-106487500D01*
X146242499Y-106187500D01*
X146942499Y-106187500D01*
X146942499Y-106487500D01*
G37*
G36*
X149542499Y-106487500D02*
G01*
X148842499Y-106487500D01*
X148842499Y-106187500D01*
X149542499Y-106187500D01*
X149542499Y-106487500D01*
G37*
G36*
X140140000Y-106200000D02*
G01*
X138890000Y-106200000D01*
X138890000Y-105600000D01*
X140140000Y-105600000D01*
X140140000Y-106200000D01*
G37*
G36*
X158550000Y-106075000D02*
G01*
X157250000Y-106075000D01*
X157250000Y-104675000D01*
X158550000Y-104675000D01*
X158550000Y-106075000D01*
G37*
G36*
X162950000Y-106075000D02*
G01*
X161650000Y-106075000D01*
X161650000Y-104675000D01*
X162950000Y-104675000D01*
X162950000Y-106075000D01*
G37*
G36*
X152174850Y-105155964D02*
G01*
X152219317Y-105161123D01*
X152234510Y-105167831D01*
X152256104Y-105172127D01*
X152279222Y-105187574D01*
X152296567Y-105195233D01*
X152308412Y-105207078D01*
X152329099Y-105220901D01*
X152342921Y-105241587D01*
X152354766Y-105253432D01*
X152362423Y-105270774D01*
X152377873Y-105293896D01*
X152382168Y-105315491D01*
X152388876Y-105330682D01*
X152394033Y-105375139D01*
X152395000Y-105380000D01*
X152395000Y-105830000D01*
X152394032Y-105834862D01*
X152388876Y-105879317D01*
X152382168Y-105894506D01*
X152377873Y-105916104D01*
X152362422Y-105939227D01*
X152354766Y-105956567D01*
X152342923Y-105968409D01*
X152329099Y-105989099D01*
X152308409Y-106002923D01*
X152296567Y-106014766D01*
X152279227Y-106022422D01*
X152256104Y-106037873D01*
X152234506Y-106042168D01*
X152219317Y-106048876D01*
X152174861Y-106054032D01*
X152170000Y-106055000D01*
X151670000Y-106055000D01*
X151665138Y-106054033D01*
X151620682Y-106048876D01*
X151605491Y-106042168D01*
X151583896Y-106037873D01*
X151560774Y-106022423D01*
X151543432Y-106014766D01*
X151531587Y-106002921D01*
X151510901Y-105989099D01*
X151497078Y-105968412D01*
X151485233Y-105956567D01*
X151477574Y-105939222D01*
X151462127Y-105916104D01*
X151457831Y-105894510D01*
X151451123Y-105879317D01*
X151445964Y-105834849D01*
X151445000Y-105830000D01*
X151445000Y-105380000D01*
X151445964Y-105375150D01*
X151451123Y-105330682D01*
X151457832Y-105315487D01*
X151462127Y-105293896D01*
X151477573Y-105270779D01*
X151485233Y-105253432D01*
X151497080Y-105241584D01*
X151510901Y-105220901D01*
X151531584Y-105207080D01*
X151543432Y-105195233D01*
X151560779Y-105187573D01*
X151583896Y-105172127D01*
X151605487Y-105167832D01*
X151620682Y-105161123D01*
X151665151Y-105155964D01*
X151670000Y-105155000D01*
X152170000Y-105155000D01*
X152174850Y-105155964D01*
G37*
G36*
X154045000Y-106000000D02*
G01*
X152975000Y-106000000D01*
X152975000Y-105400000D01*
X154045000Y-105400000D01*
X154045000Y-106000000D01*
G37*
G36*
X149542499Y-105987501D02*
G01*
X148842499Y-105987501D01*
X148842499Y-105687501D01*
X149542499Y-105687501D01*
X149542499Y-105987501D01*
G37*
G36*
X146942499Y-105987499D02*
G01*
X146242499Y-105987499D01*
X146242499Y-105687499D01*
X146942499Y-105687499D01*
X146942499Y-105987499D01*
G37*
G36*
X150863576Y-105040657D02*
G01*
X150908995Y-105071005D01*
X150939343Y-105116424D01*
X150950000Y-105170000D01*
X150950000Y-105450000D01*
X150939343Y-105503576D01*
X150908995Y-105548995D01*
X150863576Y-105579343D01*
X150810000Y-105590000D01*
X150470000Y-105590000D01*
X150416424Y-105579343D01*
X150371005Y-105548995D01*
X150340657Y-105503576D01*
X150330000Y-105450000D01*
X150330000Y-105170000D01*
X150340657Y-105116424D01*
X150371005Y-105071005D01*
X150416424Y-105040657D01*
X150470000Y-105030000D01*
X150810000Y-105030000D01*
X150863576Y-105040657D01*
G37*
G36*
X143148268Y-105057612D02*
G01*
X143180711Y-105079289D01*
X143202388Y-105111732D01*
X143210000Y-105150000D01*
X143210000Y-105410000D01*
X143202388Y-105448268D01*
X143180711Y-105480711D01*
X143148268Y-105502388D01*
X143110000Y-105510000D01*
X142910000Y-105510000D01*
X142871732Y-105502388D01*
X142839289Y-105480711D01*
X142817612Y-105448268D01*
X142810000Y-105410000D01*
X142810000Y-105150000D01*
X142817612Y-105111732D01*
X142839289Y-105079289D01*
X142871732Y-105057612D01*
X142910000Y-105050000D01*
X143110000Y-105050000D01*
X143148268Y-105057612D01*
G37*
G36*
X146942499Y-105487500D02*
G01*
X146242499Y-105487500D01*
X146242499Y-105187500D01*
X146942499Y-105187500D01*
X146942499Y-105487500D01*
G37*
G36*
X149542499Y-105487500D02*
G01*
X148842499Y-105487500D01*
X148842499Y-105187500D01*
X149542499Y-105187500D01*
X149542499Y-105487500D01*
G37*
G36*
X143988268Y-104987612D02*
G01*
X144020711Y-105009289D01*
X144042388Y-105041732D01*
X144050000Y-105080000D01*
X144050000Y-105280000D01*
X144042388Y-105318268D01*
X144020711Y-105350711D01*
X143988268Y-105372388D01*
X143950000Y-105380000D01*
X143690000Y-105380000D01*
X143651732Y-105372388D01*
X143619289Y-105350711D01*
X143597612Y-105318268D01*
X143590000Y-105280000D01*
X143590000Y-105080000D01*
X143597612Y-105041732D01*
X143619289Y-105009289D01*
X143651732Y-104987612D01*
X143690000Y-104980000D01*
X143950000Y-104980000D01*
X143988268Y-104987612D01*
G37*
G36*
X144628268Y-104987612D02*
G01*
X144660711Y-105009289D01*
X144682388Y-105041732D01*
X144690000Y-105080000D01*
X144690000Y-105280000D01*
X144682388Y-105318268D01*
X144660711Y-105350711D01*
X144628268Y-105372388D01*
X144590000Y-105380000D01*
X144330000Y-105380000D01*
X144291732Y-105372388D01*
X144259289Y-105350711D01*
X144237612Y-105318268D01*
X144230000Y-105280000D01*
X144230000Y-105080000D01*
X144237612Y-105041732D01*
X144259289Y-105009289D01*
X144291732Y-104987612D01*
X144330000Y-104980000D01*
X144590000Y-104980000D01*
X144628268Y-104987612D01*
G37*
G36*
X145348268Y-104927612D02*
G01*
X145380711Y-104949289D01*
X145402388Y-104981732D01*
X145410000Y-105020000D01*
X145410000Y-105280000D01*
X145402388Y-105318268D01*
X145380711Y-105350711D01*
X145348268Y-105372388D01*
X145310000Y-105380000D01*
X145110000Y-105380000D01*
X145071732Y-105372388D01*
X145039289Y-105350711D01*
X145017612Y-105318268D01*
X145010000Y-105280000D01*
X145010000Y-105020000D01*
X145017612Y-104981732D01*
X145039289Y-104949289D01*
X145071732Y-104927612D01*
X145110000Y-104920000D01*
X145310000Y-104920000D01*
X145348268Y-104927612D01*
G37*
G36*
X142240000Y-105245000D02*
G01*
X140990000Y-105245000D01*
X140990000Y-104645000D01*
X142240000Y-104645000D01*
X142240000Y-105245000D01*
G37*
G36*
X156525000Y-105050000D02*
G01*
X155455000Y-105050000D01*
X155455000Y-104450000D01*
X156525000Y-104450000D01*
X156525000Y-105050000D01*
G37*
G36*
X146596035Y-104683964D02*
G01*
X146746035Y-104833964D01*
X146747499Y-104837500D01*
X146747499Y-104987500D01*
X146746035Y-104991036D01*
X146742499Y-104992500D01*
X146730564Y-104992500D01*
X146254434Y-104992500D01*
X146242499Y-104992500D01*
X146238963Y-104991036D01*
X146237499Y-104987500D01*
X146237499Y-104687500D01*
X146238963Y-104683964D01*
X146242499Y-104682500D01*
X146592499Y-104682500D01*
X146596035Y-104683964D01*
G37*
G36*
X149546035Y-104683964D02*
G01*
X149547499Y-104687500D01*
X149547499Y-104987500D01*
X149546035Y-104991036D01*
X149542499Y-104992500D01*
X149530564Y-104992500D01*
X149054434Y-104992500D01*
X149042499Y-104992500D01*
X149038963Y-104991036D01*
X149037499Y-104987500D01*
X149037499Y-104837500D01*
X149038963Y-104833964D01*
X149188963Y-104683964D01*
X149192499Y-104682500D01*
X149542499Y-104682500D01*
X149546035Y-104683964D01*
G37*
G36*
X147542499Y-104887500D02*
G01*
X147242499Y-104887500D01*
X147242499Y-104187500D01*
X147542499Y-104187500D01*
X147542499Y-104887500D01*
G37*
G36*
X148042500Y-104887500D02*
G01*
X147742500Y-104887500D01*
X147742500Y-104187500D01*
X148042500Y-104187500D01*
X148042500Y-104887500D01*
G37*
G36*
X148542499Y-104887500D02*
G01*
X148242499Y-104887500D01*
X148242499Y-104187500D01*
X148542499Y-104187500D01*
X148542499Y-104887500D01*
G37*
G36*
X143148268Y-104417612D02*
G01*
X143180711Y-104439289D01*
X143202388Y-104471732D01*
X143210000Y-104510000D01*
X143210000Y-104770000D01*
X143202388Y-104808268D01*
X143180711Y-104840711D01*
X143148268Y-104862388D01*
X143110000Y-104870000D01*
X142910000Y-104870000D01*
X142871732Y-104862388D01*
X142839289Y-104840711D01*
X142817612Y-104808268D01*
X142810000Y-104770000D01*
X142810000Y-104510000D01*
X142817612Y-104471732D01*
X142839289Y-104439289D01*
X142871732Y-104417612D01*
X142910000Y-104410000D01*
X143110000Y-104410000D01*
X143148268Y-104417612D01*
G37*
G36*
X145348268Y-104287612D02*
G01*
X145380711Y-104309289D01*
X145402388Y-104341732D01*
X145410000Y-104380000D01*
X145410000Y-104640000D01*
X145402388Y-104678268D01*
X145380711Y-104710711D01*
X145348268Y-104732388D01*
X145310000Y-104740000D01*
X145110000Y-104740000D01*
X145071732Y-104732388D01*
X145039289Y-104710711D01*
X145017612Y-104678268D01*
X145010000Y-104640000D01*
X145010000Y-104380000D01*
X145017612Y-104341732D01*
X145039289Y-104309289D01*
X145071732Y-104287612D01*
X145110000Y-104280000D01*
X145310000Y-104280000D01*
X145348268Y-104287612D01*
G37*
G36*
X147046035Y-104183964D02*
G01*
X147047499Y-104187500D01*
X147047499Y-104687500D01*
X147046035Y-104691036D01*
X147042499Y-104692500D01*
X147030564Y-104692500D01*
X146904434Y-104692500D01*
X146892499Y-104692500D01*
X146888963Y-104691036D01*
X146738963Y-104541036D01*
X146737499Y-104537500D01*
X146737499Y-104187500D01*
X146738963Y-104183964D01*
X146742499Y-104182500D01*
X147042499Y-104182500D01*
X147046035Y-104183964D01*
G37*
G36*
X149046035Y-104183964D02*
G01*
X149047499Y-104187500D01*
X149047499Y-104537500D01*
X149046035Y-104541036D01*
X148896035Y-104691036D01*
X148892499Y-104692500D01*
X148880564Y-104692500D01*
X148754434Y-104692500D01*
X148742499Y-104692500D01*
X148738963Y-104691036D01*
X148737499Y-104687500D01*
X148737499Y-104187500D01*
X148738963Y-104183964D01*
X148742499Y-104182500D01*
X149042499Y-104182500D01*
X149046035Y-104183964D01*
G37*
G36*
X150723268Y-104287612D02*
G01*
X150755711Y-104309289D01*
X150777388Y-104341732D01*
X150785000Y-104380000D01*
X150785000Y-104580000D01*
X150777388Y-104618268D01*
X150755711Y-104650711D01*
X150723268Y-104672388D01*
X150685000Y-104680000D01*
X150425000Y-104680000D01*
X150386732Y-104672388D01*
X150354289Y-104650711D01*
X150332612Y-104618268D01*
X150325000Y-104580000D01*
X150325000Y-104380000D01*
X150332612Y-104341732D01*
X150354289Y-104309289D01*
X150386732Y-104287612D01*
X150425000Y-104280000D01*
X150685000Y-104280000D01*
X150723268Y-104287612D01*
G37*
G36*
X151363268Y-104287612D02*
G01*
X151395711Y-104309289D01*
X151417388Y-104341732D01*
X151425000Y-104380000D01*
X151425000Y-104580000D01*
X151417388Y-104618268D01*
X151395711Y-104650711D01*
X151363268Y-104672388D01*
X151325000Y-104680000D01*
X151065000Y-104680000D01*
X151026732Y-104672388D01*
X150994289Y-104650711D01*
X150972612Y-104618268D01*
X150965000Y-104580000D01*
X150965000Y-104380000D01*
X150972612Y-104341732D01*
X150994289Y-104309289D01*
X151026732Y-104287612D01*
X151065000Y-104280000D01*
X151325000Y-104280000D01*
X151363268Y-104287612D01*
G37*
G36*
X152173268Y-104287612D02*
G01*
X152205711Y-104309289D01*
X152227388Y-104341732D01*
X152235000Y-104380000D01*
X152235000Y-104580000D01*
X152227388Y-104618268D01*
X152205711Y-104650711D01*
X152173268Y-104672388D01*
X152135000Y-104680000D01*
X151875000Y-104680000D01*
X151836732Y-104672388D01*
X151804289Y-104650711D01*
X151782612Y-104618268D01*
X151775000Y-104580000D01*
X151775000Y-104380000D01*
X151782612Y-104341732D01*
X151804289Y-104309289D01*
X151836732Y-104287612D01*
X151875000Y-104280000D01*
X152135000Y-104280000D01*
X152173268Y-104287612D01*
G37*
G36*
X152813268Y-104287612D02*
G01*
X152845711Y-104309289D01*
X152867388Y-104341732D01*
X152875000Y-104380000D01*
X152875000Y-104580000D01*
X152867388Y-104618268D01*
X152845711Y-104650711D01*
X152813268Y-104672388D01*
X152775000Y-104680000D01*
X152515000Y-104680000D01*
X152476732Y-104672388D01*
X152444289Y-104650711D01*
X152422612Y-104618268D01*
X152415000Y-104580000D01*
X152415000Y-104380000D01*
X152422612Y-104341732D01*
X152444289Y-104309289D01*
X152476732Y-104287612D01*
X152515000Y-104280000D01*
X152775000Y-104280000D01*
X152813268Y-104287612D01*
G37*
G36*
X143978268Y-104247612D02*
G01*
X144010711Y-104269289D01*
X144032388Y-104301732D01*
X144040000Y-104340000D01*
X144040000Y-104540000D01*
X144032388Y-104578268D01*
X144010711Y-104610711D01*
X143978268Y-104632388D01*
X143940000Y-104640000D01*
X143680000Y-104640000D01*
X143641732Y-104632388D01*
X143609289Y-104610711D01*
X143587612Y-104578268D01*
X143580000Y-104540000D01*
X143580000Y-104340000D01*
X143587612Y-104301732D01*
X143609289Y-104269289D01*
X143641732Y-104247612D01*
X143680000Y-104240000D01*
X143940000Y-104240000D01*
X143978268Y-104247612D01*
G37*
G36*
X144618268Y-104247612D02*
G01*
X144650711Y-104269289D01*
X144672388Y-104301732D01*
X144680000Y-104340000D01*
X144680000Y-104540000D01*
X144672388Y-104578268D01*
X144650711Y-104610711D01*
X144618268Y-104632388D01*
X144580000Y-104640000D01*
X144320000Y-104640000D01*
X144281732Y-104632388D01*
X144249289Y-104610711D01*
X144227612Y-104578268D01*
X144220000Y-104540000D01*
X144220000Y-104340000D01*
X144227612Y-104301732D01*
X144249289Y-104269289D01*
X144281732Y-104247612D01*
X144320000Y-104240000D01*
X144580000Y-104240000D01*
X144618268Y-104247612D01*
G37*
G36*
X166195000Y-104450000D02*
G01*
X163695000Y-104450000D01*
X163695000Y-103250000D01*
X166195000Y-103250000D01*
X166195000Y-104450000D01*
G37*
G36*
X169145000Y-104450000D02*
G01*
X166645000Y-104450000D01*
X166645000Y-103250000D01*
X169145000Y-103250000D01*
X169145000Y-104450000D01*
G37*
M02*
