%TF.GenerationSoftware,KiCad,Pcbnew,9.0.2*%
%TF.CreationDate,2025-06-27T10:01:34+02:00*%
%TF.ProjectId,drone_controller,64726f6e-655f-4636-9f6e-74726f6c6c65,rev?*%
%TF.SameCoordinates,Original*%
%TF.FileFunction,Copper,L1,Top*%
%TF.FilePolarity,Positive*%
%FSLAX46Y46*%
G04 Gerber Fmt 4.6, Leading zero omitted, Abs format (unit mm)*
G04 Created by KiCad (PCBNEW 9.0.2) date 2025-06-27 10:01:34*
%MOMM*%
%LPD*%
G01*
G04 APERTURE LIST*
G04 Aperture macros list*
%AMRoundRect*
0 Rectangle with rounded corners*
0 $1 Rounding radius*
0 $2 $3 $4 $5 $6 $7 $8 $9 X,Y pos of 4 corners*
0 Add a 4 corners polygon primitive as box body*
4,1,4,$2,$3,$4,$5,$6,$7,$8,$9,$2,$3,0*
0 Add four circle primitives for the rounded corners*
1,1,$1+$1,$2,$3*
1,1,$1+$1,$4,$5*
1,1,$1+$1,$6,$7*
1,1,$1+$1,$8,$9*
0 Add four rect primitives between the rounded corners*
20,1,$1+$1,$2,$3,$4,$5,0*
20,1,$1+$1,$4,$5,$6,$7,0*
20,1,$1+$1,$6,$7,$8,$9,0*
20,1,$1+$1,$8,$9,$2,$3,0*%
%AMFreePoly0*
4,1,37,-1.574645,2.715355,-1.560000,2.680000,-1.560000,1.930000,-0.990000,1.930000,-0.990000,2.680000,-0.975355,2.715355,-0.940000,2.730000,-0.340000,2.730000,-0.304645,2.715355,-0.290000,2.680000,-0.290000,1.930000,0.280000,1.930000,0.280000,2.680000,0.294645,2.715355,0.330000,2.730000,0.930000,2.730000,0.965355,2.715355,0.980000,2.680000,0.980000,1.930000,1.550000,1.930000,
1.550000,2.680000,1.564645,2.715355,1.600000,2.730000,2.200000,2.730000,2.235355,2.715355,2.250000,2.680000,2.250000,-1.870000,2.235355,-1.905355,2.200000,-1.920000,-2.210000,-1.920000,-2.245355,-1.905355,-2.260000,-1.870000,-2.260000,2.680000,-2.245355,2.715355,-2.210000,2.730000,-1.610000,2.730000,-1.574645,2.715355,-1.574645,2.715355,$1*%
G04 Aperture macros list end*
%TA.AperFunction,SMDPad,CuDef*%
%ADD10RoundRect,0.135000X0.185000X-0.135000X0.185000X0.135000X-0.185000X0.135000X-0.185000X-0.135000X0*%
%TD*%
%TA.AperFunction,SMDPad,CuDef*%
%ADD11R,0.540000X0.640000*%
%TD*%
%TA.AperFunction,ComponentPad*%
%ADD12C,2.000000*%
%TD*%
%TA.AperFunction,ComponentPad*%
%ADD13R,1.700000X1.700000*%
%TD*%
%TA.AperFunction,ComponentPad*%
%ADD14C,1.700000*%
%TD*%
%TA.AperFunction,ComponentPad*%
%ADD15C,1.600000*%
%TD*%
%TA.AperFunction,SMDPad,CuDef*%
%ADD16R,0.900000X0.500000*%
%TD*%
%TA.AperFunction,SMDPad,CuDef*%
%ADD17FreePoly0,90.000000*%
%TD*%
%TA.AperFunction,SMDPad,CuDef*%
%ADD18R,0.600000X1.250000*%
%TD*%
%TA.AperFunction,SMDPad,CuDef*%
%ADD19RoundRect,0.135000X-0.185000X0.135000X-0.185000X-0.135000X0.185000X-0.135000X0.185000X0.135000X0*%
%TD*%
%TA.AperFunction,SMDPad,CuDef*%
%ADD20R,2.000000X5.150000*%
%TD*%
%TA.AperFunction,SMDPad,CuDef*%
%ADD21R,2.000000X4.000000*%
%TD*%
%TA.AperFunction,SMDPad,CuDef*%
%ADD22R,5.100000X2.000000*%
%TD*%
%TA.AperFunction,SMDPad,CuDef*%
%ADD23R,4.000000X2.000000*%
%TD*%
%TA.AperFunction,ViaPad*%
%ADD24C,0.500000*%
%TD*%
%TA.AperFunction,Conductor*%
%ADD25C,1.400000*%
%TD*%
%TA.AperFunction,Conductor*%
%ADD26C,0.200000*%
%TD*%
%TA.AperFunction,Conductor*%
%ADD27C,1.000000*%
%TD*%
G04 APERTURE END LIST*
D10*
%TO.P,R3,1*%
%TO.N,/FET_OUT*%
X140800000Y-103460000D03*
%TO.P,R3,2*%
%TO.N,GND*%
X140800000Y-102440000D03*
%TD*%
%TO.P,R4,1*%
%TO.N,/FET_OUT*%
X139790000Y-105410000D03*
%TO.P,R4,2*%
%TO.N,Net-(D1-A)*%
X139790000Y-104390000D03*
%TD*%
D11*
%TO.P,D1,1,K*%
%TO.N,GND*%
X139790000Y-102410000D03*
%TO.P,D1,2,A*%
%TO.N,Net-(D1-A)*%
X139790000Y-103490000D03*
%TD*%
D12*
%TO.P,SW1,1,B*%
%TO.N,/DET_OUT+*%
X141420000Y-108175000D03*
%TO.P,SW1,2,A*%
%TO.N,/FET_OUT*%
X151580000Y-108175000D03*
%TO.P,SW1,3,C*%
%TO.N,GND*%
X146500000Y-108175000D03*
%TD*%
D13*
%TO.P,J1,1,Pin_1*%
%TO.N,GND*%
X168000000Y-102860000D03*
D14*
%TO.P,J1,2,Pin_2*%
%TO.N,/TRIGGER*%
X168000000Y-105400000D03*
%TO.P,J1,3,Pin_3*%
%TO.N,/5V_IN*%
X168000000Y-107940000D03*
%TD*%
D11*
%TO.P,D2,1,K*%
%TO.N,GND*%
X138450000Y-102410000D03*
%TO.P,D2,2,A*%
%TO.N,Net-(D2-A)*%
X138450000Y-103490000D03*
%TD*%
D10*
%TO.P,R5,1*%
%TO.N,/5V_IN*%
X138450000Y-105410000D03*
%TO.P,R5,2*%
%TO.N,Net-(D2-A)*%
X138450000Y-104390000D03*
%TD*%
D15*
%TO.P,C1,1*%
%TO.N,/5V_IN*%
X163800000Y-106150000D03*
%TO.P,C1,2*%
%TO.N,GND*%
X163800000Y-102650000D03*
%TD*%
D16*
%TO.P,Q1,1,S*%
%TO.N,/5V_IN*%
X148800000Y-106010000D03*
%TO.P,Q1,2,S*%
X148800000Y-104740000D03*
%TO.P,Q1,3,S*%
X148800000Y-103470000D03*
%TO.P,Q1,4,G*%
%TO.N,/TRIGGER_2*%
X148800000Y-102200000D03*
D17*
%TO.P,Q1,5,D*%
%TO.N,/FET_OUT*%
X145250000Y-104110000D03*
%TD*%
D18*
%TO.P,Q2,1,G*%
%TO.N,/TRIGGER*%
X152445000Y-104450000D03*
%TO.P,Q2,2,S*%
%TO.N,GND*%
X154355000Y-104450000D03*
%TO.P,Q2,3,D*%
%TO.N,/TRIGGER_2*%
X153400000Y-102350000D03*
%TD*%
D19*
%TO.P,R1,1*%
%TO.N,/TRIGGER_2*%
X155605404Y-103048760D03*
%TO.P,R1,2*%
%TO.N,/5V_IN*%
X155605404Y-104068760D03*
%TD*%
D20*
%TO.P,U1,1,1*%
%TO.N,/DET_OUT+*%
X135340000Y-103975000D03*
D21*
X135340000Y-113250000D03*
D20*
%TO.P,U1,2,2*%
%TO.N,GND*%
X131340000Y-103975000D03*
D21*
X131340000Y-113250000D03*
%TD*%
D22*
%TO.P,U2,1,1*%
%TO.N,/FET_OUT*%
X166900000Y-115500000D03*
D23*
X157650000Y-115500000D03*
D22*
%TO.P,U2,2,2*%
%TO.N,/5V_IN*%
X166900000Y-111500000D03*
D23*
X157650000Y-111500000D03*
%TD*%
D10*
%TO.P,R2,1*%
%TO.N,/TRIGGER*%
X151190000Y-104880000D03*
%TO.P,R2,2*%
%TO.N,GND*%
X151190000Y-103860000D03*
%TD*%
D24*
%TO.N,GND*%
X162500000Y-108000000D03*
X155000000Y-113000000D03*
X131800000Y-103200000D03*
X138000000Y-115000000D03*
X162500000Y-109000000D03*
X160000000Y-109500000D03*
X162000000Y-109500000D03*
X159500000Y-105500000D03*
X139000000Y-113500000D03*
X149000000Y-110000000D03*
X159000000Y-102500000D03*
X161400000Y-103000000D03*
X156500000Y-106500000D03*
X157500000Y-103000000D03*
X139000000Y-115500000D03*
X154000000Y-111000000D03*
X161500000Y-108000000D03*
X160500000Y-108000000D03*
X141000000Y-110000000D03*
X133500000Y-114500000D03*
X161000000Y-108500000D03*
X130000000Y-116500000D03*
X160000000Y-103500000D03*
X158000000Y-102500000D03*
X159000000Y-109500000D03*
X139000000Y-116500000D03*
X158000000Y-107000000D03*
X156000000Y-108000000D03*
X141500000Y-104500000D03*
X153000000Y-110000000D03*
X160500000Y-109000000D03*
X161900000Y-103500000D03*
X160000000Y-102500000D03*
X137000000Y-116500000D03*
X139000000Y-111500000D03*
X133500000Y-113500000D03*
X155500000Y-106500000D03*
X138000000Y-113000000D03*
X143000000Y-107500000D03*
X157500000Y-106500000D03*
X141500000Y-105500000D03*
X131800000Y-105600000D03*
X131000000Y-104800000D03*
X154500000Y-106500000D03*
X163000000Y-107500000D03*
X153500000Y-109500000D03*
X154500000Y-110500000D03*
X158500000Y-105500000D03*
X131000000Y-116500000D03*
X157000000Y-108000000D03*
X158500000Y-106500000D03*
X155000000Y-107000000D03*
X157000000Y-104500000D03*
X158500000Y-103000000D03*
X158000000Y-113500000D03*
X149500000Y-107500000D03*
X159000000Y-103500000D03*
X164000000Y-108500000D03*
X157500000Y-107500000D03*
X131000000Y-103200000D03*
X136000000Y-116500000D03*
X154000000Y-116000000D03*
X149500000Y-108500000D03*
X158000000Y-106000000D03*
X161000000Y-102500000D03*
X155000000Y-111000000D03*
X161500000Y-109000000D03*
X139000000Y-114500000D03*
X160500000Y-103000000D03*
X163000000Y-108500000D03*
X157500000Y-104000000D03*
X162000000Y-107500000D03*
X148500000Y-109000000D03*
X150000000Y-104500000D03*
X143000000Y-109000000D03*
X162000000Y-108500000D03*
X146000000Y-110000000D03*
X160000000Y-108500000D03*
X155500000Y-107500000D03*
X157000000Y-107000000D03*
X138000000Y-116500000D03*
X141500000Y-106500000D03*
X158000000Y-103500000D03*
X161000000Y-109500000D03*
X159000000Y-106000000D03*
X159500000Y-109000000D03*
X161000000Y-103500000D03*
X131800000Y-104800000D03*
X163500000Y-108000000D03*
X157000000Y-103500000D03*
X154000000Y-110000000D03*
X148500000Y-108000000D03*
X156500000Y-108500000D03*
X157000000Y-113500000D03*
X154000000Y-112000000D03*
X138000000Y-114000000D03*
X159500000Y-103000000D03*
X154500000Y-112500000D03*
X156500000Y-107500000D03*
X143000000Y-110000000D03*
X142000000Y-110000000D03*
X147000000Y-110000000D03*
X131000000Y-104000000D03*
X155000000Y-112000000D03*
X156000000Y-107000000D03*
X157000000Y-102500000D03*
X139000000Y-112500000D03*
X148000000Y-110000000D03*
X131800000Y-104000000D03*
X131000000Y-105600000D03*
X154500000Y-111500000D03*
X161900000Y-102500000D03*
%TO.N,/5V_IN*%
X137729998Y-102500000D03*
X164958448Y-111100063D03*
X149880000Y-102750000D03*
X167358448Y-111900063D03*
X164958448Y-111900063D03*
X166558448Y-111100063D03*
X165758448Y-111100063D03*
X166558448Y-111900063D03*
X167358448Y-111100063D03*
X165758448Y-111900063D03*
%TO.N,/FET_OUT*%
X166588178Y-115069028D03*
X165788178Y-115869028D03*
X164988178Y-115869028D03*
X167388178Y-115869028D03*
X167388178Y-115069028D03*
X165788178Y-115069028D03*
X166588178Y-115869028D03*
X164988178Y-115069028D03*
%TO.N,/DET_OUT+*%
X135800000Y-103200000D03*
X135000000Y-104000000D03*
X135800000Y-104000000D03*
X135000000Y-105600000D03*
X135000000Y-103200000D03*
X135800000Y-105600000D03*
X135000000Y-104800000D03*
X135800000Y-104800000D03*
%TD*%
D25*
%TO.N,GND*%
X131340000Y-103550000D02*
X131340000Y-113250000D01*
D26*
%TO.N,/TRIGGER*%
X157180000Y-105620000D02*
X153615000Y-105620000D01*
X168000000Y-105400000D02*
X167150000Y-104550000D01*
X152015000Y-104880000D02*
X152445000Y-104450000D01*
X153615000Y-105620000D02*
X152445000Y-104450000D01*
X158250000Y-104550000D02*
X157180000Y-105620000D01*
X167150000Y-104550000D02*
X158250000Y-104550000D01*
X151190000Y-104880000D02*
X152015000Y-104880000D01*
%TO.N,/5V_IN*%
X138450000Y-105410000D02*
X137729998Y-104689998D01*
X149051000Y-103219000D02*
X148800000Y-103470000D01*
D27*
X157650000Y-111500000D02*
X152160000Y-106010000D01*
X148800000Y-103470000D02*
X148800000Y-106010000D01*
D26*
X149880000Y-102750000D02*
X150349000Y-103219000D01*
D27*
X157650000Y-109170000D02*
X157650000Y-111500000D01*
D25*
X167350000Y-111500000D02*
X157650000Y-111500000D01*
D27*
X157650000Y-109170000D02*
X160670000Y-106150000D01*
X152160000Y-106010000D02*
X148800000Y-106010000D01*
D26*
X150349000Y-103219000D02*
X150540000Y-103219000D01*
X150540000Y-103219000D02*
X149051000Y-103219000D01*
X151596340Y-103276000D02*
X151539340Y-103219000D01*
X154812644Y-103276000D02*
X151596340Y-103276000D01*
X155605404Y-104068760D02*
X154812644Y-103276000D01*
D27*
X165640000Y-107940000D02*
X168000000Y-107940000D01*
X163800000Y-106150000D02*
X163850000Y-106150000D01*
D26*
X137729998Y-104689998D02*
X137729998Y-102500000D01*
X151539340Y-103219000D02*
X150540000Y-103219000D01*
D27*
X163850000Y-106150000D02*
X165640000Y-107940000D01*
X160670000Y-106150000D02*
X163800000Y-106150000D01*
X168000000Y-110850000D02*
X167350000Y-111500000D01*
%TO.N,/FET_OUT*%
X150739213Y-111000000D02*
X150739213Y-109015787D01*
X155239213Y-115500000D02*
X157650000Y-115500000D01*
D26*
X140800000Y-103460000D02*
X144600000Y-103460000D01*
D25*
X167350000Y-115500000D02*
X157650000Y-115500000D01*
D27*
X145500000Y-111000000D02*
X144250000Y-109750000D01*
D26*
X144600000Y-103460000D02*
X145250000Y-104110000D01*
X139790000Y-105410000D02*
X140800000Y-104400000D01*
D27*
X151580000Y-111840787D02*
X150739213Y-111000000D01*
X150739213Y-109015787D02*
X151580000Y-108175000D01*
X150739213Y-111000000D02*
X145500000Y-111000000D01*
X144250000Y-105110000D02*
X145250000Y-104110000D01*
X151000000Y-111260787D02*
X151580000Y-111840787D01*
X144250000Y-109750000D02*
X144250000Y-105110000D01*
X151580000Y-111840787D02*
X155239213Y-115500000D01*
D26*
X140800000Y-104400000D02*
X140800000Y-103460000D01*
%TO.N,/TRIGGER_2*%
X153400000Y-102350000D02*
X154906644Y-102350000D01*
X153400000Y-102350000D02*
X151990000Y-102350000D01*
X154906644Y-102350000D02*
X155605404Y-103048760D01*
X151990000Y-102350000D02*
X151840000Y-102200000D01*
X151840000Y-102200000D02*
X148800000Y-102200000D01*
D27*
%TO.N,/DET_OUT+*%
X140415000Y-108175000D02*
X135340000Y-113250000D01*
D25*
X135340000Y-103550000D02*
X135340000Y-113250000D01*
D27*
X141420000Y-108175000D02*
X140415000Y-108175000D01*
D26*
%TO.N,Net-(D1-A)*%
X139790000Y-104390000D02*
X139790000Y-103490000D01*
%TO.N,Net-(D2-A)*%
X138450000Y-103490000D02*
X138450000Y-104390000D01*
%TD*%
%TA.AperFunction,Conductor*%
%TO.N,GND*%
G36*
X130075648Y-101464852D02*
G01*
X130090000Y-101499500D01*
X130090000Y-103725000D01*
X132590000Y-103725000D01*
X132590000Y-101499500D01*
X132604352Y-101464852D01*
X132639000Y-101450500D01*
X134090500Y-101450500D01*
X134125148Y-101464852D01*
X134139500Y-101499500D01*
X134139500Y-106569748D01*
X134151133Y-106628231D01*
X134168882Y-106654795D01*
X134195447Y-106694552D01*
X134219314Y-106710499D01*
X134261769Y-106738867D01*
X134320252Y-106750500D01*
X134390500Y-106750500D01*
X134425148Y-106764852D01*
X134439500Y-106799500D01*
X134439500Y-111000500D01*
X134425148Y-111035148D01*
X134390500Y-111049500D01*
X134320252Y-111049500D01*
X134261769Y-111061133D01*
X134195447Y-111105447D01*
X134164037Y-111152457D01*
X134151133Y-111171769D01*
X134139500Y-111230252D01*
X134139500Y-115269748D01*
X134151133Y-115328231D01*
X134168882Y-115354795D01*
X134195447Y-115394552D01*
X134222012Y-115412301D01*
X134261769Y-115438867D01*
X134320252Y-115450500D01*
X134320255Y-115450500D01*
X136359745Y-115450500D01*
X136359748Y-115450500D01*
X136418231Y-115438867D01*
X136484552Y-115394552D01*
X136528867Y-115328231D01*
X136540500Y-115269748D01*
X136540500Y-114072648D01*
X141199500Y-114072648D01*
X141199500Y-114088734D01*
X141199500Y-114277352D01*
X141206923Y-114324220D01*
X141231522Y-114479531D01*
X141231523Y-114479534D01*
X141294779Y-114674217D01*
X141387714Y-114856612D01*
X141387716Y-114856615D01*
X141508035Y-115022220D01*
X141508039Y-115022225D01*
X141652775Y-115166961D01*
X141652779Y-115166964D01*
X141652781Y-115166966D01*
X141752733Y-115239585D01*
X141800967Y-115274629D01*
X141818390Y-115287287D01*
X142000781Y-115380220D01*
X142195466Y-115443477D01*
X142397648Y-115475500D01*
X142397649Y-115475500D01*
X142602351Y-115475500D01*
X142602352Y-115475500D01*
X142804534Y-115443477D01*
X142999219Y-115380220D01*
X143181610Y-115287287D01*
X143347219Y-115166966D01*
X143347222Y-115166962D01*
X143347225Y-115166961D01*
X143491961Y-115022225D01*
X143491962Y-115022222D01*
X143491966Y-115022219D01*
X143612287Y-114856610D01*
X143705220Y-114674219D01*
X143768477Y-114479534D01*
X143800500Y-114277352D01*
X143800500Y-114072648D01*
X149199500Y-114072648D01*
X149199500Y-114088734D01*
X149199500Y-114277352D01*
X149206923Y-114324220D01*
X149231522Y-114479531D01*
X149231523Y-114479534D01*
X149294779Y-114674217D01*
X149387714Y-114856612D01*
X149387716Y-114856615D01*
X149508035Y-115022220D01*
X149508039Y-115022225D01*
X149652775Y-115166961D01*
X149652779Y-115166964D01*
X149652781Y-115166966D01*
X149752733Y-115239585D01*
X149800967Y-115274629D01*
X149818390Y-115287287D01*
X150000781Y-115380220D01*
X150195466Y-115443477D01*
X150397648Y-115475500D01*
X150397649Y-115475500D01*
X150602351Y-115475500D01*
X150602352Y-115475500D01*
X150804534Y-115443477D01*
X150999219Y-115380220D01*
X151181610Y-115287287D01*
X151347219Y-115166966D01*
X151347222Y-115166962D01*
X151347225Y-115166961D01*
X151491961Y-115022225D01*
X151491962Y-115022222D01*
X151491966Y-115022219D01*
X151612287Y-114856610D01*
X151705220Y-114674219D01*
X151768477Y-114479534D01*
X151800500Y-114277352D01*
X151800500Y-114072648D01*
X151768477Y-113870466D01*
X151705220Y-113675781D01*
X151612287Y-113493390D01*
X151491966Y-113327781D01*
X151491964Y-113327779D01*
X151491961Y-113327775D01*
X151347225Y-113183039D01*
X151347220Y-113183035D01*
X151181615Y-113062716D01*
X151181612Y-113062714D01*
X150999217Y-112969779D01*
X150804534Y-112906523D01*
X150804531Y-112906522D01*
X150649220Y-112881923D01*
X150602352Y-112874500D01*
X150397648Y-112874500D01*
X150359599Y-112880526D01*
X150195468Y-112906522D01*
X150195465Y-112906523D01*
X150000782Y-112969779D01*
X149818387Y-113062714D01*
X149818384Y-113062716D01*
X149652779Y-113183035D01*
X149508035Y-113327779D01*
X149387716Y-113493384D01*
X149387714Y-113493387D01*
X149294779Y-113675782D01*
X149231523Y-113870465D01*
X149231522Y-113870468D01*
X149223942Y-113918327D01*
X149199500Y-114072648D01*
X143800500Y-114072648D01*
X143768477Y-113870466D01*
X143705220Y-113675781D01*
X143612287Y-113493390D01*
X143491966Y-113327781D01*
X143491964Y-113327779D01*
X143491961Y-113327775D01*
X143347225Y-113183039D01*
X143347220Y-113183035D01*
X143181615Y-113062716D01*
X143181612Y-113062714D01*
X142999217Y-112969779D01*
X142804534Y-112906523D01*
X142804531Y-112906522D01*
X142649220Y-112881923D01*
X142602352Y-112874500D01*
X142397648Y-112874500D01*
X142359599Y-112880526D01*
X142195468Y-112906522D01*
X142195465Y-112906523D01*
X142000782Y-112969779D01*
X141818387Y-113062714D01*
X141818384Y-113062716D01*
X141652779Y-113183035D01*
X141508035Y-113327779D01*
X141387716Y-113493384D01*
X141387714Y-113493387D01*
X141294779Y-113675782D01*
X141231523Y-113870465D01*
X141231522Y-113870468D01*
X141223942Y-113918327D01*
X141199500Y-114072648D01*
X136540500Y-114072648D01*
X136540500Y-113060453D01*
X136554852Y-113025805D01*
X138531157Y-111049500D01*
X140529299Y-109051357D01*
X140563946Y-109037006D01*
X140598594Y-109051358D01*
X140637920Y-109090684D01*
X140637923Y-109090686D01*
X140637927Y-109090690D01*
X140790801Y-109201760D01*
X140790803Y-109201761D01*
X140790806Y-109201763D01*
X140873890Y-109244096D01*
X140959168Y-109287547D01*
X141138882Y-109345940D01*
X141325519Y-109375500D01*
X141325520Y-109375500D01*
X141514480Y-109375500D01*
X141514481Y-109375500D01*
X141701118Y-109345940D01*
X141880832Y-109287547D01*
X142049199Y-109201760D01*
X142202073Y-109090690D01*
X142335690Y-108957073D01*
X142446760Y-108804199D01*
X142532547Y-108635832D01*
X142590940Y-108456118D01*
X142620500Y-108269481D01*
X142620500Y-108080519D01*
X142590940Y-107893882D01*
X142532547Y-107714168D01*
X142491487Y-107633582D01*
X142446763Y-107545806D01*
X142446761Y-107545803D01*
X142446760Y-107545801D01*
X142335690Y-107392927D01*
X142335686Y-107392923D01*
X142335684Y-107392920D01*
X142202079Y-107259315D01*
X142202080Y-107259315D01*
X142072063Y-107164852D01*
X142049199Y-107148240D01*
X142049197Y-107148239D01*
X142049193Y-107148236D01*
X141880833Y-107062453D01*
X141701118Y-107004060D01*
X141701115Y-107004059D01*
X141557744Y-106981352D01*
X141514481Y-106974500D01*
X141325519Y-106974500D01*
X141290397Y-106980062D01*
X141138884Y-107004059D01*
X141138881Y-107004060D01*
X140959166Y-107062453D01*
X140790806Y-107148236D01*
X140637920Y-107259315D01*
X140504315Y-107392921D01*
X140504308Y-107392928D01*
X140459717Y-107454302D01*
X140427741Y-107473897D01*
X140420076Y-107474500D01*
X140346002Y-107474500D01*
X140210679Y-107501418D01*
X140210670Y-107501420D01*
X140083192Y-107554223D01*
X139968457Y-107630885D01*
X136518587Y-111080754D01*
X136483939Y-111095106D01*
X136456716Y-111086848D01*
X136445485Y-111079344D01*
X136418231Y-111061133D01*
X136359748Y-111049500D01*
X136359745Y-111049500D01*
X136289500Y-111049500D01*
X136254852Y-111035148D01*
X136240500Y-111000500D01*
X136240500Y-106799500D01*
X136254852Y-106764852D01*
X136289500Y-106750500D01*
X136359745Y-106750500D01*
X136359748Y-106750500D01*
X136418231Y-106738867D01*
X136484552Y-106694552D01*
X136528867Y-106628231D01*
X136540500Y-106569748D01*
X136540500Y-102440688D01*
X137279498Y-102440688D01*
X137279498Y-102559311D01*
X137310198Y-102673884D01*
X137310199Y-102673887D01*
X137369509Y-102776613D01*
X137415146Y-102822250D01*
X137429498Y-102856898D01*
X137429498Y-104729560D01*
X137449977Y-104805987D01*
X137449978Y-104805988D01*
X137480762Y-104859309D01*
X137489534Y-104874503D01*
X137489536Y-104874505D01*
X137489538Y-104874509D01*
X137489541Y-104874512D01*
X137915148Y-105300119D01*
X137929500Y-105334767D01*
X137929500Y-105584312D01*
X137929499Y-105584312D01*
X137935932Y-105633173D01*
X137970088Y-105706420D01*
X137985935Y-105740404D01*
X137985936Y-105740406D01*
X138069593Y-105824063D01*
X138069595Y-105824064D01*
X138069596Y-105824065D01*
X138176827Y-105874068D01*
X138225684Y-105880500D01*
X138225687Y-105880500D01*
X138674312Y-105880500D01*
X138674316Y-105880500D01*
X138723173Y-105874068D01*
X138830404Y-105824065D01*
X138914065Y-105740404D01*
X138964068Y-105633173D01*
X138970500Y-105584316D01*
X138970500Y-105235684D01*
X138964068Y-105186827D01*
X138914065Y-105079596D01*
X138914064Y-105079595D01*
X138914063Y-105079593D01*
X138830406Y-104995936D01*
X138830404Y-104995935D01*
X138723173Y-104945932D01*
X138723171Y-104945931D01*
X138719906Y-104944409D01*
X138694569Y-104916759D01*
X138696205Y-104879292D01*
X138719906Y-104855591D01*
X138723171Y-104854068D01*
X138723173Y-104854068D01*
X138830404Y-104804065D01*
X138914065Y-104720404D01*
X138964068Y-104613173D01*
X138970500Y-104564316D01*
X138970500Y-104215684D01*
X138964068Y-104166827D01*
X138914065Y-104059596D01*
X138914064Y-104059595D01*
X138914063Y-104059593D01*
X138870744Y-104016274D01*
X138856392Y-103981626D01*
X138864648Y-103954408D01*
X138908867Y-103888231D01*
X138920500Y-103829748D01*
X138920500Y-103150252D01*
X138908867Y-103091769D01*
X138871297Y-103035542D01*
X138864551Y-103025446D01*
X138857159Y-103020507D01*
X138836324Y-102989324D01*
X138843642Y-102952542D01*
X138857161Y-102939023D01*
X138900240Y-102910239D01*
X138955496Y-102827542D01*
X138969999Y-102754629D01*
X138970000Y-102754624D01*
X138970000Y-102660000D01*
X138499000Y-102660000D01*
X138464352Y-102645648D01*
X138450000Y-102611000D01*
X138450000Y-102410000D01*
X138249000Y-102410000D01*
X138214352Y-102395648D01*
X138200000Y-102361000D01*
X138200000Y-102160000D01*
X138700000Y-102160000D01*
X138970000Y-102160000D01*
X138970000Y-102065376D01*
X138969999Y-102065370D01*
X139270000Y-102065370D01*
X139270000Y-102160000D01*
X139540000Y-102160000D01*
X140040000Y-102160000D01*
X140316000Y-102160000D01*
X140350648Y-102174352D01*
X140351564Y-102176564D01*
X140365000Y-102190000D01*
X140550000Y-102190000D01*
X141050000Y-102190000D01*
X141357324Y-102190000D01*
X141302665Y-102078194D01*
X141302663Y-102078190D01*
X141211809Y-101987336D01*
X141211803Y-101987332D01*
X141096374Y-101930903D01*
X141096376Y-101930903D01*
X141050000Y-101924145D01*
X141050000Y-102190000D01*
X140550000Y-102190000D01*
X140550000Y-101924146D01*
X140549999Y-101924146D01*
X140503626Y-101930902D01*
X140503625Y-101930902D01*
X140388194Y-101987334D01*
X140388189Y-101987337D01*
X140372791Y-102002735D01*
X140338143Y-102017086D01*
X140303495Y-102002733D01*
X140297402Y-101995309D01*
X140240240Y-101909759D01*
X140157542Y-101854503D01*
X140084629Y-101840000D01*
X140040000Y-101840000D01*
X140040000Y-102160000D01*
X139540000Y-102160000D01*
X139540000Y-101840000D01*
X139495370Y-101840000D01*
X139422457Y-101854503D01*
X139339759Y-101909759D01*
X139284503Y-101992457D01*
X139270000Y-102065370D01*
X138969999Y-102065370D01*
X138955496Y-101992457D01*
X138900240Y-101909759D01*
X138817542Y-101854503D01*
X138744629Y-101840000D01*
X138700000Y-101840000D01*
X138700000Y-102160000D01*
X138200000Y-102160000D01*
X138200000Y-101840000D01*
X138155370Y-101840000D01*
X138082457Y-101854503D01*
X137999759Y-101909759D01*
X137944504Y-101992456D01*
X137936084Y-102034783D01*
X137915248Y-102065966D01*
X137878466Y-102073281D01*
X137875344Y-102072553D01*
X137789310Y-102049500D01*
X137789307Y-102049500D01*
X137670689Y-102049500D01*
X137670686Y-102049500D01*
X137556113Y-102080200D01*
X137556110Y-102080201D01*
X137453384Y-102139511D01*
X137453384Y-102139512D01*
X137369510Y-102223386D01*
X137369509Y-102223386D01*
X137310199Y-102326112D01*
X137310198Y-102326115D01*
X137279498Y-102440688D01*
X136540500Y-102440688D01*
X136540500Y-101499500D01*
X136554852Y-101464852D01*
X136589500Y-101450500D01*
X152988397Y-101450500D01*
X153023045Y-101464852D01*
X153037397Y-101499500D01*
X153023045Y-101534148D01*
X153015620Y-101540242D01*
X152955447Y-101580447D01*
X152915423Y-101640349D01*
X152911133Y-101646769D01*
X152899500Y-101705252D01*
X152899500Y-101705255D01*
X152899500Y-102000500D01*
X152885148Y-102035148D01*
X152850500Y-102049500D01*
X152134767Y-102049500D01*
X152100119Y-102035148D01*
X152024513Y-101959542D01*
X152024507Y-101959537D01*
X151993040Y-101941370D01*
X151973782Y-101930252D01*
X151955989Y-101919979D01*
X151955988Y-101919978D01*
X151955987Y-101919978D01*
X151879564Y-101899500D01*
X151879562Y-101899500D01*
X149483094Y-101899500D01*
X149448446Y-101885148D01*
X149441990Y-101875486D01*
X149441548Y-101875782D01*
X149394552Y-101805447D01*
X149348240Y-101774503D01*
X149328231Y-101761133D01*
X149269748Y-101749500D01*
X148330252Y-101749500D01*
X148277465Y-101760000D01*
X148271769Y-101761133D01*
X148205447Y-101805447D01*
X148172670Y-101854503D01*
X148161133Y-101871769D01*
X148149500Y-101930252D01*
X148149500Y-102469748D01*
X148161133Y-102528231D01*
X148173398Y-102546587D01*
X148205447Y-102594552D01*
X148228567Y-102610000D01*
X148271769Y-102638867D01*
X148330252Y-102650500D01*
X148330255Y-102650500D01*
X149269745Y-102650500D01*
X149269748Y-102650500D01*
X149328231Y-102638867D01*
X149360250Y-102617471D01*
X149397031Y-102610154D01*
X149428214Y-102630989D01*
X149435532Y-102667771D01*
X149434804Y-102670894D01*
X149429500Y-102690690D01*
X149429500Y-102809310D01*
X149442230Y-102856817D01*
X149437336Y-102893999D01*
X149407583Y-102916830D01*
X149394900Y-102918500D01*
X149250352Y-102918500D01*
X149223129Y-102910242D01*
X149214009Y-102904148D01*
X149131811Y-102849225D01*
X149131808Y-102849223D01*
X149131807Y-102849223D01*
X149004329Y-102796420D01*
X149004318Y-102796417D01*
X148868998Y-102769500D01*
X148868993Y-102769500D01*
X148731007Y-102769500D01*
X148731001Y-102769500D01*
X148595681Y-102796417D01*
X148595670Y-102796420D01*
X148468192Y-102849223D01*
X148353460Y-102925883D01*
X148255887Y-103023456D01*
X148255882Y-103023462D01*
X148239221Y-103048395D01*
X148225706Y-103061910D01*
X148205450Y-103075445D01*
X148205445Y-103075450D01*
X148161133Y-103141769D01*
X148149499Y-103200256D01*
X148149264Y-103202649D01*
X148149018Y-103202624D01*
X148145770Y-103218956D01*
X148126420Y-103265670D01*
X148126417Y-103265681D01*
X148099500Y-103401001D01*
X148099500Y-106078998D01*
X148126417Y-106214316D01*
X148126421Y-106214331D01*
X148145770Y-106261042D01*
X148149018Y-106277375D01*
X148149264Y-106277351D01*
X148149499Y-106279743D01*
X148149500Y-106279748D01*
X148161133Y-106338231D01*
X148178882Y-106364795D01*
X148205447Y-106404552D01*
X148225706Y-106418088D01*
X148239225Y-106431607D01*
X148255885Y-106456541D01*
X148353460Y-106554116D01*
X148392947Y-106580500D01*
X148468189Y-106630775D01*
X148595672Y-106683580D01*
X148595678Y-106683581D01*
X148595681Y-106683582D01*
X148731001Y-106710499D01*
X148731007Y-106710500D01*
X151849547Y-106710500D01*
X151884195Y-106724852D01*
X152191029Y-107031686D01*
X152205381Y-107066334D01*
X152191029Y-107100982D01*
X152156381Y-107115334D01*
X152134136Y-107109993D01*
X152040833Y-107062453D01*
X151861118Y-107004060D01*
X151861115Y-107004059D01*
X151717744Y-106981352D01*
X151674481Y-106974500D01*
X151485519Y-106974500D01*
X151450397Y-106980062D01*
X151298884Y-107004059D01*
X151298881Y-107004060D01*
X151119166Y-107062453D01*
X150950806Y-107148236D01*
X150797920Y-107259315D01*
X150664315Y-107392920D01*
X150553236Y-107545806D01*
X150467453Y-107714166D01*
X150409060Y-107893881D01*
X150409059Y-107893884D01*
X150379500Y-108080519D01*
X150379500Y-108269480D01*
X150391367Y-108344411D01*
X150382612Y-108380878D01*
X150377618Y-108386724D01*
X150195098Y-108569244D01*
X150133350Y-108661658D01*
X150118437Y-108683975D01*
X150065633Y-108811457D01*
X150065630Y-108811468D01*
X150038713Y-108946788D01*
X150038713Y-110250500D01*
X150024361Y-110285148D01*
X149989713Y-110299500D01*
X145810453Y-110299500D01*
X145775805Y-110285148D01*
X144964852Y-109474195D01*
X144950500Y-109439547D01*
X144950500Y-108076623D01*
X145250000Y-108076623D01*
X145250000Y-108273376D01*
X145280778Y-108467706D01*
X145280779Y-108467709D01*
X145341580Y-108654834D01*
X145430902Y-108830140D01*
X145430907Y-108830149D01*
X145456319Y-108865125D01*
X145456320Y-108865125D01*
X146017037Y-108304408D01*
X146034075Y-108367993D01*
X146099901Y-108482007D01*
X146192993Y-108575099D01*
X146307007Y-108640925D01*
X146370590Y-108657962D01*
X145809873Y-109218678D01*
X145844857Y-109244096D01*
X145844859Y-109244097D01*
X146020165Y-109333419D01*
X146207290Y-109394220D01*
X146207293Y-109394221D01*
X146401624Y-109425000D01*
X146598376Y-109425000D01*
X146792706Y-109394221D01*
X146792709Y-109394220D01*
X146979834Y-109333419D01*
X147155140Y-109244097D01*
X147190126Y-109218679D01*
X146629409Y-108657962D01*
X146692993Y-108640925D01*
X146807007Y-108575099D01*
X146900099Y-108482007D01*
X146965925Y-108367993D01*
X146982962Y-108304409D01*
X147543679Y-108865126D01*
X147569097Y-108830140D01*
X147658419Y-108654834D01*
X147719220Y-108467709D01*
X147719221Y-108467706D01*
X147750000Y-108273376D01*
X147750000Y-108076623D01*
X147719221Y-107882293D01*
X147719220Y-107882290D01*
X147658419Y-107695165D01*
X147569097Y-107519859D01*
X147569096Y-107519857D01*
X147543678Y-107484873D01*
X146982962Y-108045589D01*
X146965925Y-107982007D01*
X146900099Y-107867993D01*
X146807007Y-107774901D01*
X146692993Y-107709075D01*
X146629407Y-107692037D01*
X147190125Y-107131320D01*
X147190125Y-107131319D01*
X147155149Y-107105907D01*
X147155140Y-107105902D01*
X146979834Y-107016580D01*
X146792709Y-106955779D01*
X146792706Y-106955778D01*
X146598376Y-106925000D01*
X146401624Y-106925000D01*
X146207293Y-106955778D01*
X146207290Y-106955779D01*
X146020171Y-107016578D01*
X145844859Y-107105902D01*
X145844856Y-107105903D01*
X145809873Y-107131320D01*
X146370590Y-107692037D01*
X146307007Y-107709075D01*
X146192993Y-107774901D01*
X146099901Y-107867993D01*
X146034075Y-107982007D01*
X146017037Y-108045590D01*
X145456320Y-107484873D01*
X145430903Y-107519856D01*
X145430902Y-107519859D01*
X145341578Y-107695171D01*
X145280779Y-107882290D01*
X145280778Y-107882293D01*
X145250000Y-108076623D01*
X144950500Y-108076623D01*
X144950500Y-106629500D01*
X144964852Y-106594852D01*
X144999500Y-106580500D01*
X147119997Y-106580500D01*
X147120000Y-106580500D01*
X147198641Y-106564858D01*
X147237532Y-106548749D01*
X147295826Y-106512120D01*
X147307387Y-106495827D01*
X147313467Y-106487257D01*
X147348749Y-106437532D01*
X147364858Y-106398641D01*
X147380500Y-106320000D01*
X147380500Y-101910000D01*
X147364858Y-101831359D01*
X147348749Y-101792468D01*
X147328348Y-101760000D01*
X147312120Y-101734173D01*
X147312119Y-101734172D01*
X147237534Y-101681252D01*
X147237532Y-101681250D01*
X147198642Y-101665142D01*
X147178980Y-101661231D01*
X147120000Y-101649500D01*
X142570000Y-101649500D01*
X142511019Y-101661231D01*
X142491358Y-101665142D01*
X142491357Y-101665142D01*
X142452468Y-101681250D01*
X142394173Y-101717879D01*
X142394172Y-101717880D01*
X142341252Y-101792465D01*
X142341250Y-101792467D01*
X142325142Y-101831357D01*
X142325142Y-101831358D01*
X142325142Y-101831359D01*
X142309500Y-101910000D01*
X142309500Y-102510000D01*
X142324357Y-102584692D01*
X142325142Y-102588641D01*
X142325142Y-102588642D01*
X142341250Y-102627531D01*
X142377879Y-102685826D01*
X142377880Y-102685827D01*
X142452465Y-102738747D01*
X142452467Y-102738749D01*
X142479965Y-102750138D01*
X142491359Y-102754858D01*
X142570000Y-102770500D01*
X143060500Y-102770500D01*
X143095148Y-102784852D01*
X143109500Y-102819500D01*
X143109500Y-102870500D01*
X143095148Y-102905148D01*
X143060500Y-102919500D01*
X142570000Y-102919500D01*
X142511019Y-102931231D01*
X142491358Y-102935142D01*
X142491357Y-102935142D01*
X142452468Y-102951250D01*
X142394173Y-102987879D01*
X142394172Y-102987880D01*
X142341252Y-103062465D01*
X142341250Y-103062467D01*
X142325142Y-103101357D01*
X142325142Y-103101358D01*
X142321423Y-103120059D01*
X142300587Y-103151242D01*
X142273364Y-103159500D01*
X141309226Y-103159500D01*
X141274578Y-103145148D01*
X141264818Y-103131210D01*
X141264066Y-103129597D01*
X141264064Y-103129595D01*
X141180406Y-103045936D01*
X141166906Y-103039641D01*
X141129008Y-103021968D01*
X141103673Y-102994319D01*
X141105309Y-102956851D01*
X141128198Y-102933539D01*
X141211803Y-102892667D01*
X141211809Y-102892663D01*
X141302663Y-102801809D01*
X141302665Y-102801805D01*
X141357324Y-102690000D01*
X140224000Y-102690000D01*
X140189352Y-102675648D01*
X140188435Y-102673435D01*
X140175000Y-102660000D01*
X139270000Y-102660000D01*
X139270000Y-102754629D01*
X139284503Y-102827542D01*
X139339760Y-102910241D01*
X139382838Y-102939024D01*
X139403674Y-102970206D01*
X139396358Y-103006988D01*
X139382842Y-103020506D01*
X139375448Y-103025447D01*
X139342037Y-103075450D01*
X139331133Y-103091769D01*
X139319500Y-103150252D01*
X139319500Y-103829748D01*
X139328315Y-103874063D01*
X139331133Y-103888231D01*
X139375348Y-103954404D01*
X139382664Y-103991187D01*
X139369255Y-104016275D01*
X139325934Y-104059596D01*
X139275933Y-104166824D01*
X139275932Y-104166825D01*
X139269500Y-104215687D01*
X139269500Y-104564312D01*
X139269499Y-104564312D01*
X139275932Y-104613174D01*
X139275933Y-104613175D01*
X139325935Y-104720404D01*
X139325936Y-104720406D01*
X139409593Y-104804063D01*
X139409595Y-104804064D01*
X139409596Y-104804065D01*
X139514562Y-104853012D01*
X139520093Y-104855591D01*
X139545430Y-104883241D01*
X139543794Y-104920708D01*
X139520093Y-104944409D01*
X139409595Y-104995935D01*
X139409593Y-104995936D01*
X139325936Y-105079593D01*
X139325935Y-105079595D01*
X139275933Y-105186824D01*
X139275932Y-105186825D01*
X139273359Y-105206369D01*
X139270319Y-105229467D01*
X139269500Y-105235687D01*
X139269500Y-105584312D01*
X139269499Y-105584312D01*
X139275932Y-105633173D01*
X139310088Y-105706420D01*
X139325935Y-105740404D01*
X139325936Y-105740406D01*
X139409593Y-105824063D01*
X139409595Y-105824064D01*
X139409596Y-105824065D01*
X139516827Y-105874068D01*
X139565684Y-105880500D01*
X139565687Y-105880500D01*
X140014312Y-105880500D01*
X140014316Y-105880500D01*
X140063173Y-105874068D01*
X140170404Y-105824065D01*
X140254065Y-105740404D01*
X140304068Y-105633173D01*
X140310500Y-105584316D01*
X140310500Y-105334767D01*
X140324852Y-105300119D01*
X141040459Y-104584512D01*
X141040460Y-104584511D01*
X141080022Y-104515988D01*
X141100499Y-104439565D01*
X141100500Y-104439565D01*
X141100500Y-103942541D01*
X141114852Y-103907893D01*
X141128792Y-103898132D01*
X141130081Y-103897531D01*
X141180404Y-103874065D01*
X141264065Y-103790404D01*
X141264818Y-103788790D01*
X141265870Y-103787825D01*
X141266525Y-103786891D01*
X141266732Y-103787036D01*
X141292469Y-103763454D01*
X141309226Y-103760500D01*
X142265408Y-103760500D01*
X142300056Y-103774852D01*
X142313465Y-103799939D01*
X142319395Y-103829748D01*
X142325142Y-103858641D01*
X142325142Y-103858642D01*
X142341250Y-103897531D01*
X142377879Y-103955826D01*
X142377880Y-103955827D01*
X142452465Y-104008747D01*
X142452467Y-104008749D01*
X142479965Y-104020138D01*
X142491359Y-104024858D01*
X142570000Y-104040500D01*
X143060500Y-104040500D01*
X143095148Y-104054852D01*
X143109500Y-104089500D01*
X143109500Y-104140500D01*
X143095148Y-104175148D01*
X143060500Y-104189500D01*
X142570000Y-104189500D01*
X142517211Y-104200000D01*
X142491358Y-104205142D01*
X142491357Y-104205142D01*
X142452468Y-104221250D01*
X142394173Y-104257879D01*
X142394172Y-104257880D01*
X142341252Y-104332465D01*
X142341250Y-104332467D01*
X142325142Y-104371357D01*
X142325142Y-104371358D01*
X142323248Y-104380881D01*
X142309500Y-104450000D01*
X142309500Y-105050000D01*
X142320077Y-105103174D01*
X142325142Y-105128641D01*
X142325142Y-105128642D01*
X142341250Y-105167531D01*
X142377879Y-105225826D01*
X142377880Y-105225827D01*
X142452465Y-105278747D01*
X142452467Y-105278749D01*
X142479965Y-105290138D01*
X142491359Y-105294858D01*
X142570000Y-105310500D01*
X143060500Y-105310500D01*
X143095148Y-105324852D01*
X143109500Y-105359500D01*
X143109500Y-105410500D01*
X143095148Y-105445148D01*
X143060500Y-105459500D01*
X142570000Y-105459500D01*
X142511019Y-105471231D01*
X142491358Y-105475142D01*
X142491357Y-105475142D01*
X142452468Y-105491250D01*
X142394173Y-105527879D01*
X142394172Y-105527880D01*
X142341252Y-105602465D01*
X142341250Y-105602467D01*
X142325142Y-105641357D01*
X142325142Y-105641358D01*
X142325142Y-105641359D01*
X142309500Y-105720000D01*
X142309500Y-106320000D01*
X142325142Y-106398641D01*
X142325142Y-106398642D01*
X142341250Y-106437531D01*
X142377879Y-106495826D01*
X142377880Y-106495827D01*
X142452465Y-106548747D01*
X142452467Y-106548749D01*
X142465420Y-106554114D01*
X142491359Y-106564858D01*
X142570000Y-106580500D01*
X143500500Y-106580500D01*
X143535148Y-106594852D01*
X143549500Y-106629500D01*
X143549500Y-109818997D01*
X143576418Y-109954320D01*
X143576420Y-109954328D01*
X143629225Y-110081811D01*
X143705886Y-110196543D01*
X145053457Y-111544114D01*
X145168189Y-111620775D01*
X145295672Y-111673580D01*
X145431006Y-111700500D01*
X145431007Y-111700500D01*
X150428760Y-111700500D01*
X150463408Y-111714852D01*
X151035886Y-112287330D01*
X154792670Y-116044114D01*
X154907402Y-116120775D01*
X155034885Y-116173580D01*
X155170219Y-116200500D01*
X155170220Y-116200500D01*
X155400500Y-116200500D01*
X155435148Y-116214852D01*
X155449500Y-116249500D01*
X155449500Y-116519748D01*
X155461133Y-116578231D01*
X155478882Y-116604795D01*
X155505447Y-116644552D01*
X155532012Y-116662301D01*
X155571769Y-116688867D01*
X155630252Y-116700500D01*
X155630255Y-116700500D01*
X159669745Y-116700500D01*
X159669748Y-116700500D01*
X159728231Y-116688867D01*
X159794552Y-116644552D01*
X159838867Y-116578231D01*
X159850500Y-116519748D01*
X159850500Y-116449500D01*
X159864852Y-116414852D01*
X159899500Y-116400500D01*
X164100500Y-116400500D01*
X164135148Y-116414852D01*
X164149500Y-116449500D01*
X164149500Y-116519748D01*
X164161133Y-116578231D01*
X164178882Y-116604795D01*
X164205447Y-116644552D01*
X164232012Y-116662301D01*
X164271769Y-116688867D01*
X164330252Y-116700500D01*
X169350500Y-116700500D01*
X169385148Y-116714852D01*
X169399500Y-116749500D01*
X169399500Y-117350500D01*
X169385148Y-117385148D01*
X169350500Y-117399500D01*
X129349500Y-117399500D01*
X129314852Y-117385148D01*
X129300500Y-117350500D01*
X129300500Y-115274629D01*
X130090000Y-115274629D01*
X130104503Y-115347542D01*
X130159759Y-115430240D01*
X130242457Y-115485496D01*
X130315370Y-115499999D01*
X130315376Y-115500000D01*
X131090000Y-115500000D01*
X131590000Y-115500000D01*
X132364624Y-115500000D01*
X132364629Y-115499999D01*
X132437542Y-115485496D01*
X132520240Y-115430240D01*
X132575496Y-115347542D01*
X132589999Y-115274629D01*
X132590000Y-115274624D01*
X132590000Y-113500000D01*
X131590000Y-113500000D01*
X131590000Y-115500000D01*
X131090000Y-115500000D01*
X131090000Y-113500000D01*
X130090000Y-113500000D01*
X130090000Y-115274629D01*
X129300500Y-115274629D01*
X129300500Y-111225370D01*
X130090000Y-111225370D01*
X130090000Y-113000000D01*
X131090000Y-113000000D01*
X131590000Y-113000000D01*
X132590000Y-113000000D01*
X132590000Y-111225376D01*
X132589999Y-111225370D01*
X132575496Y-111152457D01*
X132520240Y-111069759D01*
X132437542Y-111014503D01*
X132364629Y-111000000D01*
X131590000Y-111000000D01*
X131590000Y-113000000D01*
X131090000Y-113000000D01*
X131090000Y-111000000D01*
X130315370Y-111000000D01*
X130242457Y-111014503D01*
X130159759Y-111069759D01*
X130104503Y-111152457D01*
X130090000Y-111225370D01*
X129300500Y-111225370D01*
X129300500Y-106574629D01*
X130090000Y-106574629D01*
X130104503Y-106647542D01*
X130159759Y-106730240D01*
X130242457Y-106785496D01*
X130315370Y-106799999D01*
X130315376Y-106800000D01*
X131090000Y-106800000D01*
X131590000Y-106800000D01*
X132364624Y-106800000D01*
X132364629Y-106799999D01*
X132437542Y-106785496D01*
X132520240Y-106730240D01*
X132575496Y-106647542D01*
X132589999Y-106574629D01*
X132590000Y-106574624D01*
X132590000Y-104225000D01*
X131590000Y-104225000D01*
X131590000Y-106800000D01*
X131090000Y-106800000D01*
X131090000Y-104225000D01*
X130090000Y-104225000D01*
X130090000Y-106574629D01*
X129300500Y-106574629D01*
X129300500Y-101499500D01*
X129314852Y-101464852D01*
X129349500Y-101450500D01*
X130041000Y-101450500D01*
X130075648Y-101464852D01*
G37*
%TD.AperFunction*%
%TA.AperFunction,Conductor*%
G36*
X152723311Y-107563967D02*
G01*
X153720119Y-108560775D01*
X155480755Y-110321411D01*
X155495107Y-110356059D01*
X155486849Y-110383282D01*
X155461133Y-110421768D01*
X155461133Y-110421769D01*
X155449500Y-110480252D01*
X155449500Y-112519748D01*
X155461133Y-112578231D01*
X155478882Y-112604795D01*
X155505447Y-112644552D01*
X155532012Y-112662301D01*
X155571769Y-112688867D01*
X155630252Y-112700500D01*
X155630255Y-112700500D01*
X159669745Y-112700500D01*
X159669748Y-112700500D01*
X159728231Y-112688867D01*
X159794552Y-112644552D01*
X159838867Y-112578231D01*
X159850500Y-112519748D01*
X159850500Y-112449500D01*
X159864852Y-112414852D01*
X159899500Y-112400500D01*
X164100500Y-112400500D01*
X164135148Y-112414852D01*
X164149500Y-112449500D01*
X164149500Y-112519748D01*
X164161133Y-112578231D01*
X164178882Y-112604795D01*
X164205447Y-112644552D01*
X164232012Y-112662301D01*
X164271769Y-112688867D01*
X164330252Y-112700500D01*
X169350500Y-112700500D01*
X169385148Y-112714852D01*
X169399500Y-112749500D01*
X169399500Y-114250500D01*
X169385148Y-114285148D01*
X169350500Y-114299500D01*
X164330252Y-114299500D01*
X164271769Y-114311133D01*
X164205447Y-114355447D01*
X164161133Y-114421769D01*
X164149500Y-114480252D01*
X164149500Y-114480255D01*
X164149500Y-114550500D01*
X164135148Y-114585148D01*
X164100500Y-114599500D01*
X159899500Y-114599500D01*
X159864852Y-114585148D01*
X159850500Y-114550500D01*
X159850500Y-114480255D01*
X159850500Y-114480252D01*
X159838867Y-114421769D01*
X159800500Y-114364349D01*
X159794552Y-114355447D01*
X159754795Y-114328882D01*
X159728231Y-114311133D01*
X159669748Y-114299500D01*
X155630252Y-114299500D01*
X155571769Y-114311133D01*
X155505447Y-114355447D01*
X155461133Y-114421769D01*
X155449500Y-114480252D01*
X155449500Y-114480255D01*
X155449500Y-114601334D01*
X155435148Y-114635982D01*
X155400500Y-114650334D01*
X155365852Y-114635982D01*
X151454065Y-110724195D01*
X151439713Y-110689547D01*
X151439713Y-109424500D01*
X151454065Y-109389852D01*
X151488713Y-109375500D01*
X151674480Y-109375500D01*
X151674481Y-109375500D01*
X151861118Y-109345940D01*
X152040832Y-109287547D01*
X152209199Y-109201760D01*
X152362073Y-109090690D01*
X152495690Y-108957073D01*
X152606760Y-108804199D01*
X152692547Y-108635832D01*
X152750940Y-108456118D01*
X152780500Y-108269481D01*
X152780500Y-108080519D01*
X152750940Y-107893882D01*
X152692547Y-107714168D01*
X152651487Y-107633582D01*
X152645006Y-107620862D01*
X152642063Y-107583475D01*
X152666420Y-107554958D01*
X152703807Y-107552015D01*
X152723311Y-107563967D01*
G37*
%TD.AperFunction*%
%TA.AperFunction,Conductor*%
G36*
X169385148Y-101464852D02*
G01*
X169399500Y-101499500D01*
X169399500Y-110250500D01*
X169385148Y-110285148D01*
X169350500Y-110299500D01*
X168451850Y-110299500D01*
X168424627Y-110291242D01*
X168410360Y-110281709D01*
X168331811Y-110229225D01*
X168331809Y-110229224D01*
X168204332Y-110176421D01*
X168204330Y-110176420D01*
X168204329Y-110176420D01*
X168204326Y-110176419D01*
X168204317Y-110176417D01*
X168068999Y-110149500D01*
X168068994Y-110149500D01*
X167931006Y-110149500D01*
X167931002Y-110149500D01*
X167795679Y-110176418D01*
X167795670Y-110176420D01*
X167668192Y-110229223D01*
X167575373Y-110291242D01*
X167548150Y-110299500D01*
X164330252Y-110299500D01*
X164271769Y-110311133D01*
X164205447Y-110355447D01*
X164161134Y-110421768D01*
X164161133Y-110421769D01*
X164149500Y-110480252D01*
X164149500Y-110480255D01*
X164149500Y-110550500D01*
X164135148Y-110585148D01*
X164100500Y-110599500D01*
X159899500Y-110599500D01*
X159864852Y-110585148D01*
X159850500Y-110550500D01*
X159850500Y-110480255D01*
X159850500Y-110480252D01*
X159838867Y-110421769D01*
X159800500Y-110364349D01*
X159794552Y-110355447D01*
X159754795Y-110328882D01*
X159728231Y-110311133D01*
X159669748Y-110299500D01*
X159669745Y-110299500D01*
X158399500Y-110299500D01*
X158364852Y-110285148D01*
X158350500Y-110250500D01*
X158350500Y-109480453D01*
X158364852Y-109445805D01*
X160945805Y-106864852D01*
X160980453Y-106850500D01*
X163065283Y-106850500D01*
X163099931Y-106864852D01*
X163162218Y-106927139D01*
X163326086Y-107036632D01*
X163508165Y-107112051D01*
X163701459Y-107150500D01*
X163839547Y-107150500D01*
X163874195Y-107164852D01*
X165193457Y-108484114D01*
X165308189Y-108560775D01*
X165435671Y-108613580D01*
X165462591Y-108618934D01*
X165571007Y-108640500D01*
X167194572Y-108640500D01*
X167229220Y-108654852D01*
X167330345Y-108755977D01*
X167502402Y-108870941D01*
X167693580Y-108950130D01*
X167896535Y-108990500D01*
X167896538Y-108990500D01*
X168103462Y-108990500D01*
X168103465Y-108990500D01*
X168306420Y-108950130D01*
X168497598Y-108870941D01*
X168669655Y-108755977D01*
X168815977Y-108609655D01*
X168930941Y-108437598D01*
X169010130Y-108246420D01*
X169050500Y-108043465D01*
X169050500Y-107836535D01*
X169010130Y-107633580D01*
X168930941Y-107442402D01*
X168815977Y-107270345D01*
X168669655Y-107124023D01*
X168648657Y-107109993D01*
X168577508Y-107062453D01*
X168497598Y-107009059D01*
X168497596Y-107009058D01*
X168306423Y-106929871D01*
X168306417Y-106929869D01*
X168224572Y-106913589D01*
X168103465Y-106889500D01*
X167896535Y-106889500D01*
X167795520Y-106909592D01*
X167693582Y-106929869D01*
X167693576Y-106929871D01*
X167502403Y-107009058D01*
X167330345Y-107124022D01*
X167229220Y-107225148D01*
X167194572Y-107239500D01*
X165950453Y-107239500D01*
X165915805Y-107225148D01*
X164814852Y-106124195D01*
X164800500Y-106089547D01*
X164800500Y-106051459D01*
X164800499Y-106051455D01*
X164774450Y-105920500D01*
X164762051Y-105858165D01*
X164686632Y-105676086D01*
X164577139Y-105512218D01*
X164437782Y-105372861D01*
X164273914Y-105263368D01*
X164273911Y-105263366D01*
X164273910Y-105263366D01*
X164091836Y-105187949D01*
X164091827Y-105187947D01*
X163898544Y-105149500D01*
X163898541Y-105149500D01*
X163701459Y-105149500D01*
X163701455Y-105149500D01*
X163508172Y-105187947D01*
X163508163Y-105187949D01*
X163326089Y-105263366D01*
X163162218Y-105372860D01*
X163099931Y-105435148D01*
X163065283Y-105449500D01*
X160601002Y-105449500D01*
X160465679Y-105476418D01*
X160465670Y-105476420D01*
X160338192Y-105529223D01*
X160223457Y-105605885D01*
X157105885Y-108723457D01*
X157029223Y-108838192D01*
X156976420Y-108965670D01*
X156976420Y-108965671D01*
X156976420Y-108965672D01*
X156952728Y-109084781D01*
X156949500Y-109101005D01*
X156949500Y-109690547D01*
X156935148Y-109725195D01*
X156900500Y-109739547D01*
X156865852Y-109725195D01*
X152606542Y-105465885D01*
X152523651Y-105410500D01*
X152491811Y-105389225D01*
X152491808Y-105389223D01*
X152491807Y-105389223D01*
X152444842Y-105369770D01*
X152418323Y-105343252D01*
X152418323Y-105305749D01*
X152444841Y-105279230D01*
X152463593Y-105275500D01*
X152764747Y-105275500D01*
X152764748Y-105275500D01*
X152806438Y-105267207D01*
X152843220Y-105274523D01*
X152850646Y-105280617D01*
X153374540Y-105804511D01*
X153430489Y-105860460D01*
X153499011Y-105900021D01*
X153534478Y-105909524D01*
X153575436Y-105920500D01*
X153575438Y-105920500D01*
X157219564Y-105920500D01*
X157246230Y-105913354D01*
X157295989Y-105900021D01*
X157364511Y-105860460D01*
X157420460Y-105804511D01*
X158360119Y-104864852D01*
X158394767Y-104850500D01*
X167005233Y-104850500D01*
X167039881Y-104864852D01*
X167048359Y-104873330D01*
X167062711Y-104907978D01*
X167058981Y-104926729D01*
X166989872Y-105093572D01*
X166989869Y-105093582D01*
X166971322Y-105186827D01*
X166949500Y-105296535D01*
X166949500Y-105503465D01*
X166969873Y-105605886D01*
X166989869Y-105706417D01*
X166989871Y-105706423D01*
X167059312Y-105874067D01*
X167069059Y-105897598D01*
X167184023Y-106069655D01*
X167330345Y-106215977D01*
X167502402Y-106330941D01*
X167693580Y-106410130D01*
X167896535Y-106450500D01*
X167896538Y-106450500D01*
X168103462Y-106450500D01*
X168103465Y-106450500D01*
X168306420Y-106410130D01*
X168497598Y-106330941D01*
X168669655Y-106215977D01*
X168815977Y-106069655D01*
X168930941Y-105897598D01*
X169010130Y-105706420D01*
X169050500Y-105503465D01*
X169050500Y-105296535D01*
X169010130Y-105093580D01*
X168930941Y-104902402D01*
X168815977Y-104730345D01*
X168669655Y-104584023D01*
X168641406Y-104565148D01*
X168567830Y-104515986D01*
X168497598Y-104469059D01*
X168497596Y-104469058D01*
X168306423Y-104389871D01*
X168306417Y-104389869D01*
X168213348Y-104371357D01*
X168103465Y-104349500D01*
X167896535Y-104349500D01*
X167795520Y-104369592D01*
X167693582Y-104389869D01*
X167693572Y-104389872D01*
X167526729Y-104458981D01*
X167489226Y-104458981D01*
X167473330Y-104448359D01*
X167334511Y-104309540D01*
X167333948Y-104309215D01*
X167333948Y-104309214D01*
X167265990Y-104269979D01*
X167189564Y-104249500D01*
X167189562Y-104249500D01*
X158289562Y-104249500D01*
X158210438Y-104249500D01*
X158210435Y-104249500D01*
X158134013Y-104269977D01*
X158134010Y-104269978D01*
X158065488Y-104309540D01*
X158065488Y-104309541D01*
X157069881Y-105305148D01*
X157035233Y-105319500D01*
X154883976Y-105319500D01*
X154849328Y-105305148D01*
X154834976Y-105270500D01*
X154843234Y-105243277D01*
X154890496Y-105172542D01*
X154904999Y-105099629D01*
X154905000Y-105099624D01*
X154905000Y-104700000D01*
X153805000Y-104700000D01*
X153805000Y-105099629D01*
X153819503Y-105172542D01*
X153866766Y-105243277D01*
X153869554Y-105257294D01*
X153875024Y-105270500D01*
X153873102Y-105275137D01*
X153874082Y-105280060D01*
X153866141Y-105291944D01*
X153860672Y-105305148D01*
X153856035Y-105307068D01*
X153853247Y-105311242D01*
X153826024Y-105319500D01*
X153759767Y-105319500D01*
X153725119Y-105305148D01*
X152959852Y-104539881D01*
X152945500Y-104505233D01*
X152945500Y-103805255D01*
X152945500Y-103805252D01*
X152933867Y-103746769D01*
X152907301Y-103707012D01*
X152889552Y-103680447D01*
X152868292Y-103666242D01*
X152847456Y-103635059D01*
X152854773Y-103598277D01*
X152885956Y-103577441D01*
X152895515Y-103576500D01*
X153828697Y-103576500D01*
X153863345Y-103590852D01*
X153877697Y-103625500D01*
X153869439Y-103652723D01*
X153819503Y-103727457D01*
X153805000Y-103800370D01*
X153805000Y-104200000D01*
X154905000Y-104200000D01*
X154905000Y-103911623D01*
X154919352Y-103876975D01*
X154954000Y-103862623D01*
X154988648Y-103876975D01*
X155070552Y-103958879D01*
X155084904Y-103993527D01*
X155084904Y-104243072D01*
X155084903Y-104243072D01*
X155089176Y-104275529D01*
X155091336Y-104291933D01*
X155110237Y-104332465D01*
X155141339Y-104399164D01*
X155141340Y-104399166D01*
X155224997Y-104482823D01*
X155224999Y-104482824D01*
X155225000Y-104482825D01*
X155332231Y-104532828D01*
X155381088Y-104539260D01*
X155381091Y-104539260D01*
X155829716Y-104539260D01*
X155829720Y-104539260D01*
X155878577Y-104532828D01*
X155985808Y-104482825D01*
X156069469Y-104399164D01*
X156119472Y-104291933D01*
X156125904Y-104243076D01*
X156125904Y-103894444D01*
X156119472Y-103845587D01*
X156069469Y-103738356D01*
X156069468Y-103738355D01*
X156069467Y-103738353D01*
X155985810Y-103654696D01*
X155985808Y-103654695D01*
X155946002Y-103636133D01*
X155878577Y-103604692D01*
X155878575Y-103604691D01*
X155875310Y-103603169D01*
X155863976Y-103590801D01*
X155851609Y-103579468D01*
X155851509Y-103577196D01*
X155849973Y-103575519D01*
X155850704Y-103558760D01*
X155849973Y-103542001D01*
X155851509Y-103540323D01*
X155851609Y-103538052D01*
X155875310Y-103514351D01*
X155878575Y-103512828D01*
X155878577Y-103512828D01*
X155985808Y-103462825D01*
X156069469Y-103379164D01*
X156119472Y-103271933D01*
X156125904Y-103223076D01*
X156125904Y-102874444D01*
X156119472Y-102825587D01*
X156069469Y-102718356D01*
X156069468Y-102718355D01*
X156069467Y-102718353D01*
X155985810Y-102634696D01*
X155985808Y-102634695D01*
X155886928Y-102588586D01*
X155878580Y-102584693D01*
X155878578Y-102584692D01*
X155868805Y-102583405D01*
X155829720Y-102578260D01*
X155829716Y-102578260D01*
X155580171Y-102578260D01*
X155545523Y-102563908D01*
X155528202Y-102546587D01*
X162750000Y-102546587D01*
X162750000Y-102753412D01*
X162790349Y-102956271D01*
X162790351Y-102956277D01*
X162869501Y-103147360D01*
X162901378Y-103195067D01*
X163317038Y-102779407D01*
X163334076Y-102842992D01*
X163399902Y-102957006D01*
X163492994Y-103050098D01*
X163607008Y-103115924D01*
X163670591Y-103132961D01*
X163254931Y-103548621D01*
X163302639Y-103580498D01*
X163493722Y-103659648D01*
X163493728Y-103659650D01*
X163696587Y-103700000D01*
X163903413Y-103700000D01*
X164106271Y-103659650D01*
X164106277Y-103659648D01*
X164297358Y-103580499D01*
X164345066Y-103548620D01*
X163929407Y-103132961D01*
X163992992Y-103115924D01*
X164107006Y-103050098D01*
X164200098Y-102957006D01*
X164265924Y-102842992D01*
X164282961Y-102779407D01*
X164698620Y-103195066D01*
X164730500Y-103147356D01*
X164762148Y-103070953D01*
X164762148Y-103070952D01*
X164809648Y-102956277D01*
X164809650Y-102956271D01*
X164850000Y-102753412D01*
X164850000Y-102546587D01*
X164809650Y-102343728D01*
X164809648Y-102343722D01*
X164730498Y-102152639D01*
X164698621Y-102104931D01*
X164282961Y-102520591D01*
X164265924Y-102457008D01*
X164200098Y-102342994D01*
X164107006Y-102249902D01*
X163992992Y-102184076D01*
X163929408Y-102167038D01*
X164111076Y-101985370D01*
X166900000Y-101985370D01*
X166900000Y-102610000D01*
X167566988Y-102610000D01*
X167534075Y-102667007D01*
X167500000Y-102794174D01*
X167500000Y-102925826D01*
X167534075Y-103052993D01*
X167566988Y-103110000D01*
X166900000Y-103110000D01*
X166900000Y-103734629D01*
X166914503Y-103807542D01*
X166969759Y-103890240D01*
X167052457Y-103945496D01*
X167125370Y-103959999D01*
X167125376Y-103960000D01*
X167750000Y-103960000D01*
X167750000Y-103293012D01*
X167807007Y-103325925D01*
X167934174Y-103360000D01*
X168065826Y-103360000D01*
X168192993Y-103325925D01*
X168250000Y-103293012D01*
X168250000Y-103960000D01*
X168874624Y-103960000D01*
X168874629Y-103959999D01*
X168947542Y-103945496D01*
X169030240Y-103890240D01*
X169085496Y-103807542D01*
X169099999Y-103734629D01*
X169100000Y-103734624D01*
X169100000Y-103110000D01*
X168433012Y-103110000D01*
X168465925Y-103052993D01*
X168500000Y-102925826D01*
X168500000Y-102794174D01*
X168465925Y-102667007D01*
X168433012Y-102610000D01*
X169100000Y-102610000D01*
X169100000Y-101985376D01*
X169099999Y-101985370D01*
X169085496Y-101912457D01*
X169030240Y-101829759D01*
X168947542Y-101774503D01*
X168874629Y-101760000D01*
X168250000Y-101760000D01*
X168250000Y-102426988D01*
X168192993Y-102394075D01*
X168065826Y-102360000D01*
X167934174Y-102360000D01*
X167807007Y-102394075D01*
X167750000Y-102426988D01*
X167750000Y-101760000D01*
X167125370Y-101760000D01*
X167052457Y-101774503D01*
X166969759Y-101829759D01*
X166914503Y-101912457D01*
X166900000Y-101985370D01*
X164111076Y-101985370D01*
X164148125Y-101948321D01*
X164345067Y-101751378D01*
X164297360Y-101719501D01*
X164106277Y-101640351D01*
X164106271Y-101640349D01*
X163903413Y-101600000D01*
X163696587Y-101600000D01*
X163493728Y-101640349D01*
X163493722Y-101640351D01*
X163302641Y-101719500D01*
X163254932Y-101751378D01*
X163670592Y-102167038D01*
X163607008Y-102184076D01*
X163492994Y-102249902D01*
X163399902Y-102342994D01*
X163334076Y-102457008D01*
X163317038Y-102520591D01*
X162901379Y-102104932D01*
X162901378Y-102104932D01*
X162869500Y-102152641D01*
X162790351Y-102343722D01*
X162790349Y-102343728D01*
X162750000Y-102546587D01*
X155528202Y-102546587D01*
X155091157Y-102109542D01*
X155091151Y-102109537D01*
X155080366Y-102103311D01*
X155073765Y-102099500D01*
X155022635Y-102069979D01*
X155022631Y-102069978D01*
X154946208Y-102049500D01*
X154946206Y-102049500D01*
X153949500Y-102049500D01*
X153914852Y-102035148D01*
X153900500Y-102000500D01*
X153900500Y-101705255D01*
X153900500Y-101705252D01*
X153888867Y-101646769D01*
X153862301Y-101607012D01*
X153844552Y-101580447D01*
X153784380Y-101540242D01*
X153763545Y-101509059D01*
X153770861Y-101472277D01*
X153802044Y-101451442D01*
X153811603Y-101450500D01*
X169350500Y-101450500D01*
X169385148Y-101464852D01*
G37*
%TD.AperFunction*%
%TA.AperFunction,Conductor*%
G36*
X150633070Y-103533852D02*
G01*
X150647422Y-103568500D01*
X150642443Y-103590021D01*
X150632675Y-103610000D01*
X151747325Y-103610000D01*
X151753846Y-103599553D01*
X151784368Y-103577761D01*
X151795412Y-103576500D01*
X151994485Y-103576500D01*
X152029133Y-103590852D01*
X152043485Y-103625500D01*
X152029133Y-103660148D01*
X152021708Y-103666242D01*
X152000447Y-103680447D01*
X151969037Y-103727457D01*
X151956133Y-103746769D01*
X151944500Y-103805252D01*
X151944500Y-103805255D01*
X151944500Y-104505233D01*
X151930148Y-104539881D01*
X151904881Y-104565148D01*
X151870233Y-104579500D01*
X151699226Y-104579500D01*
X151664578Y-104565148D01*
X151654818Y-104551210D01*
X151654066Y-104549597D01*
X151654064Y-104549595D01*
X151570406Y-104465936D01*
X151536231Y-104450000D01*
X151519008Y-104441968D01*
X151493673Y-104414319D01*
X151495309Y-104376851D01*
X151518198Y-104353539D01*
X151601803Y-104312667D01*
X151601809Y-104312663D01*
X151692663Y-104221809D01*
X151692665Y-104221805D01*
X151747324Y-104110000D01*
X150632676Y-104110000D01*
X150687334Y-104221805D01*
X150687336Y-104221809D01*
X150778190Y-104312663D01*
X150778196Y-104312667D01*
X150861801Y-104353539D01*
X150886626Y-104381650D01*
X150884302Y-104419080D01*
X150860990Y-104441969D01*
X150809593Y-104465936D01*
X150725936Y-104549593D01*
X150725935Y-104549595D01*
X150675933Y-104656824D01*
X150675932Y-104656825D01*
X150675932Y-104656827D01*
X150670249Y-104700000D01*
X150669500Y-104705687D01*
X150669500Y-105054312D01*
X150669499Y-105054312D01*
X150674669Y-105093580D01*
X150675932Y-105103173D01*
X150697535Y-105149500D01*
X150725935Y-105210404D01*
X150725936Y-105210406D01*
X150741382Y-105225852D01*
X150755734Y-105260500D01*
X150741382Y-105295148D01*
X150706734Y-105309500D01*
X149549500Y-105309500D01*
X149514852Y-105295148D01*
X149500500Y-105260500D01*
X149500500Y-103568500D01*
X149514852Y-103533852D01*
X149549500Y-103519500D01*
X150309438Y-103519500D01*
X150500438Y-103519500D01*
X150598422Y-103519500D01*
X150633070Y-103533852D01*
G37*
%TD.AperFunction*%
%TD*%
M02*
