%TF.GenerationSoftware,KiCad,Pcbnew,9.0.2*%
%TF.CreationDate,2025-07-09T21:54:35+02:00*%
%TF.ProjectId,drone_controller,64726f6e-655f-4636-9f6e-74726f6c6c65,rev?*%
%TF.SameCoordinates,Original*%
%TF.FileFunction,Paste,Top*%
%TF.FilePolarity,Positive*%
%FSLAX46Y46*%
G04 Gerber Fmt 4.6, Leading zero omitted, Abs format (unit mm)*
G04 Created by KiCad (PCBNEW 9.0.2) date 2025-07-09 21:54:35*
%MOMM*%
%LPD*%
G01*
G04 APERTURE LIST*
G04 Aperture macros list*
%AMRoundRect*
0 Rectangle with rounded corners*
0 $1 Rounding radius*
0 $2 $3 $4 $5 $6 $7 $8 $9 X,Y pos of 4 corners*
0 Add a 4 corners polygon primitive as box body*
4,1,4,$2,$3,$4,$5,$6,$7,$8,$9,$2,$3,0*
0 Add four circle primitives for the rounded corners*
1,1,$1+$1,$2,$3*
1,1,$1+$1,$4,$5*
1,1,$1+$1,$6,$7*
1,1,$1+$1,$8,$9*
0 Add four rect primitives between the rounded corners*
20,1,$1+$1,$2,$3,$4,$5,0*
20,1,$1+$1,$4,$5,$6,$7,0*
20,1,$1+$1,$6,$7,$8,$9,0*
20,1,$1+$1,$8,$9,$2,$3,0*%
%AMFreePoly0*
4,1,6,0.325000,0.000000,0.325000,-0.150000,-0.175000,-0.150000,-0.175000,0.150000,0.175000,0.150000,0.325000,0.000000,0.325000,0.000000,$1*%
%AMFreePoly1*
4,1,6,0.325000,0.000000,0.175000,-0.150000,-0.175000,-0.150000,-0.175000,0.150000,0.325000,0.150000,0.325000,0.000000,0.325000,0.000000,$1*%
%AMFreePoly2*
4,1,6,0.150000,-0.175000,-0.150000,-0.175000,-0.150000,0.175000,0.000000,0.325000,0.150000,0.325000,0.150000,-0.175000,0.150000,-0.175000,$1*%
%AMFreePoly3*
4,1,6,0.150000,0.175000,0.150000,-0.175000,-0.150000,-0.175000,-0.150000,0.325000,0.000000,0.325000,0.150000,0.175000,0.150000,0.175000,$1*%
%AMFreePoly4*
4,1,6,0.175000,-0.150000,-0.175000,-0.150000,-0.325000,0.000000,-0.325000,0.150000,0.175000,0.150000,0.175000,-0.150000,0.175000,-0.150000,$1*%
%AMFreePoly5*
4,1,7,0.175000,-0.150000,-0.175000,-0.150000,-0.325000,-0.150000,-0.325000,0.000000,-0.175000,0.150000,0.175000,0.150000,0.175000,-0.150000,0.175000,-0.150000,$1*%
%AMFreePoly6*
4,1,6,0.150000,-0.175000,0.000000,-0.325000,-0.150000,-0.325000,-0.150000,0.175000,0.150000,0.175000,0.150000,-0.175000,0.150000,-0.175000,$1*%
%AMFreePoly7*
4,1,6,0.150000,-0.325000,0.000000,-0.325000,-0.150000,-0.175000,-0.150000,0.175000,0.150000,0.175000,0.150000,-0.325000,0.150000,-0.325000,$1*%
%AMFreePoly8*
4,1,37,-1.574645,2.715355,-1.560000,2.680000,-1.560000,1.930000,-0.990000,1.930000,-0.990000,2.680000,-0.975355,2.715355,-0.940000,2.730000,-0.340000,2.730000,-0.304645,2.715355,-0.290000,2.680000,-0.290000,1.930000,0.280000,1.930000,0.280000,2.680000,0.294645,2.715355,0.330000,2.730000,0.930000,2.730000,0.965355,2.715355,0.980000,2.680000,0.980000,1.930000,1.550000,1.930000,
1.550000,2.680000,1.564645,2.715355,1.600000,2.730000,2.200000,2.730000,2.235355,2.715355,2.250000,2.680000,2.250000,-1.870000,2.235355,-1.905355,2.200000,-1.920000,-2.210000,-1.920000,-2.245355,-1.905355,-2.260000,-1.870000,-2.260000,2.680000,-2.245355,2.715355,-2.210000,2.730000,-1.610000,2.730000,-1.574645,2.715355,-1.574645,2.715355,$1*%
G04 Aperture macros list end*
%ADD10R,1.250000X0.600000*%
%ADD11R,2.500000X1.200000*%
%ADD12R,1.300000X1.400000*%
%ADD13R,1.425000X0.950000*%
%ADD14R,1.425000X0.880000*%
%ADD15R,1.450000X0.930000*%
%ADD16RoundRect,0.079500X0.079500X0.100500X-0.079500X0.100500X-0.079500X-0.100500X0.079500X-0.100500X0*%
%ADD17RoundRect,0.079500X0.100500X-0.079500X0.100500X0.079500X-0.100500X0.079500X-0.100500X-0.079500X0*%
%ADD18RoundRect,0.225000X0.250000X-0.225000X0.250000X0.225000X-0.250000X0.225000X-0.250000X-0.225000X0*%
%ADD19R,1.070000X0.600000*%
%ADD20RoundRect,0.079500X-0.100500X0.079500X-0.100500X-0.079500X0.100500X-0.079500X0.100500X0.079500X0*%
%ADD21FreePoly0,180.000000*%
%ADD22R,0.700000X0.300000*%
%ADD23FreePoly1,180.000000*%
%ADD24FreePoly2,180.000000*%
%ADD25R,0.300000X0.700000*%
%ADD26FreePoly3,180.000000*%
%ADD27FreePoly4,180.000000*%
%ADD28FreePoly5,180.000000*%
%ADD29FreePoly6,180.000000*%
%ADD30FreePoly7,180.000000*%
%ADD31RoundRect,0.079500X-0.079500X-0.100500X0.079500X-0.100500X0.079500X0.100500X-0.079500X0.100500X0*%
%ADD32RoundRect,0.140000X0.170000X-0.140000X0.170000X0.140000X-0.170000X0.140000X-0.170000X-0.140000X0*%
%ADD33R,0.900000X0.500000*%
%ADD34FreePoly8,90.000000*%
G04 APERTURE END LIST*
D10*
%TO.C,Q3*%
X141615000Y-106855000D03*
X141615000Y-104945000D03*
X139515000Y-105900000D03*
%TD*%
D11*
%TO.C,C4*%
X164945000Y-103850000D03*
X164950000Y-106750000D03*
%TD*%
D12*
%TO.C,LED1*%
X157900000Y-105375000D03*
X157900000Y-108525000D03*
X162300000Y-108525000D03*
X162300000Y-105375000D03*
%TD*%
D11*
%TO.C,C6*%
X167895000Y-103850000D03*
X167900000Y-106750000D03*
%TD*%
D13*
%TO.C,BUZZER1*%
X158260000Y-114075000D03*
D14*
X162235000Y-114110000D03*
D15*
X158272500Y-110765000D03*
%TD*%
D10*
%TO.C,Q2*%
X137765000Y-107095000D03*
X137765000Y-109005000D03*
X139865000Y-108050000D03*
%TD*%
D11*
%TO.C,C7*%
X164955000Y-111100000D03*
X164950000Y-108200000D03*
%TD*%
D16*
%TO.C,R9*%
X144285000Y-106350000D03*
X143595000Y-106350000D03*
%TD*%
%TO.C,R5*%
X152670000Y-104480000D03*
X151980000Y-104480000D03*
%TD*%
D11*
%TO.C,C9*%
X164945000Y-112550000D03*
X164950000Y-115450000D03*
%TD*%
D17*
%TO.C,R6*%
X143010000Y-105305000D03*
X143010000Y-104615000D03*
%TD*%
D18*
%TO.C,C2*%
X151920000Y-107155000D03*
X151920000Y-105605000D03*
%TD*%
D19*
%TO.C,U4*%
X155990000Y-106650000D03*
X155990000Y-104750000D03*
X153510000Y-105700000D03*
%TD*%
D20*
%TO.C,R10*%
X145210000Y-104485000D03*
X145210000Y-105175000D03*
%TD*%
D21*
%TO.C,U3*%
X149367499Y-106837500D03*
D22*
X149192499Y-106337500D03*
X149192499Y-105837501D03*
X149192499Y-105337500D03*
D23*
X149367499Y-104837500D03*
D24*
X148892499Y-104362500D03*
D25*
X148392499Y-104537500D03*
X147892500Y-104537500D03*
X147392499Y-104537500D03*
D26*
X146892499Y-104362500D03*
D27*
X146417499Y-104837500D03*
D22*
X146592499Y-105337500D03*
X146592499Y-105837499D03*
X146592499Y-106337500D03*
D28*
X146417499Y-106837500D03*
D29*
X146892499Y-107312500D03*
D25*
X147392499Y-107137500D03*
X147892498Y-107137500D03*
X148392499Y-107137500D03*
D30*
X148892499Y-107312500D03*
%TD*%
D31*
%TO.C,R4*%
X143785000Y-104440000D03*
X144475000Y-104440000D03*
%TD*%
%TO.C,R2*%
X141355000Y-108500000D03*
X142045000Y-108500000D03*
%TD*%
D32*
%TO.C,C3*%
X150640000Y-106270000D03*
X150640000Y-105310000D03*
%TD*%
D11*
%TO.C,C5*%
X167895000Y-112550000D03*
X167900000Y-115450000D03*
%TD*%
D20*
%TO.C,R1*%
X143100000Y-108405000D03*
X143100000Y-109095000D03*
%TD*%
D16*
%TO.C,R7*%
X151220000Y-104480000D03*
X150530000Y-104480000D03*
%TD*%
D31*
%TO.C,R11*%
X143600000Y-107090000D03*
X144290000Y-107090000D03*
%TD*%
D33*
%TO.C,Q1*%
X142715000Y-114300000D03*
X142715000Y-113030000D03*
X142715000Y-111760000D03*
X142715000Y-110490000D03*
D34*
X139165000Y-112400000D03*
%TD*%
D16*
%TO.C,R8*%
X144485000Y-105180000D03*
X143795000Y-105180000D03*
%TD*%
D31*
%TO.C,R3*%
X141355000Y-109200000D03*
X142045000Y-109200000D03*
%TD*%
D11*
%TO.C,C8*%
X167905000Y-111100000D03*
X167900000Y-108200000D03*
%TD*%
M02*
