%TF.GenerationSoftware,KiCad,Pcbnew,9.0.2*%
%TF.CreationDate,2025-07-09T21:54:35+02:00*%
%TF.ProjectId,drone_controller,64726f6e-655f-4636-9f6e-74726f6c6c65,rev?*%
%TF.SameCoordinates,Original*%
%TF.FileFunction,Copper,L1,Top*%
%TF.FilePolarity,Positive*%
%FSLAX46Y46*%
G04 Gerber Fmt 4.6, Leading zero omitted, Abs format (unit mm)*
G04 Created by KiCad (PCBNEW 9.0.2) date 2025-07-09 21:54:35*
%MOMM*%
%LPD*%
G01*
G04 APERTURE LIST*
G04 Aperture macros list*
%AMRoundRect*
0 Rectangle with rounded corners*
0 $1 Rounding radius*
0 $2 $3 $4 $5 $6 $7 $8 $9 X,Y pos of 4 corners*
0 Add a 4 corners polygon primitive as box body*
4,1,4,$2,$3,$4,$5,$6,$7,$8,$9,$2,$3,0*
0 Add four circle primitives for the rounded corners*
1,1,$1+$1,$2,$3*
1,1,$1+$1,$4,$5*
1,1,$1+$1,$6,$7*
1,1,$1+$1,$8,$9*
0 Add four rect primitives between the rounded corners*
20,1,$1+$1,$2,$3,$4,$5,0*
20,1,$1+$1,$4,$5,$6,$7,0*
20,1,$1+$1,$6,$7,$8,$9,0*
20,1,$1+$1,$8,$9,$2,$3,0*%
%AMFreePoly0*
4,1,6,0.325000,0.000000,0.325000,-0.150000,-0.175000,-0.150000,-0.175000,0.150000,0.175000,0.150000,0.325000,0.000000,0.325000,0.000000,$1*%
%AMFreePoly1*
4,1,6,0.325000,0.000000,0.175000,-0.150000,-0.175000,-0.150000,-0.175000,0.150000,0.325000,0.150000,0.325000,0.000000,0.325000,0.000000,$1*%
%AMFreePoly2*
4,1,6,0.150000,-0.175000,-0.150000,-0.175000,-0.150000,0.175000,0.000000,0.325000,0.150000,0.325000,0.150000,-0.175000,0.150000,-0.175000,$1*%
%AMFreePoly3*
4,1,6,0.150000,0.175000,0.150000,-0.175000,-0.150000,-0.175000,-0.150000,0.325000,0.000000,0.325000,0.150000,0.175000,0.150000,0.175000,$1*%
%AMFreePoly4*
4,1,6,0.175000,-0.150000,-0.175000,-0.150000,-0.325000,0.000000,-0.325000,0.150000,0.175000,0.150000,0.175000,-0.150000,0.175000,-0.150000,$1*%
%AMFreePoly5*
4,1,7,0.175000,-0.150000,-0.175000,-0.150000,-0.325000,-0.150000,-0.325000,0.000000,-0.175000,0.150000,0.175000,0.150000,0.175000,-0.150000,0.175000,-0.150000,$1*%
%AMFreePoly6*
4,1,6,0.150000,-0.175000,0.000000,-0.325000,-0.150000,-0.325000,-0.150000,0.175000,0.150000,0.175000,0.150000,-0.175000,0.150000,-0.175000,$1*%
%AMFreePoly7*
4,1,6,0.150000,-0.325000,0.000000,-0.325000,-0.150000,-0.175000,-0.150000,0.175000,0.150000,0.175000,0.150000,-0.325000,0.150000,-0.325000,$1*%
%AMFreePoly8*
4,1,37,-1.574645,2.715355,-1.560000,2.680000,-1.560000,1.930000,-0.990000,1.930000,-0.990000,2.680000,-0.975355,2.715355,-0.940000,2.730000,-0.340000,2.730000,-0.304645,2.715355,-0.290000,2.680000,-0.290000,1.930000,0.280000,1.930000,0.280000,2.680000,0.294645,2.715355,0.330000,2.730000,0.930000,2.730000,0.965355,2.715355,0.980000,2.680000,0.980000,1.930000,1.550000,1.930000,
1.550000,2.680000,1.564645,2.715355,1.600000,2.730000,2.200000,2.730000,2.235355,2.715355,2.250000,2.680000,2.250000,-1.870000,2.235355,-1.905355,2.200000,-1.920000,-2.210000,-1.920000,-2.245355,-1.905355,-2.260000,-1.870000,-2.260000,2.680000,-2.245355,2.715355,-2.210000,2.730000,-1.610000,2.730000,-1.574645,2.715355,-1.574645,2.715355,$1*%
G04 Aperture macros list end*
%TA.AperFunction,ComponentPad*%
%ADD10R,2.100000X2.100000*%
%TD*%
%TA.AperFunction,ComponentPad*%
%ADD11C,2.100000*%
%TD*%
%TA.AperFunction,SMDPad,CuDef*%
%ADD12R,1.250000X0.600000*%
%TD*%
%TA.AperFunction,SMDPad,CuDef*%
%ADD13R,2.500000X1.200000*%
%TD*%
%TA.AperFunction,SMDPad,CuDef*%
%ADD14R,1.300000X1.400000*%
%TD*%
%TA.AperFunction,ComponentPad*%
%ADD15R,1.700000X1.700000*%
%TD*%
%TA.AperFunction,ComponentPad*%
%ADD16C,1.700000*%
%TD*%
%TA.AperFunction,SMDPad,CuDef*%
%ADD17R,1.425000X0.950000*%
%TD*%
%TA.AperFunction,SMDPad,CuDef*%
%ADD18R,1.425000X0.880000*%
%TD*%
%TA.AperFunction,SMDPad,CuDef*%
%ADD19R,1.450000X0.930000*%
%TD*%
%TA.AperFunction,SMDPad,CuDef*%
%ADD20RoundRect,0.100000X0.130000X0.100000X-0.130000X0.100000X-0.130000X-0.100000X0.130000X-0.100000X0*%
%TD*%
%TA.AperFunction,SMDPad,CuDef*%
%ADD21RoundRect,0.100000X0.100000X-0.130000X0.100000X0.130000X-0.100000X0.130000X-0.100000X-0.130000X0*%
%TD*%
%TA.AperFunction,SMDPad,CuDef*%
%ADD22RoundRect,0.225000X0.250000X-0.225000X0.250000X0.225000X-0.250000X0.225000X-0.250000X-0.225000X0*%
%TD*%
%TA.AperFunction,SMDPad,CuDef*%
%ADD23R,1.070000X0.600000*%
%TD*%
%TA.AperFunction,ComponentPad*%
%ADD24C,2.000000*%
%TD*%
%TA.AperFunction,SMDPad,CuDef*%
%ADD25RoundRect,0.100000X-0.100000X0.130000X-0.100000X-0.130000X0.100000X-0.130000X0.100000X0.130000X0*%
%TD*%
%TA.AperFunction,SMDPad,CuDef*%
%ADD26FreePoly0,180.000000*%
%TD*%
%TA.AperFunction,SMDPad,CuDef*%
%ADD27R,0.700000X0.300000*%
%TD*%
%TA.AperFunction,SMDPad,CuDef*%
%ADD28FreePoly1,180.000000*%
%TD*%
%TA.AperFunction,SMDPad,CuDef*%
%ADD29FreePoly2,180.000000*%
%TD*%
%TA.AperFunction,SMDPad,CuDef*%
%ADD30R,0.300000X0.700000*%
%TD*%
%TA.AperFunction,SMDPad,CuDef*%
%ADD31FreePoly3,180.000000*%
%TD*%
%TA.AperFunction,SMDPad,CuDef*%
%ADD32FreePoly4,180.000000*%
%TD*%
%TA.AperFunction,SMDPad,CuDef*%
%ADD33FreePoly5,180.000000*%
%TD*%
%TA.AperFunction,SMDPad,CuDef*%
%ADD34FreePoly6,180.000000*%
%TD*%
%TA.AperFunction,SMDPad,CuDef*%
%ADD35FreePoly7,180.000000*%
%TD*%
%TA.AperFunction,SMDPad,CuDef*%
%ADD36RoundRect,0.100000X-0.130000X-0.100000X0.130000X-0.100000X0.130000X0.100000X-0.130000X0.100000X0*%
%TD*%
%TA.AperFunction,SMDPad,CuDef*%
%ADD37RoundRect,0.140000X0.170000X-0.140000X0.170000X0.140000X-0.170000X0.140000X-0.170000X-0.140000X0*%
%TD*%
%TA.AperFunction,SMDPad,CuDef*%
%ADD38R,0.900000X0.500000*%
%TD*%
%TA.AperFunction,SMDPad,CuDef*%
%ADD39FreePoly8,90.000000*%
%TD*%
%TA.AperFunction,ViaPad*%
%ADD40C,0.450000*%
%TD*%
%TA.AperFunction,ViaPad*%
%ADD41C,0.900000*%
%TD*%
%TA.AperFunction,Conductor*%
%ADD42C,0.200000*%
%TD*%
%TA.AperFunction,Conductor*%
%ADD43C,0.100000*%
%TD*%
%TA.AperFunction,Conductor*%
%ADD44C,0.127000*%
%TD*%
%TA.AperFunction,Conductor*%
%ADD45C,0.600000*%
%TD*%
G04 APERTURE END LIST*
D10*
%TO.P,J4,1,1*%
%TO.N,/DET_OUT+*%
X126700000Y-107100000D03*
D11*
%TO.P,J4,2,2*%
%TO.N,GND*%
X126700000Y-112100000D03*
%TD*%
D12*
%TO.P,Q3,1,G*%
%TO.N,/BUZZER*%
X141615000Y-106855000D03*
%TO.P,Q3,2,S*%
%TO.N,GND*%
X141615000Y-104945000D03*
%TO.P,Q3,3,D*%
%TO.N,Net-(BUZZER1--)*%
X139515000Y-105900000D03*
%TD*%
D13*
%TO.P,C4,1*%
%TO.N,/3V3*%
X164945000Y-103850000D03*
%TO.P,C4,2*%
%TO.N,GND*%
X164950000Y-106750000D03*
%TD*%
D14*
%TO.P,LED1,1,VDD*%
%TO.N,/5V0*%
X157900000Y-105375000D03*
%TO.P,LED1,2,DOU*%
%TO.N,unconnected-(LED1-DOU-Pad2)*%
X157900000Y-108525000D03*
%TO.P,LED1,3,GND*%
%TO.N,GND*%
X162300000Y-108525000D03*
%TO.P,LED1,4,DIN*%
%TO.N,/RGB_LED*%
X162300000Y-105375000D03*
%TD*%
D13*
%TO.P,C6,1*%
%TO.N,/5V0*%
X167895000Y-103850000D03*
%TO.P,C6,2*%
%TO.N,GND*%
X167900000Y-106750000D03*
%TD*%
D15*
%TO.P,J1,1,Pin_1*%
%TO.N,GND*%
X176000000Y-112160000D03*
D16*
%TO.P,J1,2,Pin_2*%
%TO.N,/IN1*%
X176000000Y-109620000D03*
%TO.P,J1,3,Pin_3*%
%TO.N,/5V0*%
X176000000Y-107080000D03*
%TD*%
D17*
%TO.P,BUZZER1,1,+*%
%TO.N,/3V3*%
X158260000Y-114075000D03*
D18*
%TO.P,BUZZER1,2,-*%
%TO.N,Net-(BUZZER1--)*%
X162235000Y-114110000D03*
D19*
%TO.P,BUZZER1,3,3*%
%TO.N,unconnected-(BUZZER1-Pad3)*%
X158272500Y-110765000D03*
%TD*%
D12*
%TO.P,Q2,1,G*%
%TO.N,/TRIGGER*%
X137765000Y-107095000D03*
%TO.P,Q2,2,S*%
%TO.N,GND*%
X137765000Y-109005000D03*
%TO.P,Q2,3,D*%
%TO.N,Net-(Q1-G)*%
X139865000Y-108050000D03*
%TD*%
D13*
%TO.P,C7,1*%
%TO.N,/5V0*%
X164955000Y-111100000D03*
%TO.P,C7,2*%
%TO.N,GND*%
X164950000Y-108200000D03*
%TD*%
D20*
%TO.P,R9,1*%
%TO.N,/FET_5V0_SENSE*%
X144260000Y-106350000D03*
%TO.P,R9,2*%
%TO.N,GND*%
X143620000Y-106350000D03*
%TD*%
D10*
%TO.P,J3,1,1*%
%TO.N,/IN2*%
X179500000Y-112120000D03*
D11*
%TO.P,J3,2,2*%
%TO.N,/5V0*%
X179500000Y-107120000D03*
%TD*%
D20*
%TO.P,R5,1*%
%TO.N,/IN1*%
X152645000Y-104480000D03*
%TO.P,R5,2*%
%TO.N,/IN1_SENSE*%
X152005000Y-104480000D03*
%TD*%
D13*
%TO.P,C9,1*%
%TO.N,/5V0*%
X164945000Y-112550000D03*
%TO.P,C9,2*%
%TO.N,GND*%
X164950000Y-115450000D03*
%TD*%
D21*
%TO.P,R6,1*%
%TO.N,/BUZZER*%
X143010000Y-105280000D03*
%TO.P,R6,2*%
%TO.N,GND*%
X143010000Y-104640000D03*
%TD*%
D22*
%TO.P,C2,1*%
%TO.N,/3V3*%
X151920000Y-107155000D03*
%TO.P,C2,2*%
%TO.N,GND*%
X151920000Y-105605000D03*
%TD*%
D23*
%TO.P,U4,1,GND*%
%TO.N,GND*%
X155990000Y-106650000D03*
%TO.P,U4,2,Vin*%
%TO.N,/5V0*%
X155990000Y-104750000D03*
%TO.P,U4,3,Vout*%
%TO.N,/3V3*%
X153510000Y-105700000D03*
%TD*%
D24*
%TO.P,SW1,1,B*%
%TO.N,/FET_5V0*%
X145270000Y-108475000D03*
%TO.P,SW1,2,A*%
%TO.N,/5V0*%
X155430000Y-108475000D03*
%TO.P,SW1,3,C*%
%TO.N,GND*%
X150350000Y-108475000D03*
%TD*%
D25*
%TO.P,R10,1*%
%TO.N,/IN2*%
X145210000Y-104510000D03*
%TO.P,R10,2*%
%TO.N,/IN2_SENSE*%
X145210000Y-105150000D03*
%TD*%
D26*
%TO.P,U3,1,PC15*%
%TO.N,/RGB_LED*%
X149367499Y-106837500D03*
D27*
%TO.P,U3,2,VDD*%
%TO.N,/3V3*%
X149192499Y-106337500D03*
%TO.P,U3,3,VSS*%
%TO.N,GND*%
X149192499Y-105837501D03*
%TO.P,U3,4,PF2*%
%TO.N,/NRST*%
X149192499Y-105337500D03*
D28*
%TO.P,U3,5,PA0*%
%TO.N,unconnected-(U3-PA0-Pad5)*%
X149367499Y-104837500D03*
D29*
%TO.P,U3,6,PA1*%
%TO.N,/IN1_SENSE*%
X148892499Y-104362500D03*
D30*
%TO.P,U3,7,PA2*%
%TO.N,unconnected-(U3-PA2-Pad7)*%
X148392499Y-104537500D03*
%TO.P,U3,8,PA3*%
%TO.N,unconnected-(U3-PA3-Pad8)*%
X147892500Y-104537500D03*
%TO.P,U3,9,PA4*%
%TO.N,unconnected-(U3-PA4-Pad9)*%
X147392499Y-104537500D03*
D31*
%TO.P,U3,10,PA5*%
%TO.N,unconnected-(U3-PA5-Pad10)*%
X146892499Y-104362500D03*
D32*
%TO.P,U3,11,PA6*%
%TO.N,unconnected-(U3-PA6-Pad11)*%
X146417499Y-104837500D03*
D27*
%TO.P,U3,12,PA7*%
%TO.N,/IN2_SENSE*%
X146592499Y-105337500D03*
%TO.P,U3,13,PA8*%
%TO.N,/BUZZER*%
X146592499Y-105837499D03*
%TO.P,U3,14,PA9/PA11*%
%TO.N,/TRIGGER*%
X146592499Y-106337500D03*
D33*
%TO.P,U3,15,PA10/PA12*%
%TO.N,/FET_5V0_SENSE*%
X146417499Y-106837500D03*
D34*
%TO.P,U3,16,PA13*%
%TO.N,/SWDIO*%
X146892499Y-107312500D03*
D30*
%TO.P,U3,17,PA14*%
%TO.N,/SWCLK*%
X147392499Y-107137500D03*
%TO.P,U3,18,PB6*%
%TO.N,unconnected-(U3-PB6-Pad18)*%
X147892498Y-107137500D03*
%TO.P,U3,19,PB7*%
%TO.N,unconnected-(U3-PB7-Pad19)*%
X148392499Y-107137500D03*
D35*
%TO.P,U3,20,PC14*%
%TO.N,unconnected-(U3-PC14-Pad20)*%
X148892499Y-107312500D03*
%TD*%
D36*
%TO.P,R4,1*%
%TO.N,/3V3*%
X143810000Y-104440000D03*
%TO.P,R4,2*%
%TO.N,Net-(BUZZER1--)*%
X144450000Y-104440000D03*
%TD*%
%TO.P,R2,1*%
%TO.N,/TRIGGER*%
X141380000Y-108500000D03*
%TO.P,R2,2*%
%TO.N,GND*%
X142020000Y-108500000D03*
%TD*%
D37*
%TO.P,C3,1*%
%TO.N,/3V3*%
X150640000Y-106270000D03*
%TO.P,C3,2*%
%TO.N,GND*%
X150640000Y-105310000D03*
%TD*%
D13*
%TO.P,C5,1*%
%TO.N,/5V0*%
X167895000Y-112550000D03*
%TO.P,C5,2*%
%TO.N,GND*%
X167900000Y-115450000D03*
%TD*%
D25*
%TO.P,R1,1*%
%TO.N,Net-(Q1-G)*%
X143100000Y-108430000D03*
%TO.P,R1,2*%
%TO.N,/FET_5V0*%
X143100000Y-109070000D03*
%TD*%
D20*
%TO.P,R7,1*%
%TO.N,/IN1_SENSE*%
X151195000Y-104480000D03*
%TO.P,R7,2*%
%TO.N,GND*%
X150555000Y-104480000D03*
%TD*%
D36*
%TO.P,R11,1*%
%TO.N,/FET_5V0*%
X143625000Y-107090000D03*
%TO.P,R11,2*%
%TO.N,/FET_5V0_SENSE*%
X144265000Y-107090000D03*
%TD*%
D38*
%TO.P,Q1,1,S*%
%TO.N,/FET_5V0*%
X142715000Y-114300000D03*
%TO.P,Q1,2,S*%
X142715000Y-113030000D03*
%TO.P,Q1,3,S*%
X142715000Y-111760000D03*
%TO.P,Q1,4,G*%
%TO.N,Net-(Q1-G)*%
X142715000Y-110490000D03*
D39*
%TO.P,Q1,5,D*%
%TO.N,/DET_OUT+*%
X139165000Y-112400000D03*
%TD*%
D20*
%TO.P,R8,1*%
%TO.N,/IN2_SENSE*%
X144460000Y-105180000D03*
%TO.P,R8,2*%
%TO.N,GND*%
X143820000Y-105180000D03*
%TD*%
D36*
%TO.P,R3,1*%
%TO.N,/DET_OUT+*%
X141380000Y-109200000D03*
%TO.P,R3,2*%
%TO.N,GND*%
X142020000Y-109200000D03*
%TD*%
D13*
%TO.P,C8,1*%
%TO.N,/5V0*%
X167905000Y-111100000D03*
%TO.P,C8,2*%
%TO.N,GND*%
X167900000Y-108200000D03*
%TD*%
D40*
%TO.N,GND*%
X158100000Y-106700000D03*
X141700000Y-105800000D03*
D41*
X170000000Y-115700000D03*
D40*
X154100000Y-104100000D03*
D41*
X170000000Y-109000000D03*
D40*
X154200000Y-106700000D03*
D41*
X170000000Y-107900000D03*
X170000000Y-110200000D03*
D40*
X136500000Y-108000000D03*
X143700000Y-109800000D03*
X143000000Y-107600000D03*
D41*
X170000000Y-114400000D03*
D40*
%TO.N,Net-(BUZZER1--)*%
X139400000Y-105000000D03*
X144520000Y-103810000D03*
X161100000Y-114100000D03*
%TO.N,/3V3*%
X139400000Y-103900000D03*
X160400000Y-113300000D03*
X160000000Y-104770000D03*
D41*
%TO.N,/5V0*%
X156200000Y-110800000D03*
X154900000Y-110800000D03*
X171500000Y-111600000D03*
X170500000Y-112700000D03*
D40*
%TO.N,/NRST*%
X149870000Y-104400000D03*
%TO.N,/SWDIO*%
X147240000Y-109630000D03*
%TO.N,/SWCLK*%
X147640000Y-108590000D03*
%TD*%
D42*
%TO.N,GND*%
X148087501Y-105837501D02*
X148075000Y-105825000D01*
X149192499Y-105837501D02*
X148087501Y-105837501D01*
X142020000Y-109620000D02*
X142025000Y-109625000D01*
X142020000Y-109200000D02*
X142020000Y-109620000D01*
X149192499Y-105837501D02*
X150112499Y-105837501D01*
X143820000Y-105180000D02*
X143750130Y-105180000D01*
X150112499Y-105837501D02*
X150640000Y-105310000D01*
X150640000Y-105310000D02*
X151625000Y-105310000D01*
X154100000Y-104100000D02*
X153219000Y-104981000D01*
X141920000Y-104640000D02*
X141615000Y-104945000D01*
X152544000Y-104981000D02*
X153219000Y-104981000D01*
X143210130Y-104640000D02*
X143010000Y-104640000D01*
X143390001Y-106350000D02*
X143620000Y-106350000D01*
X143010000Y-104640000D02*
X141920000Y-104640000D01*
X142900000Y-107500000D02*
X142900000Y-106840001D01*
X143000000Y-107600000D02*
X142900000Y-107500000D01*
X150555000Y-104480000D02*
X150555000Y-105225000D01*
X142020000Y-109200000D02*
X142020000Y-108500000D01*
X142900000Y-106840001D02*
X143390001Y-106350000D01*
X143750130Y-105180000D02*
X143210130Y-104640000D01*
X151920000Y-105605000D02*
X152544000Y-104981000D01*
X150555000Y-105225000D02*
X150640000Y-105310000D01*
X151625000Y-105310000D02*
X151920000Y-105605000D01*
D43*
%TO.N,/TRIGGER*%
X145259000Y-105899000D02*
X143041000Y-105899000D01*
D44*
X141380000Y-108500000D02*
X141130000Y-108750000D01*
D43*
X142500000Y-107300000D02*
X142301000Y-107499000D01*
X145697500Y-106337500D02*
X145259000Y-105899000D01*
D44*
X139111000Y-108750000D02*
X137765000Y-107404000D01*
D43*
X139475000Y-107095000D02*
X137765000Y-107095000D01*
X142500000Y-106440000D02*
X142500000Y-107300000D01*
X142301000Y-107499000D02*
X139879000Y-107499000D01*
D44*
X137765000Y-107404000D02*
X137765000Y-107095000D01*
X141130000Y-108750000D02*
X139111000Y-108750000D01*
D43*
X143041000Y-105899000D02*
X142500000Y-106440000D01*
X146592499Y-106337500D02*
X145697500Y-106337500D01*
X139879000Y-107499000D02*
X139475000Y-107095000D01*
D42*
%TO.N,Net-(BUZZER1--)*%
X161280000Y-114100000D02*
X161290000Y-114110000D01*
X161100000Y-114100000D02*
X161280000Y-114100000D01*
X139400000Y-105785000D02*
X139515000Y-105900000D01*
X161290000Y-114110000D02*
X162235000Y-114110000D01*
X144520000Y-103810000D02*
X144520000Y-104370000D01*
X144520000Y-104370000D02*
X144450000Y-104440000D01*
X139400000Y-105000000D02*
X139400000Y-105785000D01*
%TO.N,/3V3*%
X160000000Y-104770000D02*
X160920000Y-103850000D01*
X150572500Y-106337500D02*
X150640000Y-106270000D01*
X143200000Y-103400000D02*
X143810000Y-104010000D01*
X139400000Y-103900000D02*
X139900000Y-103400000D01*
X161490000Y-103850000D02*
X164945000Y-103850000D01*
X150640000Y-106270000D02*
X151035000Y-106270000D01*
X152055000Y-107155000D02*
X153510000Y-105700000D01*
X153510000Y-105700000D02*
X155360000Y-103850000D01*
X143810000Y-104010000D02*
X143810000Y-104440000D01*
X160400000Y-113300000D02*
X159625000Y-114075000D01*
X151920000Y-107155000D02*
X152055000Y-107155000D01*
X159625000Y-114075000D02*
X158260000Y-114075000D01*
X139900000Y-103400000D02*
X143200000Y-103400000D01*
X151035000Y-106270000D02*
X151920000Y-107155000D01*
X149192499Y-106337500D02*
X150572500Y-106337500D01*
X160920000Y-103850000D02*
X161490000Y-103850000D01*
X155360000Y-103850000D02*
X161490000Y-103850000D01*
D45*
%TO.N,/DET_OUT+*%
X139165000Y-112400000D02*
X137600000Y-112400000D01*
X132300000Y-107100000D02*
X126650000Y-107100000D01*
D42*
X141380000Y-109200000D02*
X141380000Y-110185000D01*
X141380000Y-110185000D02*
X139165000Y-112400000D01*
D45*
X137600000Y-112400000D02*
X132300000Y-107100000D01*
%TO.N,/5V0*%
X171300000Y-107300000D02*
X171300000Y-110600000D01*
X167895000Y-103895000D02*
X171300000Y-107300000D01*
D42*
X155430000Y-108475000D02*
X156405000Y-107500000D01*
D45*
X167895000Y-103850000D02*
X167895000Y-103895000D01*
D42*
X158775000Y-105375000D02*
X157900000Y-105375000D01*
X159400000Y-106800000D02*
X159400000Y-106000000D01*
D45*
X171300000Y-110600000D02*
X169350000Y-112550000D01*
X169350000Y-112550000D02*
X167895000Y-112550000D01*
D42*
X157275000Y-104750000D02*
X157900000Y-105375000D01*
X158700000Y-107500000D02*
X159400000Y-106800000D01*
X156405000Y-107500000D02*
X158700000Y-107500000D01*
D45*
X164595000Y-112200000D02*
X157600000Y-112200000D01*
X157600000Y-112200000D02*
X156200000Y-110800000D01*
D42*
X155990000Y-104750000D02*
X157275000Y-104750000D01*
D45*
X164945000Y-112550000D02*
X164595000Y-112200000D01*
D42*
X159400000Y-106000000D02*
X158775000Y-105375000D01*
%TO.N,/IN1*%
X169772000Y-103272000D02*
X169772000Y-104935862D01*
X162878000Y-103522000D02*
X163451002Y-102949000D01*
X163451002Y-102949000D02*
X169449000Y-102949000D01*
X169772000Y-104935862D02*
X174456138Y-109620000D01*
X152645000Y-104480000D02*
X153603000Y-103522000D01*
X153856341Y-103522000D02*
X153859341Y-103519000D01*
X154340659Y-103519000D02*
X154343659Y-103522000D01*
X153603000Y-103522000D02*
X153856341Y-103522000D01*
X154343659Y-103522000D02*
X162878000Y-103522000D01*
X153859341Y-103519000D02*
X154340659Y-103519000D01*
X174456138Y-109620000D02*
X176000000Y-109620000D01*
X169449000Y-102949000D02*
X169772000Y-103272000D01*
%TO.N,/RGB_LED*%
X149367499Y-107595252D02*
X149049000Y-107913751D01*
X158577000Y-109800000D02*
X162300000Y-106077000D01*
X149049000Y-109349000D02*
X149500000Y-109800000D01*
X149367499Y-106837500D02*
X149367499Y-107595252D01*
X149049000Y-107913751D02*
X149049000Y-109349000D01*
X149500000Y-109800000D02*
X158577000Y-109800000D01*
X162300000Y-106077000D02*
X162300000Y-105375000D01*
%TO.N,/IN2*%
X162745140Y-103191000D02*
X163315140Y-102621000D01*
X153470138Y-103191000D02*
X162745140Y-103191000D01*
X177289000Y-108469000D02*
X179500000Y-110680000D01*
X146220000Y-103500000D02*
X153161138Y-103500000D01*
X173769000Y-108469000D02*
X177289000Y-108469000D01*
X170100000Y-104700000D02*
X170100000Y-104800000D01*
X170100000Y-104800000D02*
X173769000Y-108469000D01*
X145210000Y-104510000D02*
X146220000Y-103500000D01*
X169584862Y-102621000D02*
X170100000Y-103136138D01*
X170100000Y-103136138D02*
X170100000Y-104700000D01*
X153161138Y-103500000D02*
X153470138Y-103191000D01*
X163315140Y-102621000D02*
X169584862Y-102621000D01*
X179500000Y-110680000D02*
X179500000Y-112120000D01*
%TO.N,/FET_5V0*%
X143625000Y-108744999D02*
X143625000Y-107090000D01*
X144675000Y-109070000D02*
X145270000Y-108475000D01*
X143299999Y-109070000D02*
X143625000Y-108744999D01*
D45*
X142715000Y-114300000D02*
X142715000Y-111760000D01*
D43*
X145270000Y-108475000D02*
X145270000Y-109205000D01*
D42*
X143100000Y-109070000D02*
X143299999Y-109070000D01*
D45*
X142715000Y-111760000D02*
X142915000Y-111760000D01*
D42*
X143100000Y-109070000D02*
X144675000Y-109070000D01*
D45*
X142915000Y-111760000D02*
X145270000Y-109405000D01*
X145270000Y-109405000D02*
X145270000Y-108475000D01*
D44*
%TO.N,Net-(Q1-G)*%
X142435500Y-107935500D02*
X139979500Y-107935500D01*
X139979500Y-107935500D02*
X139865000Y-108050000D01*
X142991748Y-108430000D02*
X142635500Y-108786248D01*
X143100000Y-108430000D02*
X142930000Y-108430000D01*
X143100000Y-108430000D02*
X142991748Y-108430000D01*
X142635500Y-110410500D02*
X142715000Y-110490000D01*
X142635500Y-108786248D02*
X142635500Y-110410500D01*
X142930000Y-108430000D02*
X142435500Y-107935500D01*
X142800000Y-110405000D02*
X142715000Y-110490000D01*
D43*
%TO.N,/BUZZER*%
X143401000Y-105671000D02*
X145798440Y-105671000D01*
X146592499Y-105837499D02*
X145964938Y-105837499D01*
X143010000Y-105460000D02*
X141615000Y-106855000D01*
X143010000Y-105280000D02*
X143010000Y-105460000D01*
X145964938Y-105837499D02*
X145798440Y-105671000D01*
X143010000Y-105280000D02*
X143401000Y-105671000D01*
%TO.N,/IN1_SENSE*%
X148892499Y-104182500D02*
X148892499Y-104362500D01*
X149274999Y-103800000D02*
X148892499Y-104182500D01*
X150714999Y-103800000D02*
X149274999Y-103800000D01*
X151195000Y-104280001D02*
X150714999Y-103800000D01*
D42*
X151195000Y-104480000D02*
X152005000Y-104480000D01*
D43*
X151195000Y-104480000D02*
X151195000Y-104280001D01*
%TO.N,/IN2_SENSE*%
X145397500Y-105337500D02*
X145210000Y-105150000D01*
D42*
X144460000Y-105180000D02*
X145180000Y-105180000D01*
X145180000Y-105180000D02*
X145210000Y-105150000D01*
D43*
X146592499Y-105337500D02*
X145397500Y-105337500D01*
%TO.N,/FET_5V0_SENSE*%
X144265000Y-107090000D02*
X146164999Y-107090000D01*
D42*
X144260000Y-107085000D02*
X144265000Y-107090000D01*
D43*
X146164999Y-107090000D02*
X146417499Y-106837500D01*
D42*
X144260000Y-106350000D02*
X144260000Y-107085000D01*
%TO.N,/NRST*%
X149870000Y-104400000D02*
X149870000Y-105092751D01*
X149625251Y-105337500D02*
X149192499Y-105337500D01*
X149870000Y-105092751D02*
X149625251Y-105337500D01*
%TO.N,/SWDIO*%
X146890000Y-107314999D02*
X146892499Y-107312500D01*
X147240000Y-109630000D02*
X146890000Y-109280000D01*
X146890000Y-109280000D02*
X146890000Y-107314999D01*
%TO.N,/SWCLK*%
X147392499Y-107137500D02*
X147392499Y-108342499D01*
X147392499Y-108342499D02*
X147640000Y-108590000D01*
%TD*%
%TA.AperFunction,Conductor*%
%TO.N,/5V0*%
G36*
X156425706Y-110219685D02*
G01*
X156433067Y-110224800D01*
X156850400Y-110537800D01*
X156892221Y-110593771D01*
X156900000Y-110637000D01*
X156900000Y-111448638D01*
X156880315Y-111515677D01*
X156863681Y-111536319D01*
X156636319Y-111763681D01*
X156574996Y-111797166D01*
X156548638Y-111800000D01*
X154872133Y-111800000D01*
X154811913Y-111784395D01*
X154363780Y-111535432D01*
X154314737Y-111485668D01*
X154300000Y-111427037D01*
X154300000Y-110568497D01*
X154319685Y-110501458D01*
X154327172Y-110491035D01*
X154522770Y-110246538D01*
X154580021Y-110206486D01*
X154619598Y-110200000D01*
X156358667Y-110200000D01*
X156425706Y-110219685D01*
G37*
%TD.AperFunction*%
%TD*%
%TA.AperFunction,Conductor*%
%TO.N,/5V0*%
G36*
X167848039Y-110869685D02*
G01*
X167893794Y-110922489D01*
X167905000Y-110974000D01*
X167905000Y-111100000D01*
X168031000Y-111100000D01*
X168098039Y-111119685D01*
X168143794Y-111172489D01*
X168155000Y-111224000D01*
X168155000Y-112268638D01*
X168154750Y-112276502D01*
X168144750Y-112433864D01*
X168134092Y-112463145D01*
X168125315Y-112493039D01*
X168122244Y-112495699D01*
X168120854Y-112499520D01*
X168096053Y-112518394D01*
X168072511Y-112538794D01*
X168067942Y-112539787D01*
X168065254Y-112541834D01*
X168054667Y-112542675D01*
X168021000Y-112550000D01*
X167895000Y-112550000D01*
X167895000Y-112676000D01*
X167875315Y-112743039D01*
X167822511Y-112788794D01*
X167771000Y-112800000D01*
X165069000Y-112800000D01*
X165001961Y-112780315D01*
X164956206Y-112727511D01*
X164945000Y-112676000D01*
X164945000Y-112550000D01*
X164819000Y-112550000D01*
X164751961Y-112530315D01*
X164706206Y-112477511D01*
X164695000Y-112426000D01*
X164695000Y-112300000D01*
X165205000Y-112300000D01*
X167645000Y-112300000D01*
X167645000Y-111350000D01*
X165205000Y-111350000D01*
X165205000Y-112300000D01*
X164695000Y-112300000D01*
X164695000Y-111381362D01*
X164695896Y-111366481D01*
X164705000Y-111291169D01*
X164705000Y-111224000D01*
X164724685Y-111156961D01*
X164777489Y-111111206D01*
X164829000Y-111100000D01*
X164955000Y-111100000D01*
X164955000Y-110974000D01*
X164974685Y-110906961D01*
X165027489Y-110861206D01*
X165079000Y-110850000D01*
X167781000Y-110850000D01*
X167848039Y-110869685D01*
G37*
%TD.AperFunction*%
%TD*%
%TA.AperFunction,Conductor*%
%TO.N,GND*%
G36*
X160138443Y-104097185D02*
G01*
X160184198Y-104149989D01*
X160194142Y-104219147D01*
X160165117Y-104282703D01*
X160159085Y-104289181D01*
X160115085Y-104333181D01*
X160053762Y-104366666D01*
X160027404Y-104369500D01*
X159947273Y-104369500D01*
X159845413Y-104396793D01*
X159845410Y-104396794D01*
X159754085Y-104449521D01*
X159679521Y-104524085D01*
X159626794Y-104615410D01*
X159626793Y-104615413D01*
X159599500Y-104717273D01*
X159599500Y-104822727D01*
X159625849Y-104921062D01*
X159626793Y-104924586D01*
X159626794Y-104924589D01*
X159636126Y-104940752D01*
X159679520Y-105015913D01*
X159754087Y-105090480D01*
X159845413Y-105143207D01*
X159947273Y-105170500D01*
X159947275Y-105170500D01*
X160052725Y-105170500D01*
X160052727Y-105170500D01*
X160154587Y-105143207D01*
X160245913Y-105090480D01*
X160320480Y-105015913D01*
X160373207Y-104924587D01*
X160400500Y-104822727D01*
X160400500Y-104742594D01*
X160420185Y-104675555D01*
X160436819Y-104654913D01*
X160977914Y-104113819D01*
X161039237Y-104080334D01*
X161065595Y-104077500D01*
X161444747Y-104077500D01*
X163443500Y-104077500D01*
X163510539Y-104097185D01*
X163556294Y-104149989D01*
X163567500Y-104201500D01*
X163567500Y-104462558D01*
X163574898Y-104499749D01*
X163603077Y-104541922D01*
X163645250Y-104570101D01*
X163645252Y-104570102D01*
X163673205Y-104575662D01*
X163682441Y-104577500D01*
X163682442Y-104577500D01*
X166207559Y-104577500D01*
X166214957Y-104576028D01*
X166244748Y-104570102D01*
X166286922Y-104541922D01*
X166286923Y-104541921D01*
X166316898Y-104497061D01*
X166370510Y-104452255D01*
X166439835Y-104443548D01*
X166502862Y-104473702D01*
X166523102Y-104497061D01*
X166553076Y-104541921D01*
X166595250Y-104570101D01*
X166595252Y-104570102D01*
X166623205Y-104575662D01*
X166632441Y-104577500D01*
X166632442Y-104577500D01*
X167921562Y-104577500D01*
X167988601Y-104597185D01*
X168009243Y-104613819D01*
X168833743Y-105438319D01*
X168867228Y-105499642D01*
X168862244Y-105569334D01*
X168820372Y-105625267D01*
X168754908Y-105649684D01*
X168746062Y-105650000D01*
X168150000Y-105650000D01*
X168150000Y-106500000D01*
X169650000Y-106500000D01*
X169685031Y-106464969D01*
X169746354Y-106431484D01*
X169816046Y-106436468D01*
X169860393Y-106464969D01*
X170836181Y-107440757D01*
X170869666Y-107502080D01*
X170872500Y-107528438D01*
X170872500Y-110371561D01*
X170852815Y-110438600D01*
X170836181Y-110459242D01*
X169494181Y-111801242D01*
X169432858Y-111834727D01*
X169363166Y-111829743D01*
X169307233Y-111787871D01*
X169282816Y-111722407D01*
X169282500Y-111713561D01*
X169282500Y-110487441D01*
X169277862Y-110464126D01*
X169275102Y-110450252D01*
X169275101Y-110450250D01*
X169246922Y-110408077D01*
X169204749Y-110379898D01*
X169167559Y-110372500D01*
X169167558Y-110372500D01*
X166642442Y-110372500D01*
X166642441Y-110372500D01*
X166605250Y-110379898D01*
X166563077Y-110408077D01*
X166533102Y-110452939D01*
X166479489Y-110497744D01*
X166410164Y-110506451D01*
X166347137Y-110476296D01*
X166326898Y-110452939D01*
X166296922Y-110408077D01*
X166254749Y-110379898D01*
X166217559Y-110372500D01*
X166217558Y-110372500D01*
X163692442Y-110372500D01*
X163692441Y-110372500D01*
X163655250Y-110379898D01*
X163613077Y-110408077D01*
X163584898Y-110450250D01*
X163577500Y-110487441D01*
X163577500Y-111648500D01*
X163557815Y-111715539D01*
X163505011Y-111761294D01*
X163453500Y-111772500D01*
X157828438Y-111772500D01*
X157798997Y-111763855D01*
X157769011Y-111757332D01*
X157763995Y-111753577D01*
X157761399Y-111752815D01*
X157740757Y-111736181D01*
X157573757Y-111569181D01*
X157540272Y-111507858D01*
X157545256Y-111438166D01*
X157587128Y-111382233D01*
X157652592Y-111357816D01*
X157661438Y-111357500D01*
X159010059Y-111357500D01*
X159017457Y-111356028D01*
X159047248Y-111350102D01*
X159089422Y-111321922D01*
X159117602Y-111279748D01*
X159125000Y-111242558D01*
X159125000Y-110287442D01*
X159117602Y-110250252D01*
X159104238Y-110230251D01*
X159089422Y-110208077D01*
X159047249Y-110179898D01*
X159010059Y-110172500D01*
X159010058Y-110172500D01*
X158825596Y-110172500D01*
X158758557Y-110152815D01*
X158712802Y-110100011D01*
X158702858Y-110030853D01*
X158731883Y-109967297D01*
X158737915Y-109960819D01*
X159425889Y-109272844D01*
X161150000Y-109272844D01*
X161156401Y-109332372D01*
X161156403Y-109332379D01*
X161206645Y-109467086D01*
X161206649Y-109467093D01*
X161292809Y-109582187D01*
X161292812Y-109582190D01*
X161407906Y-109668350D01*
X161407913Y-109668354D01*
X161542620Y-109718596D01*
X161542627Y-109718598D01*
X161602155Y-109724999D01*
X161602172Y-109725000D01*
X162050000Y-109725000D01*
X162050000Y-108775000D01*
X161150000Y-108775000D01*
X161150000Y-109272844D01*
X159425889Y-109272844D01*
X160062776Y-108635957D01*
X160938319Y-107760414D01*
X160999642Y-107726929D01*
X161069334Y-107731913D01*
X161125267Y-107773785D01*
X161149684Y-107839249D01*
X161150000Y-107848095D01*
X161150000Y-108275000D01*
X162050000Y-108275000D01*
X162050000Y-107325000D01*
X162550000Y-107325000D01*
X162550000Y-109725000D01*
X162997828Y-109725000D01*
X162997844Y-109724999D01*
X163057372Y-109718598D01*
X163057379Y-109718596D01*
X163192086Y-109668354D01*
X163192093Y-109668350D01*
X163307187Y-109582190D01*
X163307190Y-109582187D01*
X163393350Y-109467093D01*
X163393355Y-109467084D01*
X163431161Y-109365721D01*
X163473032Y-109309787D01*
X163538496Y-109285369D01*
X163585012Y-109292058D01*
X163585070Y-109291813D01*
X163587815Y-109292461D01*
X163590683Y-109292874D01*
X163592621Y-109293596D01*
X163592627Y-109293598D01*
X163652155Y-109299999D01*
X163652172Y-109300000D01*
X164700000Y-109300000D01*
X165200000Y-109300000D01*
X166247828Y-109300000D01*
X166247844Y-109299999D01*
X166307371Y-109293598D01*
X166381666Y-109265888D01*
X166451358Y-109260904D01*
X166468334Y-109265888D01*
X166542628Y-109293598D01*
X166542627Y-109293598D01*
X166602155Y-109299999D01*
X166602172Y-109300000D01*
X167650000Y-109300000D01*
X168150000Y-109300000D01*
X169197828Y-109300000D01*
X169197844Y-109299999D01*
X169257372Y-109293598D01*
X169257379Y-109293596D01*
X169392086Y-109243354D01*
X169392093Y-109243350D01*
X169507187Y-109157190D01*
X169507190Y-109157187D01*
X169593350Y-109042093D01*
X169593354Y-109042086D01*
X169643596Y-108907379D01*
X169643598Y-108907372D01*
X169649999Y-108847844D01*
X169650000Y-108847827D01*
X169650000Y-108450000D01*
X168150000Y-108450000D01*
X168150000Y-109300000D01*
X167650000Y-109300000D01*
X167650000Y-108450000D01*
X165200000Y-108450000D01*
X165200000Y-109300000D01*
X164700000Y-109300000D01*
X164700000Y-107950000D01*
X165200000Y-107950000D01*
X167650000Y-107950000D01*
X168150000Y-107950000D01*
X169650000Y-107950000D01*
X169650000Y-107552172D01*
X169649999Y-107552158D01*
X169643128Y-107488257D01*
X169643128Y-107461743D01*
X169649999Y-107397841D01*
X169650000Y-107397827D01*
X169650000Y-107000000D01*
X168150000Y-107000000D01*
X168150000Y-107950000D01*
X167650000Y-107950000D01*
X167650000Y-107000000D01*
X165200000Y-107000000D01*
X165200000Y-107950000D01*
X164700000Y-107950000D01*
X164700000Y-107000000D01*
X163200000Y-107000000D01*
X163200000Y-107208690D01*
X163180315Y-107275729D01*
X163127511Y-107321484D01*
X163062744Y-107331979D01*
X162997844Y-107325000D01*
X162550000Y-107325000D01*
X162050000Y-107325000D01*
X161673095Y-107325000D01*
X161606056Y-107305315D01*
X161560301Y-107252511D01*
X161550357Y-107183353D01*
X161579382Y-107119797D01*
X161585414Y-107113319D01*
X162459914Y-106238819D01*
X162521237Y-106205334D01*
X162547595Y-106202500D01*
X162962559Y-106202500D01*
X162968729Y-106201272D01*
X162999748Y-106195102D01*
X163007107Y-106190184D01*
X163073783Y-106169305D01*
X163141163Y-106187787D01*
X163187855Y-106239765D01*
X163200000Y-106293285D01*
X163200000Y-106500000D01*
X164700000Y-106500000D01*
X165200000Y-106500000D01*
X167650000Y-106500000D01*
X167650000Y-105650000D01*
X166602155Y-105650000D01*
X166542627Y-105656401D01*
X166542617Y-105656403D01*
X166468332Y-105684110D01*
X166398641Y-105689094D01*
X166381668Y-105684110D01*
X166307382Y-105656403D01*
X166307372Y-105656401D01*
X166247844Y-105650000D01*
X165200000Y-105650000D01*
X165200000Y-106500000D01*
X164700000Y-106500000D01*
X164700000Y-105650000D01*
X163652155Y-105650000D01*
X163592627Y-105656401D01*
X163592620Y-105656403D01*
X163457913Y-105706645D01*
X163457906Y-105706649D01*
X163342812Y-105792809D01*
X163300766Y-105848975D01*
X163244832Y-105890845D01*
X163175140Y-105895829D01*
X163113817Y-105862343D01*
X163080333Y-105801019D01*
X163077500Y-105774663D01*
X163077500Y-104662441D01*
X163073147Y-104640561D01*
X163070102Y-104625252D01*
X163070101Y-104625250D01*
X163041922Y-104583077D01*
X162999749Y-104554898D01*
X162962559Y-104547500D01*
X162962558Y-104547500D01*
X161637442Y-104547500D01*
X161637441Y-104547500D01*
X161600250Y-104554898D01*
X161558077Y-104583077D01*
X161529898Y-104625250D01*
X161522500Y-104662441D01*
X161522500Y-106087558D01*
X161529898Y-106124749D01*
X161558077Y-106166922D01*
X161600252Y-106195102D01*
X161611533Y-106199775D01*
X161609927Y-106203652D01*
X161651365Y-106225293D01*
X161685980Y-106285986D01*
X161682286Y-106355758D01*
X161653003Y-106402263D01*
X158889181Y-109166086D01*
X158827858Y-109199571D01*
X158758166Y-109194587D01*
X158702233Y-109152715D01*
X158677816Y-109087251D01*
X158677500Y-109078405D01*
X158677500Y-107838418D01*
X158697185Y-107771379D01*
X158749989Y-107725624D01*
X158754030Y-107723864D01*
X158828868Y-107692865D01*
X158828869Y-107692864D01*
X158828871Y-107692863D01*
X159592863Y-106928870D01*
X159592864Y-106928869D01*
X159592865Y-106928868D01*
X159599645Y-106912500D01*
X159627500Y-106845253D01*
X159627500Y-105954747D01*
X159592865Y-105871132D01*
X159528868Y-105807135D01*
X159220499Y-105498766D01*
X158903870Y-105182136D01*
X158875776Y-105170499D01*
X158820253Y-105147500D01*
X158801500Y-105147500D01*
X158734461Y-105127815D01*
X158688706Y-105075011D01*
X158677500Y-105023500D01*
X158677500Y-104662441D01*
X158673147Y-104640561D01*
X158670102Y-104625252D01*
X158670101Y-104625250D01*
X158641922Y-104583077D01*
X158599749Y-104554898D01*
X158562559Y-104547500D01*
X158562558Y-104547500D01*
X157405274Y-104547500D01*
X157357821Y-104538061D01*
X157320255Y-104522500D01*
X157320253Y-104522500D01*
X156771183Y-104522500D01*
X156704144Y-104502815D01*
X156658389Y-104450011D01*
X156649566Y-104422693D01*
X156645631Y-104402913D01*
X156645102Y-104400252D01*
X156645101Y-104400250D01*
X156616922Y-104358077D01*
X156574749Y-104329898D01*
X156540660Y-104323117D01*
X156478750Y-104290730D01*
X156444177Y-104230014D01*
X156447918Y-104160244D01*
X156488786Y-104103573D01*
X156553805Y-104077993D01*
X156564854Y-104077500D01*
X160071404Y-104077500D01*
X160138443Y-104097185D01*
G37*
%TD.AperFunction*%
%TA.AperFunction,Conductor*%
G36*
X144472437Y-109305083D02*
G01*
X144499052Y-109309134D01*
X144509486Y-109315962D01*
X144513651Y-109317185D01*
X144523571Y-109325179D01*
X144528585Y-109328460D01*
X144531519Y-109331045D01*
X144535483Y-109335009D01*
X144538534Y-109337225D01*
X144542911Y-109341082D01*
X144558570Y-109365896D01*
X144576490Y-109389135D01*
X144577002Y-109395104D01*
X144580199Y-109400170D01*
X144579957Y-109429509D01*
X144582468Y-109458748D01*
X144579672Y-109464046D01*
X144579623Y-109470037D01*
X144553477Y-109513691D01*
X144549862Y-109520543D01*
X144549124Y-109520959D01*
X144548619Y-109521803D01*
X143504181Y-110566242D01*
X143442858Y-110599727D01*
X143373166Y-110594743D01*
X143317233Y-110552871D01*
X143292816Y-110487407D01*
X143292500Y-110478561D01*
X143292500Y-110227441D01*
X143287041Y-110200000D01*
X143285102Y-110190252D01*
X143278184Y-110179898D01*
X143256922Y-110148077D01*
X143214749Y-110119898D01*
X143177559Y-110112500D01*
X143177558Y-110112500D01*
X142950500Y-110112500D01*
X142883461Y-110092815D01*
X142837706Y-110040011D01*
X142826500Y-109988500D01*
X142826500Y-109548540D01*
X142846185Y-109481501D01*
X142898989Y-109435746D01*
X142968147Y-109425802D01*
X142974682Y-109426920D01*
X142977594Y-109427500D01*
X142977595Y-109427500D01*
X143222408Y-109427500D01*
X143222409Y-109427499D01*
X143288766Y-109414300D01*
X143364018Y-109364018D01*
X143371641Y-109352608D01*
X143425253Y-109307804D01*
X143474743Y-109297500D01*
X144446612Y-109297500D01*
X144472437Y-109305083D01*
G37*
%TD.AperFunction*%
%TA.AperFunction,Conductor*%
G36*
X155246834Y-104387412D02*
G01*
X155302767Y-104429284D01*
X155327184Y-104494748D01*
X155327500Y-104503594D01*
X155327500Y-105062558D01*
X155334898Y-105099749D01*
X155363077Y-105141922D01*
X155405250Y-105170101D01*
X155405252Y-105170102D01*
X155429578Y-105174941D01*
X155442441Y-105177500D01*
X155442442Y-105177500D01*
X156537559Y-105177500D01*
X156544957Y-105176028D01*
X156574748Y-105170102D01*
X156616922Y-105141922D01*
X156645102Y-105099748D01*
X156649566Y-105077306D01*
X156664281Y-105049176D01*
X156677470Y-105020297D01*
X156680359Y-105018439D01*
X156681952Y-105015396D01*
X156709539Y-104999687D01*
X156736248Y-104982523D01*
X156740843Y-104981862D01*
X156742669Y-104980823D01*
X156771183Y-104977500D01*
X156998500Y-104977500D01*
X157065539Y-104997185D01*
X157111294Y-105049989D01*
X157122500Y-105101500D01*
X157122500Y-105941268D01*
X157102815Y-106008307D01*
X157050011Y-106054062D01*
X156980853Y-106064006D01*
X156917297Y-106034981D01*
X156899234Y-106015580D01*
X156882187Y-105992809D01*
X156767093Y-105906649D01*
X156767086Y-105906645D01*
X156632379Y-105856403D01*
X156632372Y-105856401D01*
X156572844Y-105850000D01*
X156240000Y-105850000D01*
X156240000Y-106400000D01*
X157025000Y-106400000D01*
X157025000Y-106308089D01*
X157044685Y-106241050D01*
X157097489Y-106195295D01*
X157166647Y-106185351D01*
X157196454Y-106193529D01*
X157200249Y-106195101D01*
X157200251Y-106195101D01*
X157200252Y-106195102D01*
X157223743Y-106199775D01*
X157237441Y-106202500D01*
X157237442Y-106202500D01*
X158562559Y-106202500D01*
X158569957Y-106201028D01*
X158599748Y-106195102D01*
X158641922Y-106166922D01*
X158670102Y-106124748D01*
X158677500Y-106087558D01*
X158677500Y-105898595D01*
X158697185Y-105831556D01*
X158749989Y-105785801D01*
X158819147Y-105775857D01*
X158882703Y-105804882D01*
X158889181Y-105810914D01*
X159136181Y-106057914D01*
X159169666Y-106119237D01*
X159172500Y-106145595D01*
X159172500Y-106654405D01*
X159152815Y-106721444D01*
X159136181Y-106742086D01*
X158642086Y-107236181D01*
X158580763Y-107269666D01*
X158554405Y-107272500D01*
X157116955Y-107272500D01*
X157049916Y-107252815D01*
X157004161Y-107200011D01*
X156994217Y-107130853D01*
X157000773Y-107105166D01*
X157018597Y-107057376D01*
X157018598Y-107057372D01*
X157024999Y-106997844D01*
X157025000Y-106997827D01*
X157025000Y-106900000D01*
X154955000Y-106900000D01*
X154955000Y-106997844D01*
X154961401Y-107057372D01*
X154961403Y-107057379D01*
X155011645Y-107192086D01*
X155011647Y-107192089D01*
X155048570Y-107241412D01*
X155072987Y-107306877D01*
X155058135Y-107375150D01*
X155008730Y-107424555D01*
X154998098Y-107429641D01*
X154839057Y-107510678D01*
X154695489Y-107614985D01*
X154695484Y-107614989D01*
X154569989Y-107740484D01*
X154569985Y-107740489D01*
X154465678Y-107884057D01*
X154385103Y-108042192D01*
X154330263Y-108210972D01*
X154330263Y-108210975D01*
X154302500Y-108386264D01*
X154302500Y-108563735D01*
X154330263Y-108739024D01*
X154330263Y-108739027D01*
X154385103Y-108907807D01*
X154402016Y-108941000D01*
X154457963Y-109050802D01*
X154465678Y-109065942D01*
X154569985Y-109209510D01*
X154569989Y-109209515D01*
X154569991Y-109209517D01*
X154695483Y-109335009D01*
X154695490Y-109335014D01*
X154713613Y-109348181D01*
X154756279Y-109403511D01*
X154762258Y-109473124D01*
X154729653Y-109534920D01*
X154668814Y-109569277D01*
X154640728Y-109572500D01*
X151650085Y-109572500D01*
X151583046Y-109552815D01*
X151537291Y-109500011D01*
X151527347Y-109430853D01*
X151549767Y-109375614D01*
X151632914Y-109261171D01*
X151740102Y-109050802D01*
X151813065Y-108826247D01*
X151850000Y-108593052D01*
X151850000Y-108356947D01*
X151813065Y-108123751D01*
X151738680Y-107894817D01*
X151736685Y-107824976D01*
X151772765Y-107765143D01*
X151835466Y-107734315D01*
X151856603Y-107732499D01*
X152203452Y-107732499D01*
X152271972Y-107722517D01*
X152377662Y-107670848D01*
X152460848Y-107587662D01*
X152512517Y-107481972D01*
X152522500Y-107413453D01*
X152522499Y-107060594D01*
X152542183Y-106993556D01*
X152558813Y-106972919D01*
X153229579Y-106302155D01*
X154955000Y-106302155D01*
X154955000Y-106400000D01*
X155740000Y-106400000D01*
X155740000Y-105850000D01*
X155407155Y-105850000D01*
X155347627Y-105856401D01*
X155347620Y-105856403D01*
X155212913Y-105906645D01*
X155212906Y-105906649D01*
X155097812Y-105992809D01*
X155097809Y-105992812D01*
X155011649Y-106107906D01*
X155011645Y-106107913D01*
X154961403Y-106242620D01*
X154961401Y-106242627D01*
X154955000Y-106302155D01*
X153229579Y-106302155D01*
X153367915Y-106163819D01*
X153429238Y-106130334D01*
X153455596Y-106127500D01*
X154057559Y-106127500D01*
X154064957Y-106126028D01*
X154094748Y-106120102D01*
X154136922Y-106091922D01*
X154165102Y-106049748D01*
X154172500Y-106012558D01*
X154172500Y-105410594D01*
X154192185Y-105343555D01*
X154208819Y-105322913D01*
X154803490Y-104728242D01*
X155115820Y-104415912D01*
X155177142Y-104382428D01*
X155246834Y-104387412D01*
G37*
%TD.AperFunction*%
%TA.AperFunction,Conductor*%
G36*
X142829398Y-106561659D02*
G01*
X142840660Y-106562062D01*
X142860609Y-106575913D01*
X142882703Y-106586003D01*
X142890284Y-106596516D01*
X142898052Y-106601910D01*
X142916061Y-106632264D01*
X142965899Y-106752586D01*
X143062075Y-106877924D01*
X143187413Y-106974100D01*
X143190952Y-106975566D01*
X143193479Y-106977603D01*
X143194448Y-106978162D01*
X143194360Y-106978312D01*
X143245356Y-107019407D01*
X143267421Y-107085701D01*
X143267500Y-107090127D01*
X143267500Y-107212410D01*
X143280698Y-107278761D01*
X143280701Y-107278768D01*
X143330978Y-107354013D01*
X143330982Y-107354018D01*
X143342391Y-107361641D01*
X143387196Y-107415253D01*
X143397500Y-107464743D01*
X143397500Y-107956233D01*
X143377815Y-108023272D01*
X143325011Y-108069027D01*
X143255853Y-108078971D01*
X143249311Y-108077851D01*
X143222407Y-108072500D01*
X143222406Y-108072500D01*
X142977594Y-108072500D01*
X142930013Y-108081964D01*
X142860421Y-108075735D01*
X142818142Y-108048027D01*
X142543694Y-107773579D01*
X142543693Y-107773578D01*
X142532708Y-107769027D01*
X142526876Y-107766612D01*
X142472474Y-107722769D01*
X142450411Y-107656475D01*
X142467692Y-107588776D01*
X142486647Y-107564375D01*
X142650477Y-107400546D01*
X142661670Y-107373523D01*
X142677500Y-107335307D01*
X142677500Y-106679716D01*
X142680674Y-106668904D01*
X142679470Y-106657699D01*
X142690343Y-106635977D01*
X142697185Y-106612677D01*
X142705699Y-106605298D01*
X142710745Y-106595220D01*
X142731636Y-106582824D01*
X142749989Y-106566922D01*
X142761142Y-106565318D01*
X142770834Y-106559568D01*
X142795105Y-106560434D01*
X142819147Y-106556978D01*
X142829398Y-106561659D01*
G37*
%TD.AperFunction*%
%TA.AperFunction,Conductor*%
G36*
X148161819Y-104999261D02*
G01*
X148164509Y-104998972D01*
X148189955Y-105006443D01*
X148192747Y-105007599D01*
X148192751Y-105007602D01*
X148217544Y-105012534D01*
X148229940Y-105015000D01*
X148534237Y-105015000D01*
X148601276Y-105034685D01*
X148647031Y-105087489D01*
X148656975Y-105156647D01*
X148627950Y-105220203D01*
X148606502Y-105237488D01*
X148607510Y-105238834D01*
X148485308Y-105330314D01*
X148399148Y-105445407D01*
X148399144Y-105445414D01*
X148348902Y-105580121D01*
X148348900Y-105580128D01*
X148342499Y-105639656D01*
X148342499Y-105687501D01*
X149068499Y-105687501D01*
X149077184Y-105690051D01*
X149086146Y-105688763D01*
X149110186Y-105699741D01*
X149135538Y-105707186D01*
X149141465Y-105714026D01*
X149149702Y-105717788D01*
X149163991Y-105740022D01*
X149181293Y-105759990D01*
X149183580Y-105770504D01*
X149187476Y-105776566D01*
X149192499Y-105811501D01*
X149192499Y-105863501D01*
X149172814Y-105930540D01*
X149120010Y-105976295D01*
X149068499Y-105987501D01*
X148342499Y-105987501D01*
X148342499Y-106035345D01*
X148348900Y-106094873D01*
X148348902Y-106094880D01*
X148399144Y-106229587D01*
X148399148Y-106229594D01*
X148485308Y-106344688D01*
X148485311Y-106344691D01*
X148607510Y-106436170D01*
X148605433Y-106438943D01*
X148643062Y-106476568D01*
X148657916Y-106544840D01*
X148633502Y-106610306D01*
X148577571Y-106652180D01*
X148534232Y-106660000D01*
X148229940Y-106660000D01*
X148219987Y-106661980D01*
X148192751Y-106667398D01*
X148192750Y-106667398D01*
X148192747Y-106667399D01*
X148189944Y-106668560D01*
X148183349Y-106669268D01*
X148180774Y-106669781D01*
X148180728Y-106669550D01*
X148120474Y-106676025D01*
X148095049Y-106668559D01*
X148092247Y-106667398D01*
X148055057Y-106660000D01*
X148055056Y-106660000D01*
X147729940Y-106660000D01*
X147729939Y-106660000D01*
X147692748Y-106667398D01*
X147689947Y-106668559D01*
X147683353Y-106669267D01*
X147680773Y-106669781D01*
X147680727Y-106669549D01*
X147620477Y-106676025D01*
X147595046Y-106668557D01*
X147592250Y-106667398D01*
X147555058Y-106660000D01*
X147555057Y-106660000D01*
X147229941Y-106660000D01*
X147229939Y-106660000D01*
X147212299Y-106663509D01*
X147142707Y-106657282D01*
X147087529Y-106614420D01*
X147064284Y-106548530D01*
X147066489Y-106517700D01*
X147069999Y-106500058D01*
X147069999Y-106174942D01*
X147062601Y-106137752D01*
X147062599Y-106137749D01*
X147061441Y-106134952D01*
X147060732Y-106128360D01*
X147060218Y-106125775D01*
X147060449Y-106125728D01*
X147053972Y-106065483D01*
X147061442Y-106040043D01*
X147062597Y-106037251D01*
X147062601Y-106037247D01*
X147069999Y-106000057D01*
X147069999Y-105674941D01*
X147069295Y-105671404D01*
X147066311Y-105656401D01*
X147062601Y-105637751D01*
X147062598Y-105637747D01*
X147061442Y-105634955D01*
X147060733Y-105628364D01*
X147060218Y-105625774D01*
X147060449Y-105625727D01*
X147053972Y-105565486D01*
X147061443Y-105540040D01*
X147062595Y-105537256D01*
X147062601Y-105537248D01*
X147069999Y-105500058D01*
X147069999Y-105174942D01*
X147066490Y-105157303D01*
X147072714Y-105087713D01*
X147115574Y-105032533D01*
X147181462Y-105009285D01*
X147212299Y-105011490D01*
X147225375Y-105014091D01*
X147229940Y-105015000D01*
X147229941Y-105015000D01*
X147555058Y-105015000D01*
X147564354Y-105013150D01*
X147592247Y-105007602D01*
X147592251Y-105007598D01*
X147595043Y-105006443D01*
X147601633Y-105005734D01*
X147604224Y-105005219D01*
X147604270Y-105005450D01*
X147664512Y-104998973D01*
X147689952Y-105006442D01*
X147692749Y-105007600D01*
X147692752Y-105007602D01*
X147722543Y-105013528D01*
X147729941Y-105015000D01*
X147729942Y-105015000D01*
X148055059Y-105015000D01*
X148061256Y-105013767D01*
X148092248Y-105007602D01*
X148092256Y-105007596D01*
X148095040Y-105006444D01*
X148101630Y-105005735D01*
X148104225Y-105005219D01*
X148104271Y-105005451D01*
X148125562Y-105003161D01*
X148155757Y-104997714D01*
X148161819Y-104999261D01*
G37*
%TD.AperFunction*%
%TA.AperFunction,Conductor*%
G36*
X154295303Y-103748883D02*
G01*
X154298405Y-103749500D01*
X154298406Y-103749500D01*
X154298407Y-103749500D01*
X154388912Y-103749500D01*
X154839405Y-103749500D01*
X154906444Y-103769185D01*
X154952199Y-103821989D01*
X154962143Y-103891147D01*
X154933118Y-103954703D01*
X154927086Y-103961181D01*
X153652086Y-105236181D01*
X153590763Y-105269666D01*
X153564405Y-105272500D01*
X152987687Y-105272500D01*
X152920648Y-105252815D01*
X152874893Y-105200011D01*
X152869981Y-105187504D01*
X152831547Y-105071518D01*
X152831544Y-105071511D01*
X152776456Y-104982201D01*
X152758015Y-104914808D01*
X152778937Y-104848145D01*
X152832579Y-104803375D01*
X152857800Y-104795486D01*
X152863766Y-104794300D01*
X152939018Y-104744018D01*
X152989300Y-104668766D01*
X153002500Y-104602406D01*
X153002500Y-104495595D01*
X153022185Y-104428556D01*
X153038819Y-104407914D01*
X153660915Y-103785819D01*
X153686978Y-103771587D01*
X153711687Y-103755121D01*
X153719240Y-103753970D01*
X153722238Y-103752334D01*
X153746533Y-103749517D01*
X153747555Y-103749500D01*
X153811088Y-103749500D01*
X153901594Y-103749500D01*
X153908041Y-103746829D01*
X153926825Y-103746517D01*
X153927322Y-103746654D01*
X153928888Y-103746500D01*
X154271112Y-103746500D01*
X154295303Y-103748883D01*
G37*
%TD.AperFunction*%
%TA.AperFunction,Conductor*%
G36*
X173056922Y-101858396D02*
G01*
X173147266Y-101868576D01*
X173174324Y-101874751D01*
X173253541Y-101902470D01*
X173278546Y-101914513D01*
X173325729Y-101944161D01*
X173349597Y-101959159D01*
X173371304Y-101976470D01*
X173430633Y-102035799D01*
X173447947Y-102057510D01*
X173492587Y-102128557D01*
X173504634Y-102153573D01*
X173532347Y-102232773D01*
X173538526Y-102259847D01*
X173548682Y-102350006D01*
X173549461Y-102363884D01*
X173549461Y-102393500D01*
X173549461Y-102423001D01*
X173549461Y-102423003D01*
X173549462Y-102432995D01*
X173549462Y-102487132D01*
X173529777Y-102554171D01*
X173476973Y-102599926D01*
X173407815Y-102609870D01*
X173349983Y-102585514D01*
X173346780Y-102583056D01*
X173346776Y-102583054D01*
X173346774Y-102583052D01*
X173153726Y-102471595D01*
X173153722Y-102471593D01*
X172947790Y-102386293D01*
X172947783Y-102386291D01*
X172947781Y-102386290D01*
X172732463Y-102328596D01*
X172732457Y-102328595D01*
X172732452Y-102328594D01*
X172511466Y-102299501D01*
X172511463Y-102299500D01*
X172511457Y-102299500D01*
X172288543Y-102299500D01*
X172288537Y-102299500D01*
X172288533Y-102299501D01*
X172067547Y-102328594D01*
X172067540Y-102328595D01*
X172067537Y-102328596D01*
X171935840Y-102363884D01*
X171852219Y-102386290D01*
X171852209Y-102386293D01*
X171646277Y-102471593D01*
X171646273Y-102471595D01*
X171453226Y-102583052D01*
X171453217Y-102583058D01*
X171276377Y-102718751D01*
X171276370Y-102718757D01*
X171118757Y-102876370D01*
X171118751Y-102876377D01*
X170983058Y-103053217D01*
X170983052Y-103053226D01*
X170871595Y-103246273D01*
X170871593Y-103246277D01*
X170786293Y-103452209D01*
X170786290Y-103452219D01*
X170729593Y-103663818D01*
X170728597Y-103667534D01*
X170728594Y-103667547D01*
X170699501Y-103888533D01*
X170699500Y-103888549D01*
X170699500Y-104111450D01*
X170699501Y-104111466D01*
X170728594Y-104332452D01*
X170728595Y-104332457D01*
X170728596Y-104332463D01*
X170786215Y-104547500D01*
X170786290Y-104547780D01*
X170786293Y-104547790D01*
X170869136Y-104747790D01*
X170871595Y-104753726D01*
X170983052Y-104946774D01*
X170983057Y-104946780D01*
X170983058Y-104946782D01*
X171118751Y-105123622D01*
X171118757Y-105123629D01*
X171276370Y-105281242D01*
X171276377Y-105281248D01*
X171374418Y-105356477D01*
X171453226Y-105416948D01*
X171646274Y-105528405D01*
X171735796Y-105565486D01*
X171825155Y-105602500D01*
X171852219Y-105613710D01*
X172067537Y-105671404D01*
X172288543Y-105700500D01*
X172288550Y-105700500D01*
X172511450Y-105700500D01*
X172511457Y-105700500D01*
X172732463Y-105671404D01*
X172947781Y-105613710D01*
X173153726Y-105528405D01*
X173346774Y-105416948D01*
X173523624Y-105281247D01*
X173681247Y-105123624D01*
X173816948Y-104946774D01*
X173888568Y-104822725D01*
X173899018Y-104804626D01*
X173949585Y-104756410D01*
X174018192Y-104743188D01*
X174083057Y-104769156D01*
X174087604Y-104772910D01*
X174148454Y-104825641D01*
X174329022Y-104941692D01*
X174524268Y-105030863D01*
X174730217Y-105091339D01*
X174942677Y-105121888D01*
X174984108Y-105121888D01*
X182970531Y-105121888D01*
X183037570Y-105141573D01*
X183083325Y-105194377D01*
X183094531Y-105245888D01*
X183094531Y-113983478D01*
X183074846Y-114050517D01*
X183022042Y-114096272D01*
X182970531Y-114107478D01*
X175101378Y-114107478D01*
X175101324Y-114107462D01*
X175050000Y-114107462D01*
X174942678Y-114107462D01*
X174923206Y-114110261D01*
X174730223Y-114138007D01*
X174730217Y-114138009D01*
X174524268Y-114198482D01*
X174372350Y-114267863D01*
X174330273Y-114287080D01*
X174329031Y-114287647D01*
X174329018Y-114287653D01*
X174148460Y-114403692D01*
X174148448Y-114403700D01*
X174015942Y-114518520D01*
X173952387Y-114547546D01*
X173883228Y-114537603D01*
X173830424Y-114491848D01*
X173814964Y-114456899D01*
X173813712Y-114452226D01*
X173813706Y-114452209D01*
X173752261Y-114303868D01*
X173728405Y-114246274D01*
X173616948Y-114053226D01*
X173520252Y-113927209D01*
X173481248Y-113876377D01*
X173481242Y-113876370D01*
X173323629Y-113718757D01*
X173323622Y-113718751D01*
X173146782Y-113583058D01*
X173146780Y-113583057D01*
X173146774Y-113583052D01*
X172953726Y-113471595D01*
X172953722Y-113471593D01*
X172747790Y-113386293D01*
X172747783Y-113386291D01*
X172747781Y-113386290D01*
X172532463Y-113328596D01*
X172532457Y-113328595D01*
X172532452Y-113328594D01*
X172311466Y-113299501D01*
X172311463Y-113299500D01*
X172311457Y-113299500D01*
X172088543Y-113299500D01*
X172088537Y-113299500D01*
X172088533Y-113299501D01*
X171867547Y-113328594D01*
X171867540Y-113328595D01*
X171867537Y-113328596D01*
X171700837Y-113373263D01*
X171652219Y-113386290D01*
X171652209Y-113386293D01*
X171446277Y-113471593D01*
X171446273Y-113471595D01*
X171253226Y-113583052D01*
X171253217Y-113583058D01*
X171076377Y-113718751D01*
X171076370Y-113718757D01*
X170918757Y-113876370D01*
X170918751Y-113876377D01*
X170783058Y-114053217D01*
X170783052Y-114053226D01*
X170671595Y-114246273D01*
X170671593Y-114246277D01*
X170586293Y-114452209D01*
X170586290Y-114452219D01*
X170530427Y-114660706D01*
X170528597Y-114667534D01*
X170528594Y-114667547D01*
X170499501Y-114888533D01*
X170499500Y-114888549D01*
X170499500Y-115111450D01*
X170499501Y-115111466D01*
X170528594Y-115332452D01*
X170528595Y-115332457D01*
X170528596Y-115332463D01*
X170586290Y-115547780D01*
X170586293Y-115547790D01*
X170649341Y-115700000D01*
X170671595Y-115753726D01*
X170783052Y-115946774D01*
X170783057Y-115946780D01*
X170783058Y-115946782D01*
X170918751Y-116123622D01*
X170918757Y-116123629D01*
X171076370Y-116281242D01*
X171076377Y-116281248D01*
X171126668Y-116319837D01*
X171253226Y-116416948D01*
X171446274Y-116528405D01*
X171652219Y-116613710D01*
X171867537Y-116671404D01*
X172088543Y-116700500D01*
X172088550Y-116700500D01*
X172311450Y-116700500D01*
X172311457Y-116700500D01*
X172532463Y-116671404D01*
X172747781Y-116613710D01*
X172953726Y-116528405D01*
X173146774Y-116416948D01*
X173323624Y-116281247D01*
X173324409Y-116280462D01*
X173337781Y-116267091D01*
X173357217Y-116256478D01*
X173373951Y-116241978D01*
X173387282Y-116240061D01*
X173399104Y-116233606D01*
X173421190Y-116235185D01*
X173443109Y-116232034D01*
X173455360Y-116237629D01*
X173468796Y-116238590D01*
X173486522Y-116251860D01*
X173506665Y-116261059D01*
X173513947Y-116272390D01*
X173524729Y-116280462D01*
X173532466Y-116301207D01*
X173544439Y-116319837D01*
X173547590Y-116341755D01*
X173549146Y-116345926D01*
X173549462Y-116354772D01*
X173549462Y-116500034D01*
X173548669Y-116514031D01*
X173538330Y-116605037D01*
X173532063Y-116632285D01*
X173503947Y-116712001D01*
X173491730Y-116737157D01*
X173446462Y-116808551D01*
X173428922Y-116830327D01*
X173368808Y-116889763D01*
X173346836Y-116907054D01*
X173274940Y-116951507D01*
X173249647Y-116963438D01*
X173169610Y-116990652D01*
X173142292Y-116996611D01*
X173051033Y-117005932D01*
X173037046Y-117006566D01*
X172977044Y-117005894D01*
X172965004Y-117006616D01*
X133798770Y-117006616D01*
X133784777Y-117005824D01*
X133777492Y-117004996D01*
X133693768Y-116995487D01*
X133666521Y-116989220D01*
X133586788Y-116961101D01*
X133561635Y-116948887D01*
X133490237Y-116903622D01*
X133468462Y-116886086D01*
X133413324Y-116830327D01*
X133409016Y-116825969D01*
X133391726Y-116804002D01*
X133347257Y-116732090D01*
X133335318Y-116706775D01*
X133334692Y-116704933D01*
X133331758Y-116635125D01*
X133367031Y-116574812D01*
X133429312Y-116543144D01*
X133498827Y-116550175D01*
X133499378Y-116550401D01*
X133652219Y-116613710D01*
X133867537Y-116671404D01*
X134088543Y-116700500D01*
X134088550Y-116700500D01*
X134311450Y-116700500D01*
X134311457Y-116700500D01*
X134532463Y-116671404D01*
X134747781Y-116613710D01*
X134953726Y-116528405D01*
X135146774Y-116416948D01*
X135323624Y-116281247D01*
X135481247Y-116123624D01*
X135616948Y-115946774D01*
X135728405Y-115753726D01*
X135813710Y-115547781D01*
X135871404Y-115332463D01*
X135900500Y-115111457D01*
X135900500Y-114888543D01*
X135871404Y-114667537D01*
X135813710Y-114452219D01*
X135800562Y-114420478D01*
X135752261Y-114303868D01*
X135728405Y-114246274D01*
X135616948Y-114053226D01*
X135520252Y-113927209D01*
X135481248Y-113876377D01*
X135481242Y-113876370D01*
X135323629Y-113718757D01*
X135323622Y-113718751D01*
X135146782Y-113583058D01*
X135146780Y-113583057D01*
X135146774Y-113583052D01*
X134953726Y-113471595D01*
X134953722Y-113471593D01*
X134747790Y-113386293D01*
X134747783Y-113386291D01*
X134747781Y-113386290D01*
X134532463Y-113328596D01*
X134532457Y-113328595D01*
X134532452Y-113328594D01*
X134311466Y-113299501D01*
X134311463Y-113299500D01*
X134311457Y-113299500D01*
X134088543Y-113299500D01*
X134088537Y-113299500D01*
X134088533Y-113299501D01*
X133867547Y-113328594D01*
X133867540Y-113328595D01*
X133867537Y-113328596D01*
X133700837Y-113373263D01*
X133652219Y-113386290D01*
X133652209Y-113386293D01*
X133446277Y-113471593D01*
X133446273Y-113471595D01*
X133253226Y-113583052D01*
X133253217Y-113583058D01*
X133076377Y-113718751D01*
X133076370Y-113718757D01*
X132918757Y-113876370D01*
X132918751Y-113876377D01*
X132783058Y-114053217D01*
X132783052Y-114053226D01*
X132675872Y-114238865D01*
X132625304Y-114287080D01*
X132556697Y-114300302D01*
X132511566Y-114286558D01*
X132511515Y-114286672D01*
X132510645Y-114286278D01*
X132509472Y-114285921D01*
X132507507Y-114284858D01*
X132313496Y-114197038D01*
X132313494Y-114197037D01*
X132109019Y-114137492D01*
X132109016Y-114137491D01*
X132109004Y-114137489D01*
X131898184Y-114107418D01*
X131791699Y-114107478D01*
X123270931Y-114107478D01*
X123203892Y-114087793D01*
X123158137Y-114034989D01*
X123146931Y-113983478D01*
X123146931Y-111978006D01*
X125150000Y-111978006D01*
X125150000Y-112221993D01*
X125188165Y-112462959D01*
X125263560Y-112694998D01*
X125374323Y-112912380D01*
X125441543Y-113004901D01*
X125441544Y-113004902D01*
X126135388Y-112311058D01*
X126140890Y-112331591D01*
X126219882Y-112468408D01*
X126331592Y-112580118D01*
X126468409Y-112659110D01*
X126488940Y-112664611D01*
X125795096Y-113358454D01*
X125795097Y-113358456D01*
X125887619Y-113425676D01*
X126105001Y-113536439D01*
X126337040Y-113611834D01*
X126578007Y-113650000D01*
X126821993Y-113650000D01*
X127062959Y-113611834D01*
X127294998Y-113536439D01*
X127512377Y-113425678D01*
X127604901Y-113358454D01*
X127604902Y-113358454D01*
X126911058Y-112664611D01*
X126931591Y-112659110D01*
X127068408Y-112580118D01*
X127180118Y-112468408D01*
X127259110Y-112331591D01*
X127264611Y-112311059D01*
X127958454Y-113004902D01*
X127958454Y-113004901D01*
X128025678Y-112912377D01*
X128136439Y-112694998D01*
X128211834Y-112462959D01*
X128250000Y-112221993D01*
X128250000Y-111978006D01*
X128211834Y-111737040D01*
X128166907Y-111598772D01*
X128166906Y-111598770D01*
X128156434Y-111566540D01*
X132138200Y-111566540D01*
X132138200Y-111713459D01*
X132166858Y-111857534D01*
X132166861Y-111857544D01*
X132223078Y-111993266D01*
X132223083Y-111993275D01*
X132304698Y-112115419D01*
X132304701Y-112115423D01*
X132408576Y-112219298D01*
X132408580Y-112219301D01*
X132530724Y-112300916D01*
X132530730Y-112300919D01*
X132530731Y-112300920D01*
X132666458Y-112357140D01*
X132810540Y-112385799D01*
X132810544Y-112385800D01*
X132810545Y-112385800D01*
X132957456Y-112385800D01*
X132957457Y-112385799D01*
X133101542Y-112357140D01*
X133237269Y-112300920D01*
X133359420Y-112219301D01*
X133463301Y-112115420D01*
X133544920Y-111993269D01*
X133601140Y-111857542D01*
X133629800Y-111713455D01*
X133629800Y-111566545D01*
X133601140Y-111422458D01*
X133544920Y-111286731D01*
X133544919Y-111286730D01*
X133544916Y-111286724D01*
X133463301Y-111164580D01*
X133463298Y-111164576D01*
X133359423Y-111060701D01*
X133359419Y-111060698D01*
X133237275Y-110979083D01*
X133237266Y-110979078D01*
X133126611Y-110933244D01*
X133101542Y-110922860D01*
X133101538Y-110922859D01*
X133101534Y-110922858D01*
X132957459Y-110894200D01*
X132957455Y-110894200D01*
X132810545Y-110894200D01*
X132810540Y-110894200D01*
X132666465Y-110922858D01*
X132666455Y-110922861D01*
X132530733Y-110979078D01*
X132530724Y-110979083D01*
X132408580Y-111060698D01*
X132408576Y-111060701D01*
X132304701Y-111164576D01*
X132304698Y-111164580D01*
X132223083Y-111286724D01*
X132223078Y-111286733D01*
X132166861Y-111422455D01*
X132166858Y-111422465D01*
X132138200Y-111566540D01*
X128156434Y-111566540D01*
X128136439Y-111505003D01*
X128025676Y-111287619D01*
X127958456Y-111195097D01*
X127958454Y-111195096D01*
X127264611Y-111888940D01*
X127259110Y-111868409D01*
X127180118Y-111731592D01*
X127068408Y-111619882D01*
X126931591Y-111540890D01*
X126911057Y-111535388D01*
X127604902Y-110841544D01*
X127604901Y-110841543D01*
X127512380Y-110774323D01*
X127294998Y-110663560D01*
X127062959Y-110588165D01*
X126821993Y-110550000D01*
X126578007Y-110550000D01*
X126337040Y-110588165D01*
X126105001Y-110663560D01*
X125887626Y-110774319D01*
X125795097Y-110841544D01*
X126488941Y-111535388D01*
X126468409Y-111540890D01*
X126331592Y-111619882D01*
X126219882Y-111731592D01*
X126140890Y-111868409D01*
X126135388Y-111888941D01*
X125441544Y-111195097D01*
X125374319Y-111287626D01*
X125263560Y-111505001D01*
X125188165Y-111737040D01*
X125150000Y-111978006D01*
X123146931Y-111978006D01*
X123146931Y-106037441D01*
X125522500Y-106037441D01*
X125522500Y-108162558D01*
X125529898Y-108199749D01*
X125558077Y-108241922D01*
X125600250Y-108270101D01*
X125600252Y-108270102D01*
X125628205Y-108275662D01*
X125637441Y-108277500D01*
X125637442Y-108277500D01*
X127762559Y-108277500D01*
X127769957Y-108276028D01*
X127799748Y-108270102D01*
X127841922Y-108241922D01*
X127870102Y-108199748D01*
X127877500Y-108162558D01*
X127877500Y-107651500D01*
X127897185Y-107584461D01*
X127949989Y-107538706D01*
X128001500Y-107527500D01*
X132071562Y-107527500D01*
X132138601Y-107547185D01*
X132159243Y-107563819D01*
X135349534Y-110754110D01*
X135383019Y-110815433D01*
X135378035Y-110885125D01*
X135336163Y-110941058D01*
X135270699Y-110965475D01*
X135214401Y-110956352D01*
X135133548Y-110922862D01*
X135133544Y-110922860D01*
X135133542Y-110922860D01*
X135133538Y-110922859D01*
X135133534Y-110922858D01*
X134989459Y-110894200D01*
X134989455Y-110894200D01*
X134842545Y-110894200D01*
X134842540Y-110894200D01*
X134698465Y-110922858D01*
X134698455Y-110922861D01*
X134562733Y-110979078D01*
X134562724Y-110979083D01*
X134440580Y-111060698D01*
X134440576Y-111060701D01*
X134336701Y-111164576D01*
X134336698Y-111164580D01*
X134255083Y-111286724D01*
X134255078Y-111286733D01*
X134198861Y-111422455D01*
X134198858Y-111422465D01*
X134170200Y-111566540D01*
X134170200Y-111713459D01*
X134198858Y-111857534D01*
X134198861Y-111857544D01*
X134255078Y-111993266D01*
X134255083Y-111993275D01*
X134336698Y-112115419D01*
X134336701Y-112115423D01*
X134440576Y-112219298D01*
X134440580Y-112219301D01*
X134562724Y-112300916D01*
X134562730Y-112300919D01*
X134562731Y-112300920D01*
X134698458Y-112357140D01*
X134842540Y-112385799D01*
X134842544Y-112385800D01*
X134842545Y-112385800D01*
X134989456Y-112385800D01*
X134989457Y-112385799D01*
X135133542Y-112357140D01*
X135269269Y-112300920D01*
X135391420Y-112219301D01*
X135495301Y-112115420D01*
X135576920Y-111993269D01*
X135633140Y-111857542D01*
X135661800Y-111713455D01*
X135661800Y-111566545D01*
X135633140Y-111422458D01*
X135599646Y-111341598D01*
X135592178Y-111272129D01*
X135623453Y-111209650D01*
X135683542Y-111173998D01*
X135753367Y-111176492D01*
X135801889Y-111206465D01*
X136261181Y-111665757D01*
X136294666Y-111727080D01*
X136297500Y-111753438D01*
X136297500Y-112070000D01*
X136297500Y-112070002D01*
X136297499Y-112070002D01*
X136307584Y-112120698D01*
X136307586Y-112120706D01*
X136323694Y-112159595D01*
X136323699Y-112159604D01*
X136328010Y-112167500D01*
X136337271Y-112184459D01*
X136395404Y-112231305D01*
X136434295Y-112247414D01*
X136446714Y-112249884D01*
X136484997Y-112257500D01*
X136485000Y-112257500D01*
X136801562Y-112257500D01*
X136831002Y-112266144D01*
X136860989Y-112272668D01*
X136866004Y-112276422D01*
X136868601Y-112277185D01*
X136889243Y-112293819D01*
X136936243Y-112340819D01*
X136969728Y-112402142D01*
X136964744Y-112471834D01*
X136922872Y-112527767D01*
X136857408Y-112552184D01*
X136848562Y-112552500D01*
X136484998Y-112552500D01*
X136434301Y-112562584D01*
X136434293Y-112562586D01*
X136395404Y-112578694D01*
X136395395Y-112578699D01*
X136370541Y-112592270D01*
X136323695Y-112650403D01*
X136323694Y-112650405D01*
X136307586Y-112689293D01*
X136307584Y-112689301D01*
X136297500Y-112739997D01*
X136297500Y-112740000D01*
X136297500Y-113340000D01*
X136297500Y-113340002D01*
X136297499Y-113340002D01*
X136307584Y-113390698D01*
X136307586Y-113390706D01*
X136323694Y-113429595D01*
X136323699Y-113429604D01*
X136336667Y-113453354D01*
X136337271Y-113454459D01*
X136395404Y-113501305D01*
X136434295Y-113517414D01*
X136446714Y-113519884D01*
X136484997Y-113527500D01*
X136485000Y-113527500D01*
X136973500Y-113527500D01*
X136982185Y-113530050D01*
X136991147Y-113528762D01*
X137015187Y-113539740D01*
X137040539Y-113547185D01*
X137046466Y-113554025D01*
X137054703Y-113557787D01*
X137068992Y-113580021D01*
X137086294Y-113599989D01*
X137088581Y-113610503D01*
X137092477Y-113616565D01*
X137097500Y-113651500D01*
X137097500Y-113698500D01*
X137077815Y-113765539D01*
X137025011Y-113811294D01*
X136973500Y-113822500D01*
X136484998Y-113822500D01*
X136434301Y-113832584D01*
X136434293Y-113832586D01*
X136395404Y-113848694D01*
X136395395Y-113848699D01*
X136370541Y-113862270D01*
X136323695Y-113920403D01*
X136323694Y-113920405D01*
X136307586Y-113959293D01*
X136307584Y-113959301D01*
X136297500Y-114009997D01*
X136297500Y-114010000D01*
X136297500Y-114610000D01*
X136297500Y-114610002D01*
X136297499Y-114610002D01*
X136307584Y-114660698D01*
X136307586Y-114660706D01*
X136323694Y-114699595D01*
X136323695Y-114699596D01*
X136337271Y-114724459D01*
X136395404Y-114771305D01*
X136434295Y-114787414D01*
X136446714Y-114789884D01*
X136484997Y-114797500D01*
X136485000Y-114797500D01*
X141035002Y-114797500D01*
X141060523Y-114792422D01*
X141085705Y-114787414D01*
X141124596Y-114771305D01*
X141149459Y-114757729D01*
X141196305Y-114699596D01*
X141212414Y-114660705D01*
X141222500Y-114610000D01*
X141222500Y-110715595D01*
X141242185Y-110648556D01*
X141258819Y-110627914D01*
X141572863Y-110313870D01*
X141572865Y-110313868D01*
X141607500Y-110230253D01*
X141607500Y-110139747D01*
X141607500Y-110009379D01*
X141627185Y-109942340D01*
X141679989Y-109896585D01*
X141747686Y-109886440D01*
X141820000Y-109895960D01*
X141820000Y-109324000D01*
X141822550Y-109315314D01*
X141821262Y-109306353D01*
X141832240Y-109282312D01*
X141839685Y-109256961D01*
X141846525Y-109251033D01*
X141850287Y-109242797D01*
X141872521Y-109228507D01*
X141892489Y-109211206D01*
X141903003Y-109208918D01*
X141909065Y-109205023D01*
X141944000Y-109200000D01*
X142096000Y-109200000D01*
X142163039Y-109219685D01*
X142208794Y-109272489D01*
X142220000Y-109324000D01*
X142220000Y-109895959D01*
X142241990Y-109915244D01*
X142279413Y-109974247D01*
X142278997Y-110044115D01*
X142240873Y-110102667D01*
X142224953Y-110112435D01*
X142225406Y-110113113D01*
X142173077Y-110148077D01*
X142144898Y-110190250D01*
X142137500Y-110227441D01*
X142137500Y-110752558D01*
X142144898Y-110789749D01*
X142173077Y-110831922D01*
X142215250Y-110860101D01*
X142215252Y-110860102D01*
X142243205Y-110865662D01*
X142252441Y-110867500D01*
X142903561Y-110867500D01*
X142970600Y-110887185D01*
X143016355Y-110939989D01*
X143026299Y-111009147D01*
X142997274Y-111072703D01*
X142991242Y-111079181D01*
X142774243Y-111296181D01*
X142715818Y-111328999D01*
X142701398Y-111332500D01*
X142658719Y-111332500D01*
X142549991Y-111361633D01*
X142527194Y-111374794D01*
X142509878Y-111378999D01*
X142496123Y-111378346D01*
X142480622Y-111382500D01*
X142252441Y-111382500D01*
X142215250Y-111389898D01*
X142173077Y-111418077D01*
X142144898Y-111460250D01*
X142137500Y-111497441D01*
X142137500Y-112022558D01*
X142144898Y-112059749D01*
X142173077Y-112101922D01*
X142225406Y-112136887D01*
X142224067Y-112138889D01*
X142265354Y-112172158D01*
X142287421Y-112238452D01*
X142287500Y-112242882D01*
X142287500Y-112547117D01*
X142267815Y-112614156D01*
X142224471Y-112651713D01*
X142225406Y-112653113D01*
X142173077Y-112688077D01*
X142144898Y-112730250D01*
X142137500Y-112767441D01*
X142137500Y-113292558D01*
X142144898Y-113329749D01*
X142173077Y-113371922D01*
X142225406Y-113406887D01*
X142224067Y-113408889D01*
X142265354Y-113442158D01*
X142287421Y-113508452D01*
X142287500Y-113512882D01*
X142287500Y-113817117D01*
X142267815Y-113884156D01*
X142224471Y-113921713D01*
X142225406Y-113923113D01*
X142173077Y-113958077D01*
X142144898Y-114000250D01*
X142137500Y-114037441D01*
X142137500Y-114562558D01*
X142144898Y-114599749D01*
X142173077Y-114641922D01*
X142215250Y-114670101D01*
X142215252Y-114670102D01*
X142242730Y-114675568D01*
X142252441Y-114677500D01*
X142252442Y-114677500D01*
X142480622Y-114677500D01*
X142542622Y-114694112D01*
X142549991Y-114698367D01*
X142658719Y-114727500D01*
X142658721Y-114727500D01*
X142771279Y-114727500D01*
X142771281Y-114727500D01*
X142880009Y-114698367D01*
X142887377Y-114694112D01*
X142949378Y-114677500D01*
X143177559Y-114677500D01*
X143187270Y-114675568D01*
X143214748Y-114670102D01*
X143256922Y-114641922D01*
X143285102Y-114599748D01*
X143292500Y-114562558D01*
X143292500Y-114363549D01*
X144649500Y-114363549D01*
X144649500Y-114586450D01*
X144649501Y-114586466D01*
X144678594Y-114807452D01*
X144678595Y-114807457D01*
X144678596Y-114807463D01*
X144736290Y-115022780D01*
X144736293Y-115022790D01*
X144821593Y-115228722D01*
X144821595Y-115228726D01*
X144933052Y-115421774D01*
X144933057Y-115421780D01*
X144933058Y-115421782D01*
X145068751Y-115598622D01*
X145068757Y-115598629D01*
X145226370Y-115756242D01*
X145226376Y-115756247D01*
X145403226Y-115891948D01*
X145596274Y-116003405D01*
X145802219Y-116088710D01*
X146017537Y-116146404D01*
X146238543Y-116175500D01*
X146238550Y-116175500D01*
X146461450Y-116175500D01*
X146461457Y-116175500D01*
X146682463Y-116146404D01*
X146897781Y-116088710D01*
X147103726Y-116003405D01*
X147296774Y-115891948D01*
X147473624Y-115756247D01*
X147631247Y-115598624D01*
X147766948Y-115421774D01*
X147878405Y-115228726D01*
X147963710Y-115022781D01*
X148021404Y-114807463D01*
X148050500Y-114586457D01*
X148050500Y-114363549D01*
X152649500Y-114363549D01*
X152649500Y-114586450D01*
X152649501Y-114586466D01*
X152678594Y-114807452D01*
X152678595Y-114807457D01*
X152678596Y-114807463D01*
X152736290Y-115022780D01*
X152736293Y-115022790D01*
X152821593Y-115228722D01*
X152821595Y-115228726D01*
X152933052Y-115421774D01*
X152933057Y-115421780D01*
X152933058Y-115421782D01*
X153068751Y-115598622D01*
X153068757Y-115598629D01*
X153226370Y-115756242D01*
X153226376Y-115756247D01*
X153403226Y-115891948D01*
X153596274Y-116003405D01*
X153802219Y-116088710D01*
X154017537Y-116146404D01*
X154238543Y-116175500D01*
X154238550Y-116175500D01*
X154461450Y-116175500D01*
X154461457Y-116175500D01*
X154682463Y-116146404D01*
X154863692Y-116097844D01*
X163200000Y-116097844D01*
X163206401Y-116157372D01*
X163206403Y-116157379D01*
X163256645Y-116292086D01*
X163256649Y-116292093D01*
X163342809Y-116407187D01*
X163342812Y-116407190D01*
X163457906Y-116493350D01*
X163457913Y-116493354D01*
X163592620Y-116543596D01*
X163592627Y-116543598D01*
X163652155Y-116549999D01*
X163652172Y-116550000D01*
X164700000Y-116550000D01*
X165200000Y-116550000D01*
X166247828Y-116550000D01*
X166247844Y-116549999D01*
X166307371Y-116543598D01*
X166381666Y-116515888D01*
X166451358Y-116510904D01*
X166468334Y-116515888D01*
X166542628Y-116543598D01*
X166542627Y-116543598D01*
X166602155Y-116549999D01*
X166602172Y-116550000D01*
X167650000Y-116550000D01*
X168150000Y-116550000D01*
X169197828Y-116550000D01*
X169197844Y-116549999D01*
X169257372Y-116543598D01*
X169257379Y-116543596D01*
X169392086Y-116493354D01*
X169392093Y-116493350D01*
X169507187Y-116407190D01*
X169507190Y-116407187D01*
X169593350Y-116292093D01*
X169593354Y-116292086D01*
X169643596Y-116157379D01*
X169643598Y-116157372D01*
X169649999Y-116097844D01*
X169650000Y-116097827D01*
X169650000Y-115700000D01*
X168150000Y-115700000D01*
X168150000Y-116550000D01*
X167650000Y-116550000D01*
X167650000Y-115700000D01*
X165200000Y-115700000D01*
X165200000Y-116550000D01*
X164700000Y-116550000D01*
X164700000Y-115700000D01*
X163200000Y-115700000D01*
X163200000Y-116097844D01*
X154863692Y-116097844D01*
X154897781Y-116088710D01*
X155103726Y-116003405D01*
X155296774Y-115891948D01*
X155473624Y-115756247D01*
X155631247Y-115598624D01*
X155766948Y-115421774D01*
X155878405Y-115228726D01*
X155963710Y-115022781D01*
X156021404Y-114807463D01*
X156050500Y-114586457D01*
X156050500Y-114363543D01*
X156021404Y-114142537D01*
X155963710Y-113927219D01*
X155878405Y-113721274D01*
X155878403Y-113721271D01*
X155878401Y-113721266D01*
X155833417Y-113643352D01*
X155833416Y-113643351D01*
X155820210Y-113620478D01*
X155801136Y-113587441D01*
X157420000Y-113587441D01*
X157420000Y-114562558D01*
X157427398Y-114599749D01*
X157455577Y-114641922D01*
X157497750Y-114670101D01*
X157497752Y-114670102D01*
X157525230Y-114675568D01*
X157534941Y-114677500D01*
X157534942Y-114677500D01*
X158985059Y-114677500D01*
X158994770Y-114675568D01*
X159022248Y-114670102D01*
X159064422Y-114641922D01*
X159092602Y-114599748D01*
X159100000Y-114562558D01*
X159100000Y-114426500D01*
X159119685Y-114359461D01*
X159172489Y-114313706D01*
X159224000Y-114302500D01*
X159670252Y-114302500D01*
X159670253Y-114302500D01*
X159753868Y-114267865D01*
X159974460Y-114047273D01*
X160699500Y-114047273D01*
X160699500Y-114152727D01*
X160726793Y-114254587D01*
X160779520Y-114345913D01*
X160854087Y-114420480D01*
X160945413Y-114473207D01*
X161047273Y-114500500D01*
X161047275Y-114500500D01*
X161152724Y-114500500D01*
X161152727Y-114500500D01*
X161243143Y-114476273D01*
X161312987Y-114477936D01*
X161370850Y-114517098D01*
X161396849Y-114571853D01*
X161402398Y-114599749D01*
X161430577Y-114641922D01*
X161472750Y-114670101D01*
X161472752Y-114670102D01*
X161500230Y-114675568D01*
X161509941Y-114677500D01*
X161509942Y-114677500D01*
X162960059Y-114677500D01*
X162969770Y-114675568D01*
X162997248Y-114670102D01*
X163010454Y-114661277D01*
X163077130Y-114640397D01*
X163144511Y-114658879D01*
X163191203Y-114710856D01*
X163202638Y-114777631D01*
X163200000Y-114802168D01*
X163200000Y-115200000D01*
X164700000Y-115200000D01*
X165200000Y-115200000D01*
X167650000Y-115200000D01*
X168150000Y-115200000D01*
X169650000Y-115200000D01*
X169650000Y-114802172D01*
X169649999Y-114802155D01*
X169643598Y-114742627D01*
X169643596Y-114742620D01*
X169593354Y-114607913D01*
X169593350Y-114607906D01*
X169507190Y-114492812D01*
X169507187Y-114492809D01*
X169392093Y-114406649D01*
X169392086Y-114406645D01*
X169257379Y-114356403D01*
X169257372Y-114356401D01*
X169197844Y-114350000D01*
X168150000Y-114350000D01*
X168150000Y-115200000D01*
X167650000Y-115200000D01*
X167650000Y-114350000D01*
X166602155Y-114350000D01*
X166542627Y-114356401D01*
X166542617Y-114356403D01*
X166468332Y-114384110D01*
X166398641Y-114389094D01*
X166381668Y-114384110D01*
X166307382Y-114356403D01*
X166307372Y-114356401D01*
X166247844Y-114350000D01*
X165200000Y-114350000D01*
X165200000Y-115200000D01*
X164700000Y-115200000D01*
X164700000Y-114350000D01*
X163652155Y-114350000D01*
X163592627Y-114356401D01*
X163592620Y-114356403D01*
X163457913Y-114406645D01*
X163457906Y-114406649D01*
X163342812Y-114492809D01*
X163298266Y-114552315D01*
X163242332Y-114594185D01*
X163172640Y-114599169D01*
X163111318Y-114565683D01*
X163077833Y-114504360D01*
X163075000Y-114478003D01*
X163075000Y-113657441D01*
X163067647Y-113620480D01*
X163067602Y-113620252D01*
X163067601Y-113620250D01*
X163039422Y-113578077D01*
X162997249Y-113549898D01*
X162960059Y-113542500D01*
X162960058Y-113542500D01*
X161509942Y-113542500D01*
X161509941Y-113542500D01*
X161472750Y-113549898D01*
X161430577Y-113578077D01*
X161402397Y-113620251D01*
X161400625Y-113629162D01*
X161368236Y-113691071D01*
X161307518Y-113725641D01*
X161246917Y-113724738D01*
X161152727Y-113699500D01*
X161047273Y-113699500D01*
X160945413Y-113726793D01*
X160945410Y-113726794D01*
X160854085Y-113779521D01*
X160779521Y-113854085D01*
X160726794Y-113945410D01*
X160726793Y-113945413D01*
X160699500Y-114047273D01*
X159974460Y-114047273D01*
X160284914Y-113736819D01*
X160346237Y-113703334D01*
X160372595Y-113700500D01*
X160452725Y-113700500D01*
X160452727Y-113700500D01*
X160554587Y-113673207D01*
X160645913Y-113620480D01*
X160720480Y-113545913D01*
X160773207Y-113454587D01*
X160800500Y-113352727D01*
X160800500Y-113247273D01*
X160773207Y-113145413D01*
X160720480Y-113054087D01*
X160645913Y-112979520D01*
X160554587Y-112926793D01*
X160452727Y-112899500D01*
X160347273Y-112899500D01*
X160245413Y-112926793D01*
X160245410Y-112926794D01*
X160154085Y-112979521D01*
X160079521Y-113054085D01*
X160026794Y-113145410D01*
X160026793Y-113145413D01*
X159999500Y-113247273D01*
X159999500Y-113327403D01*
X159979815Y-113394442D01*
X159963181Y-113415084D01*
X159860853Y-113517413D01*
X159651473Y-113726794D01*
X159567086Y-113811181D01*
X159505763Y-113844666D01*
X159479405Y-113847500D01*
X159224000Y-113847500D01*
X159156961Y-113827815D01*
X159111206Y-113775011D01*
X159100000Y-113723500D01*
X159100000Y-113587441D01*
X159098137Y-113578077D01*
X159092602Y-113550252D01*
X159092601Y-113550250D01*
X159064422Y-113508077D01*
X159022249Y-113479898D01*
X158985059Y-113472500D01*
X158985058Y-113472500D01*
X157534942Y-113472500D01*
X157534941Y-113472500D01*
X157497750Y-113479898D01*
X157455577Y-113508077D01*
X157427398Y-113550250D01*
X157420000Y-113587441D01*
X155801136Y-113587441D01*
X155766948Y-113528226D01*
X155723492Y-113471593D01*
X155631248Y-113351377D01*
X155631242Y-113351370D01*
X155473629Y-113193757D01*
X155473622Y-113193751D01*
X155296782Y-113058058D01*
X155296780Y-113058057D01*
X155296774Y-113058052D01*
X155103726Y-112946595D01*
X155103722Y-112946593D01*
X154897790Y-112861293D01*
X154897783Y-112861291D01*
X154897781Y-112861290D01*
X154682463Y-112803596D01*
X154682457Y-112803595D01*
X154682452Y-112803594D01*
X154461466Y-112774501D01*
X154461463Y-112774500D01*
X154461457Y-112774500D01*
X154238543Y-112774500D01*
X154238537Y-112774500D01*
X154238533Y-112774501D01*
X154017547Y-112803594D01*
X154017540Y-112803595D01*
X154017537Y-112803596D01*
X153802219Y-112861290D01*
X153802209Y-112861293D01*
X153596277Y-112946593D01*
X153596273Y-112946595D01*
X153403226Y-113058052D01*
X153403217Y-113058058D01*
X153226377Y-113193751D01*
X153226370Y-113193757D01*
X153068757Y-113351370D01*
X153068751Y-113351377D01*
X152933058Y-113528217D01*
X152933052Y-113528226D01*
X152821595Y-113721273D01*
X152821593Y-113721277D01*
X152736293Y-113927209D01*
X152736290Y-113927219D01*
X152716722Y-114000250D01*
X152678597Y-114142534D01*
X152678594Y-114142547D01*
X152649501Y-114363533D01*
X152649500Y-114363549D01*
X148050500Y-114363549D01*
X148050500Y-114363543D01*
X148021404Y-114142537D01*
X147963710Y-113927219D01*
X147878405Y-113721274D01*
X147766948Y-113528226D01*
X147723492Y-113471593D01*
X147631248Y-113351377D01*
X147631242Y-113351370D01*
X147473629Y-113193757D01*
X147473622Y-113193751D01*
X147296782Y-113058058D01*
X147296780Y-113058057D01*
X147296774Y-113058052D01*
X147103726Y-112946595D01*
X147103722Y-112946593D01*
X146897790Y-112861293D01*
X146897783Y-112861291D01*
X146897781Y-112861290D01*
X146682463Y-112803596D01*
X146682457Y-112803595D01*
X146682452Y-112803594D01*
X146461466Y-112774501D01*
X146461463Y-112774500D01*
X146461457Y-112774500D01*
X146238543Y-112774500D01*
X146238537Y-112774500D01*
X146238533Y-112774501D01*
X146017547Y-112803594D01*
X146017540Y-112803595D01*
X146017537Y-112803596D01*
X145802219Y-112861290D01*
X145802209Y-112861293D01*
X145596277Y-112946593D01*
X145596273Y-112946595D01*
X145403226Y-113058052D01*
X145403217Y-113058058D01*
X145226377Y-113193751D01*
X145226370Y-113193757D01*
X145068757Y-113351370D01*
X145068751Y-113351377D01*
X144933058Y-113528217D01*
X144933052Y-113528226D01*
X144821595Y-113721273D01*
X144821593Y-113721277D01*
X144736293Y-113927209D01*
X144736290Y-113927219D01*
X144716722Y-114000250D01*
X144678597Y-114142534D01*
X144678594Y-114142547D01*
X144649501Y-114363533D01*
X144649500Y-114363549D01*
X143292500Y-114363549D01*
X143292500Y-114037442D01*
X143285102Y-114000252D01*
X143273894Y-113983478D01*
X143256922Y-113958077D01*
X143204594Y-113923113D01*
X143205931Y-113921111D01*
X143164638Y-113887828D01*
X143142579Y-113821532D01*
X143142500Y-113817117D01*
X143142500Y-113512882D01*
X143162185Y-113445843D01*
X143205528Y-113408285D01*
X143204594Y-113406887D01*
X143256922Y-113371922D01*
X143270650Y-113351377D01*
X143285102Y-113329748D01*
X143292500Y-113292558D01*
X143292500Y-112767442D01*
X143285102Y-112730252D01*
X143285101Y-112730250D01*
X143256922Y-112688077D01*
X143204594Y-112653113D01*
X143205931Y-112651111D01*
X143164638Y-112617828D01*
X143142579Y-112551532D01*
X143142500Y-112547117D01*
X143142500Y-112242882D01*
X143162185Y-112175843D01*
X143205528Y-112138285D01*
X143204594Y-112136887D01*
X143256922Y-112101922D01*
X143285101Y-112059749D01*
X143285100Y-112059749D01*
X143285102Y-112059748D01*
X143292500Y-112022558D01*
X143293689Y-112016582D01*
X143296195Y-112017080D01*
X143318129Y-111962640D01*
X143327740Y-111951835D01*
X145612085Y-109667491D01*
X145668367Y-109570009D01*
X145668367Y-109570006D01*
X145672431Y-109562969D01*
X145673795Y-109563756D01*
X145711784Y-109516603D01*
X145726213Y-109507970D01*
X145860939Y-109439324D01*
X146004517Y-109335009D01*
X146130009Y-109209517D01*
X146234324Y-109065939D01*
X146314895Y-108907810D01*
X146328410Y-108866216D01*
X146369736Y-108739027D01*
X146369736Y-108739026D01*
X146369737Y-108739023D01*
X146397500Y-108563736D01*
X146397500Y-108386264D01*
X146369737Y-108210977D01*
X146369736Y-108210973D01*
X146369736Y-108210972D01*
X146314896Y-108042192D01*
X146297466Y-108007984D01*
X146234324Y-107884061D01*
X146201163Y-107838418D01*
X146130014Y-107740489D01*
X146130010Y-107740484D01*
X146004515Y-107614989D01*
X146004510Y-107614985D01*
X145860940Y-107510676D01*
X145843881Y-107501984D01*
X145793086Y-107454010D01*
X145776291Y-107386189D01*
X145798829Y-107320054D01*
X145853544Y-107276603D01*
X145900177Y-107267500D01*
X146200305Y-107267500D01*
X146200306Y-107267500D01*
X146249985Y-107246922D01*
X146265545Y-107240477D01*
X146353526Y-107152495D01*
X146357657Y-107149028D01*
X146384917Y-107137090D01*
X146411026Y-107122834D01*
X146419571Y-107121915D01*
X146421659Y-107121001D01*
X146424239Y-107121413D01*
X146437384Y-107120000D01*
X146485999Y-107120000D01*
X146553038Y-107139685D01*
X146598793Y-107192489D01*
X146609999Y-107244000D01*
X146609999Y-107487499D01*
X146621973Y-107542543D01*
X146632211Y-107554357D01*
X146661238Y-107617912D01*
X146662500Y-107635561D01*
X146662500Y-109234747D01*
X146662500Y-109325253D01*
X146697135Y-109408868D01*
X146803182Y-109514916D01*
X146836666Y-109576238D01*
X146839500Y-109602596D01*
X146839500Y-109682727D01*
X146866793Y-109784587D01*
X146919520Y-109875913D01*
X146994087Y-109950480D01*
X147085413Y-110003207D01*
X147187273Y-110030500D01*
X147187275Y-110030500D01*
X147292725Y-110030500D01*
X147292727Y-110030500D01*
X147394587Y-110003207D01*
X147485913Y-109950480D01*
X147560480Y-109875913D01*
X147613207Y-109784587D01*
X147640500Y-109682727D01*
X147640500Y-109577273D01*
X147613207Y-109475413D01*
X147560480Y-109384087D01*
X147485913Y-109309520D01*
X147402170Y-109261171D01*
X147394589Y-109256794D01*
X147394588Y-109256793D01*
X147394587Y-109256793D01*
X147292727Y-109229500D01*
X147241500Y-109229500D01*
X147232814Y-109226949D01*
X147223853Y-109228238D01*
X147199812Y-109217259D01*
X147174461Y-109209815D01*
X147168533Y-109202974D01*
X147160297Y-109199213D01*
X147146007Y-109176978D01*
X147128706Y-109157011D01*
X147126418Y-109146496D01*
X147122523Y-109140435D01*
X147117500Y-109105500D01*
X147117500Y-108933255D01*
X147137185Y-108866216D01*
X147189989Y-108820461D01*
X147259147Y-108810517D01*
X147322703Y-108839542D01*
X147329181Y-108845574D01*
X147394087Y-108910480D01*
X147485413Y-108963207D01*
X147587273Y-108990500D01*
X147587275Y-108990500D01*
X147692725Y-108990500D01*
X147692727Y-108990500D01*
X147794587Y-108963207D01*
X147885913Y-108910480D01*
X147960480Y-108835913D01*
X148013207Y-108744587D01*
X148040500Y-108642727D01*
X148040500Y-108537273D01*
X148013207Y-108435413D01*
X147960480Y-108344087D01*
X147885913Y-108269520D01*
X147814663Y-108228384D01*
X147794589Y-108216794D01*
X147794588Y-108216793D01*
X147730973Y-108199748D01*
X147711904Y-108194638D01*
X147652245Y-108158274D01*
X147621716Y-108095427D01*
X147619999Y-108074864D01*
X147619999Y-107739000D01*
X147639684Y-107671961D01*
X147692488Y-107626206D01*
X147743999Y-107615000D01*
X148055057Y-107615000D01*
X148064353Y-107613150D01*
X148092246Y-107607602D01*
X148092250Y-107607598D01*
X148095042Y-107606443D01*
X148101632Y-107605734D01*
X148104223Y-107605219D01*
X148104269Y-107605450D01*
X148164511Y-107598973D01*
X148189951Y-107606442D01*
X148192748Y-107607600D01*
X148192751Y-107607602D01*
X148222542Y-107613528D01*
X148229940Y-107615000D01*
X148229941Y-107615000D01*
X148555058Y-107615000D01*
X148564354Y-107613150D01*
X148592247Y-107607602D01*
X148592251Y-107607598D01*
X148596641Y-107605781D01*
X148618347Y-107603446D01*
X148639025Y-107596445D01*
X148659757Y-107598994D01*
X148666110Y-107598311D01*
X148674136Y-107600034D01*
X148676576Y-107600643D01*
X148742499Y-107620000D01*
X148754101Y-107620000D01*
X148768892Y-107623693D01*
X148786411Y-107633964D01*
X148805892Y-107639685D01*
X148815933Y-107651273D01*
X148829166Y-107659032D01*
X148838350Y-107677144D01*
X148851647Y-107692489D01*
X148853829Y-107707668D01*
X148860766Y-107721347D01*
X148858700Y-107741546D01*
X148861591Y-107761647D01*
X148853708Y-107790375D01*
X148853660Y-107790854D01*
X148853534Y-107791011D01*
X148853413Y-107791454D01*
X148821501Y-107868493D01*
X148821500Y-107868497D01*
X148821500Y-107868498D01*
X148821500Y-109303747D01*
X148821500Y-109394253D01*
X148836660Y-109430853D01*
X148856136Y-109477870D01*
X149307135Y-109928868D01*
X149371132Y-109992865D01*
X149454747Y-110027500D01*
X149454748Y-110027500D01*
X154270321Y-110027500D01*
X154337360Y-110047185D01*
X154383115Y-110099989D01*
X154393059Y-110169147D01*
X154367148Y-110228961D01*
X154320365Y-110287441D01*
X154223703Y-110408267D01*
X154219565Y-110413724D01*
X154212072Y-110424154D01*
X154192552Y-110464125D01*
X154192551Y-110464126D01*
X154172866Y-110531168D01*
X154167500Y-110568493D01*
X154167500Y-111427039D01*
X154171497Y-111459335D01*
X154171498Y-111459343D01*
X154186231Y-111517959D01*
X154186236Y-111517971D01*
X154220362Y-111578670D01*
X154220364Y-111578674D01*
X154240170Y-111598770D01*
X154269407Y-111628437D01*
X154299432Y-111651258D01*
X154747565Y-111900221D01*
X154778676Y-111912659D01*
X154798751Y-111917861D01*
X154838891Y-111928263D01*
X154838896Y-111928264D01*
X154872133Y-111932500D01*
X154872134Y-111932500D01*
X156548629Y-111932500D01*
X156548638Y-111932500D01*
X156562803Y-111931741D01*
X156589161Y-111928907D01*
X156620451Y-111919109D01*
X156690310Y-111917861D01*
X156745186Y-111949762D01*
X157337509Y-112542085D01*
X157434991Y-112598367D01*
X157543719Y-112627500D01*
X157656281Y-112627500D01*
X163443500Y-112627500D01*
X163510539Y-112647185D01*
X163556294Y-112699989D01*
X163567500Y-112751500D01*
X163567500Y-113162558D01*
X163574898Y-113199749D01*
X163603077Y-113241922D01*
X163645250Y-113270101D01*
X163645252Y-113270102D01*
X163673205Y-113275662D01*
X163682441Y-113277500D01*
X163682442Y-113277500D01*
X166207559Y-113277500D01*
X166214957Y-113276028D01*
X166244748Y-113270102D01*
X166286922Y-113241922D01*
X166301738Y-113219749D01*
X166316898Y-113197061D01*
X166370510Y-113152255D01*
X166439835Y-113143548D01*
X166502862Y-113173702D01*
X166523102Y-113197061D01*
X166553076Y-113241921D01*
X166595250Y-113270101D01*
X166595252Y-113270102D01*
X166623205Y-113275662D01*
X166632441Y-113277500D01*
X166632442Y-113277500D01*
X169157559Y-113277500D01*
X169164957Y-113276028D01*
X169194748Y-113270102D01*
X169236922Y-113241922D01*
X169265102Y-113199748D01*
X169272500Y-113162558D01*
X169272500Y-113101500D01*
X169273496Y-113098106D01*
X169272689Y-113094664D01*
X169283267Y-113064830D01*
X169292185Y-113034461D01*
X169294856Y-113032145D01*
X169296039Y-113028812D01*
X169321071Y-113009430D01*
X169344989Y-112988706D01*
X169349312Y-112987564D01*
X169351285Y-112986038D01*
X169364688Y-112983506D01*
X169385646Y-112977976D01*
X169391063Y-112977500D01*
X169406281Y-112977500D01*
X169413706Y-112975510D01*
X169424487Y-112974563D01*
X169448550Y-112979389D01*
X169473085Y-112979971D01*
X169483699Y-112986440D01*
X169492992Y-112988304D01*
X169503589Y-112998562D01*
X169523022Y-113010406D01*
X169969989Y-113457373D01*
X169980542Y-113466852D01*
X170001184Y-113483486D01*
X170001187Y-113483487D01*
X170001189Y-113483489D01*
X170046992Y-113507448D01*
X170046993Y-113507449D01*
X170080935Y-113517415D01*
X170114031Y-113527133D01*
X170114029Y-113527133D01*
X170126349Y-113528904D01*
X170151362Y-113532500D01*
X170151364Y-113532500D01*
X170748629Y-113532500D01*
X170748638Y-113532500D01*
X170762803Y-113531741D01*
X170789161Y-113528907D01*
X170818762Y-113519637D01*
X170838491Y-113513460D01*
X170838491Y-113513459D01*
X170838497Y-113513458D01*
X170899820Y-113479973D01*
X170930011Y-113457373D01*
X172257373Y-112130011D01*
X172266852Y-112119458D01*
X172283486Y-112098816D01*
X172307448Y-112053008D01*
X172327133Y-111985969D01*
X172332500Y-111948638D01*
X172332500Y-111261994D01*
X172330405Y-111238528D01*
X172322626Y-111195299D01*
X172298364Y-111139456D01*
X172296758Y-111137307D01*
X172256547Y-111083489D01*
X172245780Y-111072703D01*
X172229900Y-111056794D01*
X172074160Y-110939989D01*
X171777100Y-110717193D01*
X171735279Y-110661222D01*
X171727500Y-110617993D01*
X171727500Y-107512457D01*
X171747185Y-107445418D01*
X171799989Y-107399663D01*
X171869147Y-107389719D01*
X171932703Y-107418744D01*
X171939181Y-107424776D01*
X174263273Y-109748868D01*
X174327270Y-109812865D01*
X174410885Y-109847500D01*
X174953341Y-109847500D01*
X175020380Y-109867185D01*
X175066135Y-109919989D01*
X175067902Y-109924048D01*
X175133746Y-110083013D01*
X175133753Y-110083026D01*
X175240725Y-110243119D01*
X175240728Y-110243123D01*
X175376876Y-110379271D01*
X175376880Y-110379274D01*
X175536973Y-110486246D01*
X175536986Y-110486253D01*
X175685806Y-110547896D01*
X175714874Y-110559936D01*
X175725827Y-110562114D01*
X175737229Y-110564383D01*
X175799140Y-110596768D01*
X175833714Y-110657483D01*
X175829975Y-110727253D01*
X175789108Y-110783925D01*
X175724090Y-110809506D01*
X175713038Y-110810000D01*
X175102155Y-110810000D01*
X175042627Y-110816401D01*
X175042620Y-110816403D01*
X174907913Y-110866645D01*
X174907906Y-110866649D01*
X174792812Y-110952809D01*
X174792809Y-110952812D01*
X174706649Y-111067906D01*
X174706645Y-111067913D01*
X174656403Y-111202620D01*
X174656401Y-111202627D01*
X174650000Y-111262155D01*
X174650000Y-111910000D01*
X175566988Y-111910000D01*
X175534075Y-111967007D01*
X175500000Y-112094174D01*
X175500000Y-112225826D01*
X175534075Y-112352993D01*
X175566988Y-112410000D01*
X174650000Y-112410000D01*
X174650000Y-113057844D01*
X174656401Y-113117372D01*
X174656403Y-113117379D01*
X174706645Y-113252086D01*
X174706649Y-113252093D01*
X174792809Y-113367187D01*
X174792812Y-113367190D01*
X174907906Y-113453350D01*
X174907913Y-113453354D01*
X175042620Y-113503596D01*
X175042627Y-113503598D01*
X175102155Y-113509999D01*
X175102172Y-113510000D01*
X175750000Y-113510000D01*
X175750000Y-112593012D01*
X175807007Y-112625925D01*
X175934174Y-112660000D01*
X176065826Y-112660000D01*
X176192993Y-112625925D01*
X176250000Y-112593012D01*
X176250000Y-113510000D01*
X176897828Y-113510000D01*
X176897844Y-113509999D01*
X176957372Y-113503598D01*
X176957379Y-113503596D01*
X177092086Y-113453354D01*
X177092093Y-113453350D01*
X177207187Y-113367190D01*
X177207190Y-113367187D01*
X177293350Y-113252093D01*
X177293354Y-113252086D01*
X177343596Y-113117379D01*
X177343598Y-113117372D01*
X177349999Y-113057844D01*
X177350000Y-113057827D01*
X177350000Y-112410000D01*
X176433012Y-112410000D01*
X176465925Y-112352993D01*
X176500000Y-112225826D01*
X176500000Y-112094174D01*
X176465925Y-111967007D01*
X176433012Y-111910000D01*
X177350000Y-111910000D01*
X177350000Y-111262172D01*
X177349999Y-111262155D01*
X177343598Y-111202627D01*
X177343596Y-111202620D01*
X177293354Y-111067913D01*
X177293350Y-111067906D01*
X177207190Y-110952812D01*
X177207187Y-110952809D01*
X177092093Y-110866649D01*
X177092086Y-110866645D01*
X176957379Y-110816403D01*
X176957372Y-110816401D01*
X176897844Y-110810000D01*
X176286962Y-110810000D01*
X176219923Y-110790315D01*
X176174168Y-110737511D01*
X176164224Y-110668353D01*
X176193249Y-110604797D01*
X176252027Y-110567023D01*
X176262771Y-110564383D01*
X176271904Y-110562565D01*
X176285126Y-110559936D01*
X176460881Y-110487136D01*
X176463013Y-110486253D01*
X176463013Y-110486252D01*
X176463020Y-110486250D01*
X176623120Y-110379274D01*
X176759274Y-110243120D01*
X176866250Y-110083020D01*
X176939936Y-109905126D01*
X176977500Y-109716275D01*
X176977500Y-109523725D01*
X176939936Y-109334874D01*
X176909297Y-109260904D01*
X176866253Y-109156986D01*
X176866246Y-109156973D01*
X176759274Y-108996880D01*
X176759271Y-108996876D01*
X176670576Y-108908181D01*
X176637091Y-108846858D01*
X176642075Y-108777166D01*
X176683947Y-108721233D01*
X176749411Y-108696816D01*
X176758257Y-108696500D01*
X177143405Y-108696500D01*
X177210444Y-108716185D01*
X177231086Y-108732819D01*
X179229086Y-110730819D01*
X179262571Y-110792142D01*
X179257587Y-110861834D01*
X179215715Y-110917767D01*
X179150251Y-110942184D01*
X179141405Y-110942500D01*
X178437441Y-110942500D01*
X178400250Y-110949898D01*
X178358077Y-110978077D01*
X178329898Y-111020250D01*
X178322500Y-111057441D01*
X178322500Y-113182558D01*
X178329898Y-113219749D01*
X178358077Y-113261922D01*
X178400250Y-113290101D01*
X178400252Y-113290102D01*
X178428205Y-113295662D01*
X178437441Y-113297500D01*
X178437442Y-113297500D01*
X180562559Y-113297500D01*
X180569957Y-113296028D01*
X180599748Y-113290102D01*
X180641922Y-113261922D01*
X180670102Y-113219748D01*
X180677500Y-113182558D01*
X180677500Y-111057442D01*
X180670102Y-111020252D01*
X180662682Y-111009147D01*
X180641922Y-110978077D01*
X180599749Y-110949898D01*
X180562559Y-110942500D01*
X180562558Y-110942500D01*
X179851500Y-110942500D01*
X179784461Y-110922815D01*
X179738706Y-110870011D01*
X179727500Y-110818500D01*
X179727500Y-110634748D01*
X179727500Y-110634747D01*
X179692865Y-110551132D01*
X179628868Y-110487135D01*
X178525818Y-109384085D01*
X177417870Y-108276136D01*
X177416904Y-108275736D01*
X177334253Y-108241500D01*
X176373613Y-108241500D01*
X176306574Y-108221815D01*
X176260819Y-108169011D01*
X176250875Y-108099853D01*
X176279900Y-108036297D01*
X176326161Y-108002939D01*
X176463013Y-107946253D01*
X176463013Y-107946252D01*
X176463020Y-107946250D01*
X176623120Y-107839274D01*
X176759274Y-107703120D01*
X176866250Y-107543020D01*
X176939936Y-107365126D01*
X176977500Y-107176275D01*
X176977500Y-107027329D01*
X178322500Y-107027329D01*
X178322500Y-107212671D01*
X178346647Y-107365132D01*
X178351494Y-107395732D01*
X178408769Y-107572007D01*
X178492911Y-107737143D01*
X178549032Y-107814388D01*
X178601853Y-107887090D01*
X178732910Y-108018147D01*
X178825890Y-108085700D01*
X178882856Y-108127088D01*
X179047992Y-108211230D01*
X179047994Y-108211230D01*
X179047997Y-108211232D01*
X179224268Y-108268506D01*
X179407329Y-108297500D01*
X179407330Y-108297500D01*
X179592670Y-108297500D01*
X179592671Y-108297500D01*
X179775732Y-108268506D01*
X179952003Y-108211232D01*
X179952504Y-108210977D01*
X179964234Y-108205000D01*
X180117144Y-108127088D01*
X180267090Y-108018147D01*
X180398147Y-107887090D01*
X180507088Y-107737144D01*
X180591232Y-107572003D01*
X180648506Y-107395732D01*
X180677500Y-107212671D01*
X180677500Y-107027329D01*
X180648506Y-106844268D01*
X180591232Y-106667997D01*
X180591230Y-106667994D01*
X180591230Y-106667992D01*
X180507088Y-106502856D01*
X180435769Y-106404693D01*
X180398147Y-106352910D01*
X180267090Y-106221853D01*
X180246276Y-106206731D01*
X180117143Y-106112911D01*
X179952007Y-106028769D01*
X179775732Y-105971494D01*
X179592671Y-105942500D01*
X179407329Y-105942500D01*
X179329998Y-105954748D01*
X179224267Y-105971494D01*
X179047992Y-106028769D01*
X178882856Y-106112911D01*
X178732909Y-106221853D01*
X178601853Y-106352909D01*
X178492911Y-106502856D01*
X178408769Y-106667992D01*
X178351494Y-106844267D01*
X178329407Y-106983720D01*
X178322500Y-107027329D01*
X176977500Y-107027329D01*
X176977500Y-106983725D01*
X176939936Y-106794874D01*
X176903814Y-106707668D01*
X176866253Y-106616986D01*
X176866246Y-106616973D01*
X176759274Y-106456880D01*
X176759271Y-106456876D01*
X176623123Y-106320728D01*
X176623119Y-106320725D01*
X176463026Y-106213753D01*
X176463013Y-106213746D01*
X176285132Y-106140066D01*
X176285128Y-106140064D01*
X176285126Y-106140064D01*
X176285122Y-106140063D01*
X176285118Y-106140062D01*
X176096279Y-106102500D01*
X176096275Y-106102500D01*
X175903725Y-106102500D01*
X175903720Y-106102500D01*
X175714881Y-106140062D01*
X175714867Y-106140066D01*
X175536986Y-106213746D01*
X175536973Y-106213753D01*
X175376880Y-106320725D01*
X175376876Y-106320728D01*
X175240728Y-106456876D01*
X175240725Y-106456880D01*
X175133753Y-106616973D01*
X175133746Y-106616986D01*
X175060066Y-106794867D01*
X175060062Y-106794881D01*
X175022500Y-106983720D01*
X175022500Y-107176279D01*
X175060062Y-107365118D01*
X175060066Y-107365132D01*
X175133746Y-107543013D01*
X175133753Y-107543026D01*
X175240725Y-107703119D01*
X175240728Y-107703123D01*
X175376876Y-107839271D01*
X175376880Y-107839274D01*
X175536973Y-107946246D01*
X175536986Y-107946253D01*
X175673839Y-108002939D01*
X175728243Y-108046780D01*
X175750308Y-108113074D01*
X175733029Y-108180773D01*
X175681892Y-108228384D01*
X175626387Y-108241500D01*
X173914596Y-108241500D01*
X173847557Y-108221815D01*
X173826915Y-108205181D01*
X170363819Y-104742085D01*
X170330334Y-104680762D01*
X170327500Y-104654404D01*
X170327500Y-103090886D01*
X170327500Y-103090885D01*
X170292865Y-103007270D01*
X170228868Y-102943273D01*
X170004346Y-102718751D01*
X169713732Y-102428136D01*
X169713727Y-102428134D01*
X169630115Y-102393500D01*
X163360393Y-102393500D01*
X163269887Y-102393500D01*
X163269885Y-102393500D01*
X163269883Y-102393501D01*
X163186274Y-102428131D01*
X163186272Y-102428133D01*
X162687226Y-102927181D01*
X162625903Y-102960666D01*
X162599545Y-102963500D01*
X153515391Y-102963500D01*
X153424885Y-102963500D01*
X153424883Y-102963500D01*
X153424881Y-102963501D01*
X153341272Y-102998131D01*
X153341270Y-102998133D01*
X153103224Y-103236181D01*
X153041901Y-103269666D01*
X153015543Y-103272500D01*
X146174747Y-103272500D01*
X146150257Y-103282644D01*
X146128415Y-103291690D01*
X146091132Y-103307133D01*
X145282086Y-104116181D01*
X145259506Y-104128510D01*
X145239094Y-104144167D01*
X145226550Y-104146506D01*
X145220763Y-104149666D01*
X145204697Y-104152072D01*
X145199558Y-104152500D01*
X145087594Y-104152500D01*
X145021234Y-104165700D01*
X145018409Y-104167587D01*
X144999935Y-104169126D01*
X144972320Y-104163456D01*
X144944243Y-104160944D01*
X144938552Y-104156523D01*
X144931493Y-104155074D01*
X144911326Y-104135374D01*
X144889065Y-104118081D01*
X144886667Y-104111285D01*
X144881513Y-104106250D01*
X144875198Y-104078774D01*
X144865821Y-104052191D01*
X144867478Y-104045178D01*
X144865864Y-104038155D01*
X144875405Y-104011629D01*
X144881889Y-103984194D01*
X144882257Y-103983553D01*
X144884115Y-103980334D01*
X144893207Y-103964587D01*
X144920500Y-103862727D01*
X144920500Y-103757273D01*
X144893207Y-103655413D01*
X144840480Y-103564087D01*
X144765913Y-103489520D01*
X144674587Y-103436793D01*
X144572727Y-103409500D01*
X144467273Y-103409500D01*
X144365413Y-103436793D01*
X144365410Y-103436794D01*
X144274085Y-103489521D01*
X144199521Y-103564085D01*
X144146794Y-103655410D01*
X144146793Y-103655411D01*
X144124265Y-103739489D01*
X144087899Y-103799149D01*
X144025052Y-103829678D01*
X143955677Y-103821383D01*
X143916809Y-103795076D01*
X143328870Y-103207136D01*
X143328865Y-103207134D01*
X143245253Y-103172500D01*
X139945253Y-103172500D01*
X139854747Y-103172500D01*
X139854745Y-103172500D01*
X139854743Y-103172501D01*
X139771134Y-103207131D01*
X139515084Y-103463181D01*
X139453761Y-103496666D01*
X139427403Y-103499500D01*
X139347273Y-103499500D01*
X139245413Y-103526793D01*
X139245410Y-103526794D01*
X139154085Y-103579521D01*
X139079521Y-103654085D01*
X139026794Y-103745410D01*
X139026793Y-103745413D01*
X138999500Y-103847273D01*
X138999500Y-103952727D01*
X139015870Y-104013819D01*
X139026793Y-104054586D01*
X139026794Y-104054589D01*
X139029918Y-104060000D01*
X139079520Y-104145913D01*
X139154087Y-104220480D01*
X139245413Y-104273207D01*
X139347273Y-104300500D01*
X139347275Y-104300500D01*
X139452725Y-104300500D01*
X139452727Y-104300500D01*
X139554587Y-104273207D01*
X139645913Y-104220480D01*
X139720480Y-104145913D01*
X139773207Y-104054587D01*
X139800500Y-103952727D01*
X139800500Y-103872595D01*
X139809144Y-103843154D01*
X139815668Y-103813168D01*
X139819422Y-103808152D01*
X139820185Y-103805556D01*
X139836813Y-103784919D01*
X139957916Y-103663817D01*
X140019238Y-103630334D01*
X140045596Y-103627500D01*
X143054405Y-103627500D01*
X143121444Y-103647185D01*
X143142086Y-103663819D01*
X143215615Y-103737348D01*
X143249100Y-103798671D01*
X143244116Y-103868363D01*
X143210000Y-103917812D01*
X143210000Y-104516000D01*
X143207449Y-104524685D01*
X143208738Y-104533647D01*
X143197759Y-104557687D01*
X143190315Y-104583039D01*
X143183474Y-104588966D01*
X143179713Y-104597203D01*
X143157478Y-104611492D01*
X143137511Y-104628794D01*
X143126996Y-104631081D01*
X143120935Y-104634977D01*
X143086000Y-104640000D01*
X142934000Y-104640000D01*
X142866961Y-104620315D01*
X142821206Y-104567511D01*
X142810000Y-104516000D01*
X142810000Y-103917987D01*
X142753368Y-103925444D01*
X142607413Y-103985899D01*
X142482070Y-104082079D01*
X142465057Y-104104251D01*
X142408629Y-104145453D01*
X142353428Y-104152052D01*
X142287846Y-104145001D01*
X142287828Y-104145000D01*
X141865000Y-104145000D01*
X141865000Y-105745000D01*
X142174614Y-105745000D01*
X142241653Y-105764685D01*
X142287408Y-105817489D01*
X142297352Y-105886647D01*
X142268327Y-105950203D01*
X142262295Y-105956681D01*
X141827796Y-106391181D01*
X141766473Y-106424666D01*
X141740115Y-106427500D01*
X140977441Y-106427500D01*
X140940250Y-106434898D01*
X140898077Y-106463077D01*
X140869898Y-106505250D01*
X140862500Y-106542441D01*
X140862500Y-107167563D01*
X140863643Y-107173309D01*
X140857416Y-107242901D01*
X140814552Y-107298078D01*
X140748663Y-107321322D01*
X140742026Y-107321500D01*
X140003885Y-107321500D01*
X139936846Y-107301815D01*
X139916204Y-107285181D01*
X139575548Y-106944525D01*
X139575546Y-106944523D01*
X139552534Y-106934991D01*
X139552533Y-106934990D01*
X139552533Y-106934991D01*
X139510307Y-106917500D01*
X138641500Y-106917500D01*
X138574461Y-106897815D01*
X138528706Y-106845011D01*
X138517500Y-106793500D01*
X138517500Y-106782441D01*
X138515662Y-106773205D01*
X138510102Y-106745252D01*
X138494194Y-106721444D01*
X138481922Y-106703077D01*
X138439749Y-106674898D01*
X138402559Y-106667500D01*
X138402558Y-106667500D01*
X137127442Y-106667500D01*
X137127441Y-106667500D01*
X137090250Y-106674898D01*
X137048077Y-106703077D01*
X137019898Y-106745250D01*
X137012500Y-106782441D01*
X137012500Y-107407558D01*
X137019898Y-107444749D01*
X137048077Y-107486922D01*
X137090250Y-107515101D01*
X137090252Y-107515102D01*
X137118205Y-107520662D01*
X137127441Y-107522500D01*
X137127442Y-107522500D01*
X137562023Y-107522500D01*
X137629062Y-107542185D01*
X137649704Y-107558819D01*
X138084205Y-107993320D01*
X138117690Y-108054642D01*
X138112706Y-108124333D01*
X138070835Y-108180267D01*
X138021232Y-108198767D01*
X138015000Y-108205000D01*
X138015000Y-108755000D01*
X138794524Y-108755000D01*
X138823964Y-108763644D01*
X138853951Y-108770168D01*
X138858966Y-108773922D01*
X138861563Y-108774685D01*
X138882205Y-108791319D01*
X138942007Y-108851121D01*
X138942010Y-108851125D01*
X138949078Y-108858193D01*
X139002807Y-108911922D01*
X139073008Y-108941000D01*
X140899140Y-108941000D01*
X140966179Y-108960685D01*
X141011934Y-109013489D01*
X141021603Y-109071502D01*
X141022500Y-109071502D01*
X141022500Y-109076883D01*
X141022544Y-109077147D01*
X141022500Y-109077594D01*
X141022500Y-109322410D01*
X141035698Y-109388761D01*
X141035701Y-109388768D01*
X141085978Y-109464013D01*
X141085982Y-109464018D01*
X141097391Y-109471641D01*
X141142196Y-109525253D01*
X141152500Y-109574743D01*
X141152500Y-109888500D01*
X141132815Y-109955539D01*
X141080011Y-110001294D01*
X141028500Y-110012500D01*
X138611170Y-110012500D01*
X138544131Y-109992815D01*
X138498376Y-109940011D01*
X138488432Y-109870853D01*
X138517457Y-109807297D01*
X138567837Y-109772318D01*
X138632086Y-109748354D01*
X138632093Y-109748350D01*
X138747187Y-109662190D01*
X138747190Y-109662187D01*
X138833350Y-109547093D01*
X138833354Y-109547086D01*
X138883596Y-109412379D01*
X138883598Y-109412372D01*
X138889999Y-109352844D01*
X138890000Y-109352827D01*
X138890000Y-109255000D01*
X136640000Y-109255000D01*
X136640000Y-109352844D01*
X136646401Y-109412372D01*
X136646403Y-109412379D01*
X136696645Y-109547086D01*
X136696649Y-109547093D01*
X136782809Y-109662187D01*
X136782812Y-109662190D01*
X136897906Y-109748350D01*
X136897913Y-109748354D01*
X136962163Y-109772318D01*
X137018097Y-109814189D01*
X137042514Y-109879654D01*
X137027662Y-109947927D01*
X136978257Y-109997332D01*
X136918830Y-110012500D01*
X136484998Y-110012500D01*
X136434301Y-110022584D01*
X136434293Y-110022586D01*
X136395404Y-110038694D01*
X136395395Y-110038699D01*
X136370541Y-110052270D01*
X136323695Y-110110403D01*
X136323694Y-110110405D01*
X136307586Y-110149293D01*
X136307584Y-110149301D01*
X136297499Y-110199997D01*
X136296934Y-110205745D01*
X136270774Y-110270533D01*
X136213740Y-110310893D01*
X136143940Y-110314011D01*
X136085850Y-110281274D01*
X134461731Y-108657155D01*
X136640000Y-108657155D01*
X136640000Y-108755000D01*
X137515000Y-108755000D01*
X137515000Y-108205000D01*
X137092155Y-108205000D01*
X137032627Y-108211401D01*
X137032620Y-108211403D01*
X136897913Y-108261645D01*
X136897906Y-108261649D01*
X136782812Y-108347809D01*
X136782809Y-108347812D01*
X136696649Y-108462906D01*
X136696645Y-108462913D01*
X136646403Y-108597620D01*
X136646401Y-108597627D01*
X136640000Y-108657155D01*
X134461731Y-108657155D01*
X132562493Y-106757917D01*
X132562491Y-106757915D01*
X132513750Y-106729774D01*
X132465010Y-106701633D01*
X132383212Y-106679716D01*
X132356281Y-106672500D01*
X132356280Y-106672500D01*
X128001500Y-106672500D01*
X127934461Y-106652815D01*
X127888706Y-106600011D01*
X127877500Y-106548500D01*
X127877500Y-106037441D01*
X127875150Y-106025627D01*
X127870102Y-106000252D01*
X127869972Y-106000057D01*
X127841922Y-105958077D01*
X127799749Y-105929898D01*
X127762559Y-105922500D01*
X127762558Y-105922500D01*
X125637442Y-105922500D01*
X125637441Y-105922500D01*
X125600250Y-105929898D01*
X125558077Y-105958077D01*
X125529898Y-106000250D01*
X125522500Y-106037441D01*
X123146931Y-106037441D01*
X123146931Y-105245888D01*
X123166616Y-105178849D01*
X123219420Y-105133094D01*
X123270931Y-105121888D01*
X131865597Y-105121888D01*
X131865916Y-105121867D01*
X131899011Y-105121867D01*
X131899014Y-105121867D01*
X132111458Y-105091323D01*
X132255000Y-105049176D01*
X132317384Y-105030859D01*
X132317386Y-105030857D01*
X132317393Y-105030856D01*
X132512626Y-104941697D01*
X132514096Y-104940751D01*
X132514659Y-104940586D01*
X132516512Y-104939575D01*
X132516731Y-104939977D01*
X132581134Y-104921062D01*
X132648175Y-104940741D01*
X132688531Y-104983061D01*
X132732453Y-105059135D01*
X132783052Y-105146774D01*
X132783057Y-105146780D01*
X132783058Y-105146782D01*
X132918751Y-105323622D01*
X132918757Y-105323629D01*
X133076370Y-105481242D01*
X133076377Y-105481248D01*
X133185526Y-105565000D01*
X133253226Y-105616948D01*
X133446274Y-105728405D01*
X133451638Y-105730626D01*
X133506042Y-105774465D01*
X133528109Y-105840759D01*
X133510832Y-105908459D01*
X133473081Y-105948290D01*
X133424578Y-105980699D01*
X133320701Y-106084576D01*
X133320698Y-106084580D01*
X133239083Y-106206724D01*
X133239078Y-106206733D01*
X133182861Y-106342455D01*
X133182858Y-106342465D01*
X133154200Y-106486540D01*
X133154200Y-106633459D01*
X133182858Y-106777534D01*
X133182861Y-106777544D01*
X133239078Y-106913266D01*
X133239083Y-106913275D01*
X133320698Y-107035419D01*
X133320701Y-107035423D01*
X133424576Y-107139298D01*
X133424580Y-107139301D01*
X133546724Y-107220916D01*
X133546730Y-107220919D01*
X133546731Y-107220920D01*
X133682458Y-107277140D01*
X133806511Y-107301815D01*
X133826540Y-107305799D01*
X133826544Y-107305800D01*
X133826545Y-107305800D01*
X133973456Y-107305800D01*
X133973457Y-107305799D01*
X134117542Y-107277140D01*
X134253269Y-107220920D01*
X134375420Y-107139301D01*
X134479301Y-107035420D01*
X134560920Y-106913269D01*
X134617140Y-106777542D01*
X134645800Y-106633455D01*
X134645800Y-106486545D01*
X134617140Y-106342458D01*
X134560920Y-106206731D01*
X134560919Y-106206730D01*
X134560916Y-106206724D01*
X134479301Y-106084580D01*
X134479298Y-106084576D01*
X134474277Y-106079555D01*
X134440792Y-106018232D01*
X134445776Y-105948540D01*
X134487648Y-105892607D01*
X134529865Y-105872099D01*
X134532454Y-105871405D01*
X134532463Y-105871404D01*
X134747781Y-105813710D01*
X134953726Y-105728405D01*
X135146774Y-105616948D01*
X135185228Y-105587441D01*
X138762500Y-105587441D01*
X138762500Y-106212558D01*
X138769898Y-106249749D01*
X138798077Y-106291922D01*
X138840250Y-106320101D01*
X138840252Y-106320102D01*
X138868205Y-106325662D01*
X138877441Y-106327500D01*
X138877442Y-106327500D01*
X140152559Y-106327500D01*
X140159957Y-106326028D01*
X140189748Y-106320102D01*
X140231922Y-106291922D01*
X140260102Y-106249748D01*
X140267500Y-106212558D01*
X140267500Y-105587442D01*
X140260102Y-105550252D01*
X140245505Y-105528406D01*
X140231922Y-105508077D01*
X140189749Y-105479898D01*
X140152559Y-105472500D01*
X140152558Y-105472500D01*
X139793255Y-105472500D01*
X139726216Y-105452815D01*
X139680461Y-105400011D01*
X139670517Y-105330853D01*
X139683120Y-105292844D01*
X140490000Y-105292844D01*
X140496401Y-105352372D01*
X140496403Y-105352379D01*
X140546645Y-105487086D01*
X140546649Y-105487093D01*
X140632809Y-105602187D01*
X140632812Y-105602190D01*
X140747906Y-105688350D01*
X140747913Y-105688354D01*
X140882620Y-105738596D01*
X140882627Y-105738598D01*
X140942155Y-105744999D01*
X140942172Y-105745000D01*
X141365000Y-105745000D01*
X141365000Y-105195000D01*
X140490000Y-105195000D01*
X140490000Y-105292844D01*
X139683120Y-105292844D01*
X139684288Y-105289320D01*
X139692864Y-105273528D01*
X139720480Y-105245913D01*
X139773207Y-105154587D01*
X139800500Y-105052727D01*
X139800500Y-104947273D01*
X139773207Y-104845413D01*
X139720480Y-104754087D01*
X139645913Y-104679520D01*
X139558053Y-104628794D01*
X139554589Y-104626794D01*
X139554588Y-104626793D01*
X139554587Y-104626793D01*
X139452727Y-104599500D01*
X139347273Y-104599500D01*
X139245413Y-104626793D01*
X139245410Y-104626794D01*
X139154085Y-104679521D01*
X139079521Y-104754085D01*
X139026794Y-104845410D01*
X139026793Y-104845413D01*
X138999500Y-104947273D01*
X138999500Y-105052727D01*
X139026793Y-105154587D01*
X139073901Y-105236181D01*
X139079521Y-105245914D01*
X139094426Y-105260819D01*
X139127911Y-105322142D01*
X139122927Y-105391834D01*
X139081055Y-105447767D01*
X139015591Y-105472184D01*
X139006745Y-105472500D01*
X138877441Y-105472500D01*
X138840250Y-105479898D01*
X138798077Y-105508077D01*
X138769898Y-105550250D01*
X138762500Y-105587441D01*
X135185228Y-105587441D01*
X135262166Y-105528405D01*
X135321374Y-105482974D01*
X135322486Y-105482119D01*
X135323624Y-105481247D01*
X135481247Y-105323624D01*
X135616948Y-105146774D01*
X135728405Y-104953726D01*
X135813710Y-104747781D01*
X135854070Y-104597155D01*
X140490000Y-104597155D01*
X140490000Y-104695000D01*
X141365000Y-104695000D01*
X141365000Y-104145000D01*
X140942155Y-104145000D01*
X140882627Y-104151401D01*
X140882620Y-104151403D01*
X140747913Y-104201645D01*
X140747906Y-104201649D01*
X140632812Y-104287809D01*
X140632809Y-104287812D01*
X140546649Y-104402906D01*
X140546645Y-104402913D01*
X140496403Y-104537620D01*
X140496401Y-104537627D01*
X140490000Y-104597155D01*
X135854070Y-104597155D01*
X135871404Y-104532463D01*
X135900500Y-104311457D01*
X135900500Y-104088543D01*
X135871404Y-103867537D01*
X135813710Y-103652219D01*
X135728405Y-103446274D01*
X135616948Y-103253226D01*
X135492380Y-103090885D01*
X135481248Y-103076377D01*
X135481242Y-103076370D01*
X135323629Y-102918757D01*
X135323622Y-102918751D01*
X135146782Y-102783058D01*
X135146780Y-102783057D01*
X135146774Y-102783052D01*
X134953726Y-102671595D01*
X134953722Y-102671593D01*
X134747790Y-102586293D01*
X134747783Y-102586291D01*
X134747781Y-102586290D01*
X134532463Y-102528596D01*
X134532457Y-102528595D01*
X134532452Y-102528594D01*
X134311466Y-102499501D01*
X134311463Y-102499500D01*
X134311457Y-102499500D01*
X134088543Y-102499500D01*
X134088537Y-102499500D01*
X134088533Y-102499501D01*
X133867547Y-102528594D01*
X133867540Y-102528595D01*
X133867537Y-102528596D01*
X133673779Y-102580513D01*
X133652219Y-102586290D01*
X133652203Y-102586295D01*
X133463619Y-102664409D01*
X133430993Y-102667916D01*
X133398520Y-102672586D01*
X133396432Y-102671632D01*
X133394150Y-102671878D01*
X133364806Y-102657189D01*
X133334964Y-102643561D01*
X133333723Y-102641630D01*
X133331671Y-102640603D01*
X133314933Y-102612393D01*
X133297190Y-102584783D01*
X133296754Y-102581752D01*
X133296019Y-102580513D01*
X133292167Y-102549848D01*
X133292167Y-102364126D01*
X133292948Y-102350234D01*
X133295387Y-102328597D01*
X133303134Y-102259887D01*
X133309310Y-102232836D01*
X133337034Y-102153619D01*
X133349076Y-102128615D01*
X133393729Y-102057556D01*
X133411036Y-102035857D01*
X133470373Y-101976523D01*
X133492082Y-101959211D01*
X133563135Y-101914567D01*
X133588147Y-101902521D01*
X133667351Y-101874806D01*
X133694414Y-101868628D01*
X133785208Y-101858396D01*
X133799090Y-101857617D01*
X172984108Y-101857617D01*
X173043040Y-101857617D01*
X173056922Y-101858396D01*
G37*
%TD.AperFunction*%
%TD*%
%TA.AperFunction,Conductor*%
%TO.N,/5V0*%
G36*
X171425714Y-110619685D02*
G01*
X171433070Y-110624796D01*
X172150400Y-111162794D01*
X172192221Y-111218765D01*
X172200000Y-111261994D01*
X172200000Y-111948638D01*
X172180315Y-112015677D01*
X172163681Y-112036319D01*
X170836319Y-113363681D01*
X170774996Y-113397166D01*
X170748638Y-113400000D01*
X170151362Y-113400000D01*
X170084323Y-113380315D01*
X170063681Y-113363681D01*
X169536319Y-112836319D01*
X169502834Y-112774996D01*
X169500000Y-112748638D01*
X169500000Y-112051362D01*
X169519685Y-111984323D01*
X169536319Y-111963681D01*
X170863681Y-110636319D01*
X170925004Y-110602834D01*
X170951362Y-110600000D01*
X171358675Y-110600000D01*
X171425714Y-110619685D01*
G37*
%TD.AperFunction*%
%TD*%
M02*
