M48
; DRILL file {KiCad 9.0.2} date 2025-06-27T10:01:33+0200
; FORMAT={-:-/ absolute / metric / decimal}
; #@! TF.CreationDate,2025-06-27T10:01:33+02:00
; #@! TF.GenerationSoftware,Kicad,Pcbnew,9.0.2
; #@! TF.FileFunction,Plated,1,2,PTH
FMAT,2
METRIC
; #@! TA.AperFunction,Plated,PTH,ViaDrill
T1C0.300
; #@! TA.AperFunction,Plated,PTH,ComponentDrill
T2C1.000
; #@! TA.AperFunction,Plated,PTH,ComponentDrill
T3C1.000
%
G90
G05
T1
X130.0Y-116.5
X131.0Y-103.2
X131.0Y-104.0
X131.0Y-104.8
X131.0Y-105.6
X131.0Y-116.5
X131.8Y-103.2
X131.8Y-104.0
X131.8Y-104.8
X131.8Y-105.6
X133.5Y-113.5
X133.5Y-114.5
X135.0Y-103.2
X135.0Y-104.0
X135.0Y-104.8
X135.0Y-105.6
X135.8Y-103.2
X135.8Y-104.0
X135.8Y-104.8
X135.8Y-105.6
X136.0Y-116.5
X137.0Y-116.5
X137.73Y-102.5
X138.0Y-113.0
X138.0Y-114.0
X138.0Y-115.0
X138.0Y-116.5
X139.0Y-111.5
X139.0Y-112.5
X139.0Y-113.5
X139.0Y-114.5
X139.0Y-115.5
X139.0Y-116.5
X141.0Y-110.0
X141.5Y-104.5
X141.5Y-105.5
X141.5Y-106.5
X142.0Y-110.0
X143.0Y-107.5
X143.0Y-109.0
X143.0Y-110.0
X146.0Y-110.0
X147.0Y-110.0
X148.0Y-110.0
X148.5Y-108.0
X148.5Y-109.0
X149.0Y-110.0
X149.5Y-107.5
X149.5Y-108.5
X149.88Y-102.75
X150.0Y-104.5
X153.0Y-110.0
X153.5Y-109.5
X154.0Y-110.0
X154.0Y-111.0
X154.0Y-112.0
X154.0Y-116.0
X154.5Y-106.5
X154.5Y-110.5
X154.5Y-111.5
X154.5Y-112.5
X155.0Y-107.0
X155.0Y-111.0
X155.0Y-112.0
X155.0Y-113.0
X155.5Y-106.5
X155.5Y-107.5
X156.0Y-107.0
X156.0Y-108.0
X156.5Y-106.5
X156.5Y-107.5
X156.5Y-108.5
X157.0Y-102.5
X157.0Y-103.5
X157.0Y-104.5
X157.0Y-107.0
X157.0Y-108.0
X157.0Y-113.5
X157.5Y-103.0
X157.5Y-104.0
X157.5Y-106.5
X157.5Y-107.5
X158.0Y-102.5
X158.0Y-103.5
X158.0Y-106.0
X158.0Y-107.0
X158.0Y-113.5
X158.5Y-103.0
X158.5Y-105.5
X158.5Y-106.5
X159.0Y-102.5
X159.0Y-103.5
X159.0Y-106.0
X159.0Y-109.5
X159.5Y-103.0
X159.5Y-105.5
X159.5Y-109.0
X160.0Y-102.5
X160.0Y-103.5
X160.0Y-108.5
X160.0Y-109.5
X160.5Y-103.0
X160.5Y-108.0
X160.5Y-109.0
X161.0Y-102.5
X161.0Y-103.5
X161.0Y-108.5
X161.0Y-109.5
X161.4Y-103.0
X161.5Y-108.0
X161.5Y-109.0
X161.9Y-102.5
X161.9Y-103.5
X162.0Y-107.5
X162.0Y-108.5
X162.0Y-109.5
X162.5Y-108.0
X162.5Y-109.0
X163.0Y-107.5
X163.0Y-108.5
X163.5Y-108.0
X164.0Y-108.5
X164.958Y-111.1
X164.958Y-111.9
X164.988Y-115.069
X164.988Y-115.869
X165.758Y-111.1
X165.758Y-111.9
X165.788Y-115.069
X165.788Y-115.869
X166.558Y-111.1
X166.558Y-111.9
X166.588Y-115.069
X166.588Y-115.869
X167.358Y-111.1
X167.358Y-111.9
X167.388Y-115.069
X167.388Y-115.869
T2
X163.8Y-102.65
X163.8Y-106.15
T3
X141.42Y-108.175
X146.5Y-108.175
X151.58Y-108.175
X168.0Y-102.86
X168.0Y-105.4
X168.0Y-107.94
M30
