%TF.GenerationSoftware,KiCad,Pcbnew,9.0.2*%
%TF.CreationDate,2025-06-27T10:01:34+02:00*%
%TF.ProjectId,drone_controller,64726f6e-655f-4636-9f6e-74726f6c6c65,rev?*%
%TF.SameCoordinates,Original*%
%TF.FileFunction,Copper,L2,Bot*%
%TF.FilePolarity,Positive*%
%FSLAX46Y46*%
G04 Gerber Fmt 4.6, Leading zero omitted, Abs format (unit mm)*
G04 Created by KiCad (PCBNEW 9.0.2) date 2025-06-27 10:01:34*
%MOMM*%
%LPD*%
G01*
G04 APERTURE LIST*
G04 Aperture macros list*
%AMRoundRect*
0 Rectangle with rounded corners*
0 $1 Rounding radius*
0 $2 $3 $4 $5 $6 $7 $8 $9 X,Y pos of 4 corners*
0 Add a 4 corners polygon primitive as box body*
4,1,4,$2,$3,$4,$5,$6,$7,$8,$9,$2,$3,0*
0 Add four circle primitives for the rounded corners*
1,1,$1+$1,$2,$3*
1,1,$1+$1,$4,$5*
1,1,$1+$1,$6,$7*
1,1,$1+$1,$8,$9*
0 Add four rect primitives between the rounded corners*
20,1,$1+$1,$2,$3,$4,$5,0*
20,1,$1+$1,$4,$5,$6,$7,0*
20,1,$1+$1,$6,$7,$8,$9,0*
20,1,$1+$1,$8,$9,$2,$3,0*%
G04 Aperture macros list end*
%TA.AperFunction,ComponentPad*%
%ADD10C,2.000000*%
%TD*%
%TA.AperFunction,ComponentPad*%
%ADD11R,1.700000X1.700000*%
%TD*%
%TA.AperFunction,ComponentPad*%
%ADD12C,1.700000*%
%TD*%
%TA.AperFunction,ComponentPad*%
%ADD13C,1.600000*%
%TD*%
%TA.AperFunction,SMDPad,CuDef*%
%ADD14RoundRect,0.416667X1.583333X0.833333X-1.583333X0.833333X-1.583333X-0.833333X1.583333X-0.833333X0*%
%TD*%
%TA.AperFunction,SMDPad,CuDef*%
%ADD15RoundRect,0.416667X-0.833333X1.583333X-0.833333X-1.583333X0.833333X-1.583333X0.833333X1.583333X0*%
%TD*%
%TA.AperFunction,SMDPad,CuDef*%
%ADD16RoundRect,0.416667X-1.583333X-0.833333X1.583333X-0.833333X1.583333X0.833333X-1.583333X0.833333X0*%
%TD*%
%TA.AperFunction,ViaPad*%
%ADD17C,0.500000*%
%TD*%
%TA.AperFunction,Conductor*%
%ADD18C,0.200000*%
%TD*%
G04 APERTURE END LIST*
D10*
%TO.P,SW1,1,B*%
%TO.N,/DET_OUT+*%
X141420000Y-108175000D03*
%TO.P,SW1,2,A*%
%TO.N,/FET_OUT*%
X151580000Y-108175000D03*
%TO.P,SW1,3,C*%
%TO.N,GND*%
X146500000Y-108175000D03*
%TD*%
D11*
%TO.P,J1,1,Pin_1*%
%TO.N,GND*%
X168000000Y-102860000D03*
D12*
%TO.P,J1,2,Pin_2*%
%TO.N,/TRIGGER*%
X168000000Y-105400000D03*
%TO.P,J1,3,Pin_3*%
%TO.N,/5V_IN*%
X168000000Y-107940000D03*
%TD*%
D13*
%TO.P,C1,1*%
%TO.N,/5V_IN*%
X163800000Y-106150000D03*
%TO.P,C1,2*%
%TO.N,GND*%
X163800000Y-102650000D03*
%TD*%
D14*
%TO.P,P2,1*%
%TO.N,/FET_OUT*%
X166150000Y-115500000D03*
%TD*%
D15*
%TO.P,P4,1*%
%TO.N,/DET_OUT+*%
X135500000Y-104500000D03*
%TD*%
%TO.P,P3,1*%
%TO.N,GND*%
X131250000Y-104500000D03*
%TD*%
D16*
%TO.P,P1,1*%
%TO.N,/5V_IN*%
X166150000Y-111500000D03*
%TD*%
D17*
%TO.N,GND*%
X162500000Y-108000000D03*
X155000000Y-113000000D03*
X131800000Y-103200000D03*
X138000000Y-115000000D03*
X162500000Y-109000000D03*
X160000000Y-109500000D03*
X162000000Y-109500000D03*
X159500000Y-105500000D03*
X139000000Y-113500000D03*
X149000000Y-110000000D03*
X159000000Y-102500000D03*
X161400000Y-103000000D03*
X156500000Y-106500000D03*
X157500000Y-103000000D03*
X139000000Y-115500000D03*
X154000000Y-111000000D03*
X161500000Y-108000000D03*
X160500000Y-108000000D03*
X141000000Y-110000000D03*
X133500000Y-114500000D03*
X161000000Y-108500000D03*
X130000000Y-116500000D03*
X160000000Y-103500000D03*
X158000000Y-102500000D03*
X159000000Y-109500000D03*
X139000000Y-116500000D03*
X158000000Y-107000000D03*
X156000000Y-108000000D03*
X141500000Y-104500000D03*
X153000000Y-110000000D03*
X160500000Y-109000000D03*
X161900000Y-103500000D03*
X160000000Y-102500000D03*
X137000000Y-116500000D03*
X139000000Y-111500000D03*
X133500000Y-113500000D03*
X155500000Y-106500000D03*
X138000000Y-113000000D03*
X143000000Y-107500000D03*
X157500000Y-106500000D03*
X141500000Y-105500000D03*
X131800000Y-105600000D03*
X131000000Y-104800000D03*
X154500000Y-106500000D03*
X163000000Y-107500000D03*
X153500000Y-109500000D03*
X154500000Y-110500000D03*
X158500000Y-105500000D03*
X131000000Y-116500000D03*
X157000000Y-108000000D03*
X158500000Y-106500000D03*
X155000000Y-107000000D03*
X157000000Y-104500000D03*
X158500000Y-103000000D03*
X158000000Y-113500000D03*
X149500000Y-107500000D03*
X159000000Y-103500000D03*
X164000000Y-108500000D03*
X157500000Y-107500000D03*
X131000000Y-103200000D03*
X136000000Y-116500000D03*
X154000000Y-116000000D03*
X149500000Y-108500000D03*
X158000000Y-106000000D03*
X161000000Y-102500000D03*
X155000000Y-111000000D03*
X161500000Y-109000000D03*
X139000000Y-114500000D03*
X160500000Y-103000000D03*
X163000000Y-108500000D03*
X157500000Y-104000000D03*
X162000000Y-107500000D03*
X148500000Y-109000000D03*
X150000000Y-104500000D03*
X143000000Y-109000000D03*
X162000000Y-108500000D03*
X146000000Y-110000000D03*
X160000000Y-108500000D03*
X155500000Y-107500000D03*
X157000000Y-107000000D03*
X138000000Y-116500000D03*
X141500000Y-106500000D03*
X158000000Y-103500000D03*
X161000000Y-109500000D03*
X159000000Y-106000000D03*
X159500000Y-109000000D03*
X161000000Y-103500000D03*
X131800000Y-104800000D03*
X163500000Y-108000000D03*
X157000000Y-103500000D03*
X154000000Y-110000000D03*
X148500000Y-108000000D03*
X156500000Y-108500000D03*
X157000000Y-113500000D03*
X154000000Y-112000000D03*
X138000000Y-114000000D03*
X159500000Y-103000000D03*
X154500000Y-112500000D03*
X156500000Y-107500000D03*
X143000000Y-110000000D03*
X142000000Y-110000000D03*
X147000000Y-110000000D03*
X131000000Y-104000000D03*
X155000000Y-112000000D03*
X156000000Y-107000000D03*
X157000000Y-102500000D03*
X139000000Y-112500000D03*
X148000000Y-110000000D03*
X131800000Y-104000000D03*
X131000000Y-105600000D03*
X154500000Y-111500000D03*
X161900000Y-102500000D03*
%TO.N,/5V_IN*%
X137729998Y-102500000D03*
X164958448Y-111100063D03*
X149880000Y-102750000D03*
X167358448Y-111900063D03*
X164958448Y-111900063D03*
X166558448Y-111100063D03*
X165758448Y-111100063D03*
X166558448Y-111900063D03*
X167358448Y-111100063D03*
X165758448Y-111900063D03*
%TO.N,/FET_OUT*%
X166588178Y-115069028D03*
X165788178Y-115869028D03*
X164988178Y-115869028D03*
X167388178Y-115869028D03*
X167388178Y-115069028D03*
X165788178Y-115069028D03*
X166588178Y-115869028D03*
X164988178Y-115069028D03*
%TO.N,/DET_OUT+*%
X135800000Y-103200000D03*
X135000000Y-104000000D03*
X135800000Y-104000000D03*
X135000000Y-105600000D03*
X135000000Y-103200000D03*
X135800000Y-105600000D03*
X135000000Y-104800000D03*
X135800000Y-104800000D03*
%TD*%
D18*
%TO.N,/5V_IN*%
X149111000Y-101951000D02*
X149880000Y-102720000D01*
X149880000Y-102720000D02*
X149880000Y-102750000D01*
X137729998Y-102500000D02*
X137729998Y-102221002D01*
X137729998Y-102221002D02*
X138000000Y-101951000D01*
X138000000Y-101951000D02*
X149111000Y-101951000D01*
%TD*%
%TA.AperFunction,Conductor*%
%TO.N,GND*%
G36*
X169385148Y-101464852D02*
G01*
X169399500Y-101499500D01*
X169399500Y-117350500D01*
X169385148Y-117385148D01*
X169350500Y-117399500D01*
X129349500Y-117399500D01*
X129314852Y-117385148D01*
X129300500Y-117350500D01*
X129300500Y-114072648D01*
X141199500Y-114072648D01*
X141199500Y-114277351D01*
X141231522Y-114479531D01*
X141231523Y-114479534D01*
X141294779Y-114674217D01*
X141387714Y-114856612D01*
X141387716Y-114856615D01*
X141508035Y-115022220D01*
X141508039Y-115022225D01*
X141652775Y-115166961D01*
X141652779Y-115166964D01*
X141652781Y-115166966D01*
X141818390Y-115287287D01*
X142000781Y-115380220D01*
X142195466Y-115443477D01*
X142397648Y-115475500D01*
X142397649Y-115475500D01*
X142602351Y-115475500D01*
X142602352Y-115475500D01*
X142804534Y-115443477D01*
X142999219Y-115380220D01*
X143181610Y-115287287D01*
X143347219Y-115166966D01*
X143347222Y-115166962D01*
X143347225Y-115166961D01*
X143491961Y-115022225D01*
X143491962Y-115022222D01*
X143491966Y-115022219D01*
X143612287Y-114856610D01*
X143705220Y-114674219D01*
X143768477Y-114479534D01*
X143800500Y-114277352D01*
X143800500Y-114072648D01*
X149199500Y-114072648D01*
X149199500Y-114277351D01*
X149231522Y-114479531D01*
X149231523Y-114479534D01*
X149294779Y-114674217D01*
X149387714Y-114856612D01*
X149387716Y-114856615D01*
X149508035Y-115022220D01*
X149508039Y-115022225D01*
X149652775Y-115166961D01*
X149652779Y-115166964D01*
X149652781Y-115166966D01*
X149818390Y-115287287D01*
X150000781Y-115380220D01*
X150195466Y-115443477D01*
X150397648Y-115475500D01*
X150397649Y-115475500D01*
X150602351Y-115475500D01*
X150602352Y-115475500D01*
X150804534Y-115443477D01*
X150999219Y-115380220D01*
X151181610Y-115287287D01*
X151347219Y-115166966D01*
X151347222Y-115166962D01*
X151347225Y-115166961D01*
X151491961Y-115022225D01*
X151491962Y-115022222D01*
X151491966Y-115022219D01*
X151612287Y-114856610D01*
X151705220Y-114674219D01*
X151727924Y-114604342D01*
X163949500Y-114604342D01*
X163949500Y-116395653D01*
X163949501Y-116395668D01*
X163952253Y-116430646D01*
X163995759Y-116580391D01*
X164075130Y-116714600D01*
X164075134Y-116714605D01*
X164185394Y-116824865D01*
X164185399Y-116824869D01*
X164319608Y-116904240D01*
X164319609Y-116904240D01*
X164319612Y-116904242D01*
X164469353Y-116947746D01*
X164504345Y-116950500D01*
X167795654Y-116950499D01*
X167795659Y-116950498D01*
X167795668Y-116950498D01*
X167815366Y-116948948D01*
X167830647Y-116947746D01*
X167980388Y-116904242D01*
X168114605Y-116824866D01*
X168224866Y-116714605D01*
X168304242Y-116580388D01*
X168347746Y-116430647D01*
X168350500Y-116395655D01*
X168350499Y-114604346D01*
X168347746Y-114569353D01*
X168304242Y-114419612D01*
X168304240Y-114419608D01*
X168224869Y-114285399D01*
X168224865Y-114285394D01*
X168114605Y-114175134D01*
X168114600Y-114175130D01*
X167980391Y-114095759D01*
X167830645Y-114052253D01*
X167806790Y-114050376D01*
X167795655Y-114049500D01*
X167795650Y-114049500D01*
X164504346Y-114049500D01*
X164504331Y-114049501D01*
X164469353Y-114052253D01*
X164319608Y-114095759D01*
X164185399Y-114175130D01*
X164185394Y-114175134D01*
X164075134Y-114285394D01*
X164075130Y-114285399D01*
X163995759Y-114419608D01*
X163952253Y-114569352D01*
X163952253Y-114569356D01*
X163949500Y-114604342D01*
X151727924Y-114604342D01*
X151768477Y-114479534D01*
X151800500Y-114277352D01*
X151800500Y-114072648D01*
X151768477Y-113870466D01*
X151705220Y-113675781D01*
X151612287Y-113493390D01*
X151491966Y-113327781D01*
X151491964Y-113327779D01*
X151491961Y-113327775D01*
X151347225Y-113183039D01*
X151347220Y-113183035D01*
X151181615Y-113062716D01*
X151181612Y-113062714D01*
X150999217Y-112969779D01*
X150804534Y-112906523D01*
X150804531Y-112906522D01*
X150649220Y-112881923D01*
X150602352Y-112874500D01*
X150397648Y-112874500D01*
X150359599Y-112880526D01*
X150195468Y-112906522D01*
X150195465Y-112906523D01*
X150000782Y-112969779D01*
X149818387Y-113062714D01*
X149818384Y-113062716D01*
X149652779Y-113183035D01*
X149508035Y-113327779D01*
X149387716Y-113493384D01*
X149387714Y-113493387D01*
X149294779Y-113675782D01*
X149231523Y-113870465D01*
X149231522Y-113870468D01*
X149199500Y-114072648D01*
X143800500Y-114072648D01*
X143768477Y-113870466D01*
X143705220Y-113675781D01*
X143612287Y-113493390D01*
X143491966Y-113327781D01*
X143491964Y-113327779D01*
X143491961Y-113327775D01*
X143347225Y-113183039D01*
X143347220Y-113183035D01*
X143181615Y-113062716D01*
X143181612Y-113062714D01*
X142999217Y-112969779D01*
X142804534Y-112906523D01*
X142804531Y-112906522D01*
X142649220Y-112881923D01*
X142602352Y-112874500D01*
X142397648Y-112874500D01*
X142359599Y-112880526D01*
X142195468Y-112906522D01*
X142195465Y-112906523D01*
X142000782Y-112969779D01*
X141818387Y-113062714D01*
X141818384Y-113062716D01*
X141652779Y-113183035D01*
X141508035Y-113327779D01*
X141387716Y-113493384D01*
X141387714Y-113493387D01*
X141294779Y-113675782D01*
X141231523Y-113870465D01*
X141231522Y-113870468D01*
X141199500Y-114072648D01*
X129300500Y-114072648D01*
X129300500Y-110604342D01*
X163949500Y-110604342D01*
X163949500Y-112395653D01*
X163949501Y-112395668D01*
X163952253Y-112430646D01*
X163995759Y-112580391D01*
X164075130Y-112714600D01*
X164075134Y-112714605D01*
X164185394Y-112824865D01*
X164185399Y-112824869D01*
X164319608Y-112904240D01*
X164319609Y-112904240D01*
X164319612Y-112904242D01*
X164469353Y-112947746D01*
X164504345Y-112950500D01*
X167795654Y-112950499D01*
X167795659Y-112950498D01*
X167795668Y-112950498D01*
X167815366Y-112948948D01*
X167830647Y-112947746D01*
X167980388Y-112904242D01*
X168114605Y-112824866D01*
X168224866Y-112714605D01*
X168304242Y-112580388D01*
X168347746Y-112430647D01*
X168350500Y-112395655D01*
X168350499Y-110604346D01*
X168347746Y-110569353D01*
X168304242Y-110419612D01*
X168304240Y-110419608D01*
X168224869Y-110285399D01*
X168224865Y-110285394D01*
X168114605Y-110175134D01*
X168114600Y-110175130D01*
X167980391Y-110095759D01*
X167830645Y-110052253D01*
X167806790Y-110050376D01*
X167795655Y-110049500D01*
X167795650Y-110049500D01*
X164504346Y-110049500D01*
X164504331Y-110049501D01*
X164469353Y-110052253D01*
X164319608Y-110095759D01*
X164185399Y-110175130D01*
X164185394Y-110175134D01*
X164075134Y-110285394D01*
X164075130Y-110285399D01*
X163995759Y-110419608D01*
X163952253Y-110569352D01*
X163952253Y-110569356D01*
X163949500Y-110604342D01*
X129300500Y-110604342D01*
X129300500Y-108080519D01*
X140219500Y-108080519D01*
X140219500Y-108269480D01*
X140249059Y-108456115D01*
X140249060Y-108456118D01*
X140307453Y-108635833D01*
X140393236Y-108804193D01*
X140393239Y-108804197D01*
X140393240Y-108804199D01*
X140504310Y-108957073D01*
X140504312Y-108957075D01*
X140504315Y-108957079D01*
X140637920Y-109090684D01*
X140637923Y-109090686D01*
X140637927Y-109090690D01*
X140790801Y-109201760D01*
X140790803Y-109201761D01*
X140790806Y-109201763D01*
X140873890Y-109244096D01*
X140959168Y-109287547D01*
X141138882Y-109345940D01*
X141325519Y-109375500D01*
X141325520Y-109375500D01*
X141514480Y-109375500D01*
X141514481Y-109375500D01*
X141701118Y-109345940D01*
X141880832Y-109287547D01*
X142049199Y-109201760D01*
X142202073Y-109090690D01*
X142335690Y-108957073D01*
X142446760Y-108804199D01*
X142532547Y-108635832D01*
X142590940Y-108456118D01*
X142620500Y-108269481D01*
X142620500Y-108080519D01*
X142619883Y-108076623D01*
X145250000Y-108076623D01*
X145250000Y-108273376D01*
X145280778Y-108467706D01*
X145280779Y-108467709D01*
X145341580Y-108654834D01*
X145430902Y-108830140D01*
X145430907Y-108830149D01*
X145456319Y-108865125D01*
X145456320Y-108865125D01*
X146017037Y-108304408D01*
X146034075Y-108367993D01*
X146099901Y-108482007D01*
X146192993Y-108575099D01*
X146307007Y-108640925D01*
X146370590Y-108657962D01*
X145809873Y-109218678D01*
X145844857Y-109244096D01*
X145844859Y-109244097D01*
X146020165Y-109333419D01*
X146207290Y-109394220D01*
X146207293Y-109394221D01*
X146401624Y-109425000D01*
X146598376Y-109425000D01*
X146792706Y-109394221D01*
X146792709Y-109394220D01*
X146979834Y-109333419D01*
X147155140Y-109244097D01*
X147190126Y-109218679D01*
X146629409Y-108657962D01*
X146692993Y-108640925D01*
X146807007Y-108575099D01*
X146900099Y-108482007D01*
X146965925Y-108367993D01*
X146982962Y-108304409D01*
X147543679Y-108865126D01*
X147569097Y-108830140D01*
X147658419Y-108654834D01*
X147719220Y-108467709D01*
X147719221Y-108467706D01*
X147750000Y-108273376D01*
X147750000Y-108080519D01*
X150379500Y-108080519D01*
X150379500Y-108269480D01*
X150409059Y-108456115D01*
X150409060Y-108456118D01*
X150467453Y-108635833D01*
X150553236Y-108804193D01*
X150553239Y-108804197D01*
X150553240Y-108804199D01*
X150664310Y-108957073D01*
X150664312Y-108957075D01*
X150664315Y-108957079D01*
X150797920Y-109090684D01*
X150797923Y-109090686D01*
X150797927Y-109090690D01*
X150950801Y-109201760D01*
X150950803Y-109201761D01*
X150950806Y-109201763D01*
X151033890Y-109244096D01*
X151119168Y-109287547D01*
X151298882Y-109345940D01*
X151485519Y-109375500D01*
X151485520Y-109375500D01*
X151674480Y-109375500D01*
X151674481Y-109375500D01*
X151861118Y-109345940D01*
X152040832Y-109287547D01*
X152209199Y-109201760D01*
X152362073Y-109090690D01*
X152495690Y-108957073D01*
X152606760Y-108804199D01*
X152692547Y-108635832D01*
X152750940Y-108456118D01*
X152780500Y-108269481D01*
X152780500Y-108080519D01*
X152750940Y-107893882D01*
X152732307Y-107836535D01*
X166949500Y-107836535D01*
X166949500Y-108043465D01*
X166975664Y-108174999D01*
X166989869Y-108246417D01*
X166989871Y-108246423D01*
X167040227Y-108367993D01*
X167069059Y-108437598D01*
X167098732Y-108482007D01*
X167160933Y-108575099D01*
X167184023Y-108609655D01*
X167330345Y-108755977D01*
X167502402Y-108870941D01*
X167693580Y-108950130D01*
X167896535Y-108990500D01*
X167896538Y-108990500D01*
X168103462Y-108990500D01*
X168103465Y-108990500D01*
X168306420Y-108950130D01*
X168497598Y-108870941D01*
X168669655Y-108755977D01*
X168815977Y-108609655D01*
X168930941Y-108437598D01*
X169010130Y-108246420D01*
X169050500Y-108043465D01*
X169050500Y-107836535D01*
X169010130Y-107633580D01*
X168930941Y-107442402D01*
X168815977Y-107270345D01*
X168669655Y-107124023D01*
X168642542Y-107105907D01*
X168577508Y-107062453D01*
X168497598Y-107009059D01*
X168497596Y-107009058D01*
X168306423Y-106929871D01*
X168306417Y-106929869D01*
X168224572Y-106913589D01*
X168103465Y-106889500D01*
X167896535Y-106889500D01*
X167795520Y-106909592D01*
X167693582Y-106929869D01*
X167693576Y-106929871D01*
X167502403Y-107009058D01*
X167330345Y-107124022D01*
X167184022Y-107270345D01*
X167069058Y-107442403D01*
X166989871Y-107633576D01*
X166989869Y-107633582D01*
X166973840Y-107714168D01*
X166949500Y-107836535D01*
X152732307Y-107836535D01*
X152692547Y-107714168D01*
X152651487Y-107633582D01*
X152606763Y-107545806D01*
X152606761Y-107545803D01*
X152606760Y-107545801D01*
X152495690Y-107392927D01*
X152495686Y-107392923D01*
X152495684Y-107392920D01*
X152362079Y-107259315D01*
X152362080Y-107259315D01*
X152266174Y-107189635D01*
X152209199Y-107148240D01*
X152209197Y-107148239D01*
X152209193Y-107148236D01*
X152040833Y-107062453D01*
X151861118Y-107004060D01*
X151861115Y-107004059D01*
X151717744Y-106981352D01*
X151674481Y-106974500D01*
X151485519Y-106974500D01*
X151450397Y-106980062D01*
X151298884Y-107004059D01*
X151298881Y-107004060D01*
X151119166Y-107062453D01*
X150950806Y-107148236D01*
X150797920Y-107259315D01*
X150664315Y-107392920D01*
X150553236Y-107545806D01*
X150467453Y-107714166D01*
X150409060Y-107893881D01*
X150409059Y-107893884D01*
X150379500Y-108080519D01*
X147750000Y-108080519D01*
X147750000Y-108076623D01*
X147719221Y-107882293D01*
X147719220Y-107882290D01*
X147658419Y-107695165D01*
X147569097Y-107519859D01*
X147569096Y-107519857D01*
X147543678Y-107484873D01*
X146982962Y-108045589D01*
X146965925Y-107982007D01*
X146900099Y-107867993D01*
X146807007Y-107774901D01*
X146692993Y-107709075D01*
X146629407Y-107692037D01*
X147190125Y-107131320D01*
X147190125Y-107131319D01*
X147155149Y-107105907D01*
X147155140Y-107105902D01*
X146979834Y-107016580D01*
X146792709Y-106955779D01*
X146792706Y-106955778D01*
X146598376Y-106925000D01*
X146401624Y-106925000D01*
X146207293Y-106955778D01*
X146207290Y-106955779D01*
X146020171Y-107016578D01*
X145844859Y-107105902D01*
X145844856Y-107105903D01*
X145809873Y-107131320D01*
X146370590Y-107692037D01*
X146307007Y-107709075D01*
X146192993Y-107774901D01*
X146099901Y-107867993D01*
X146034075Y-107982007D01*
X146017037Y-108045590D01*
X145456320Y-107484873D01*
X145430903Y-107519856D01*
X145430902Y-107519859D01*
X145341578Y-107695171D01*
X145280779Y-107882290D01*
X145280778Y-107882293D01*
X145250000Y-108076623D01*
X142619883Y-108076623D01*
X142590940Y-107893882D01*
X142532547Y-107714168D01*
X142491487Y-107633582D01*
X142446763Y-107545806D01*
X142446761Y-107545803D01*
X142446760Y-107545801D01*
X142335690Y-107392927D01*
X142335686Y-107392923D01*
X142335684Y-107392920D01*
X142202079Y-107259315D01*
X142202075Y-107259312D01*
X142202073Y-107259310D01*
X142106175Y-107189636D01*
X142106175Y-107189635D01*
X142061000Y-107156814D01*
X142049199Y-107148240D01*
X142049198Y-107148239D01*
X142049196Y-107148238D01*
X141880833Y-107062453D01*
X141701118Y-107004060D01*
X141701115Y-107004059D01*
X141557744Y-106981352D01*
X141514481Y-106974500D01*
X141325519Y-106974500D01*
X141290397Y-106980062D01*
X141138884Y-107004059D01*
X141138881Y-107004060D01*
X140959166Y-107062453D01*
X140790806Y-107148236D01*
X140637920Y-107259315D01*
X140504315Y-107392920D01*
X140393236Y-107545806D01*
X140307453Y-107714166D01*
X140249060Y-107893881D01*
X140249059Y-107893884D01*
X140219500Y-108080519D01*
X129300500Y-108080519D01*
X129300500Y-106109999D01*
X129750000Y-106109999D01*
X129750000Y-106137206D01*
X129756104Y-106204387D01*
X129756105Y-106204392D01*
X129804269Y-106358952D01*
X129888023Y-106497498D01*
X130002501Y-106611976D01*
X130141047Y-106695730D01*
X130295607Y-106743894D01*
X130295613Y-106743895D01*
X130362791Y-106749999D01*
X132137206Y-106749999D01*
X132204387Y-106743895D01*
X132204392Y-106743894D01*
X132358952Y-106695730D01*
X132497498Y-106611976D01*
X132611976Y-106497498D01*
X132695730Y-106358952D01*
X132743894Y-106204392D01*
X132743895Y-106204386D01*
X132749999Y-106137207D01*
X132749999Y-106110000D01*
X132749998Y-106109999D01*
X132662871Y-106197127D01*
X132628223Y-106211479D01*
X132593575Y-106197127D01*
X131250000Y-104853552D01*
X129906424Y-106197127D01*
X129871776Y-106211479D01*
X129837128Y-106197127D01*
X129750000Y-106109999D01*
X129300500Y-106109999D01*
X129300500Y-105646446D01*
X129750000Y-105646446D01*
X130896448Y-104500000D01*
X130896447Y-104499999D01*
X131603552Y-104499999D01*
X131603552Y-104500000D01*
X132749999Y-105646447D01*
X132749999Y-103353552D01*
X131603552Y-104499999D01*
X130896447Y-104499999D01*
X129750000Y-103353552D01*
X129750000Y-105646446D01*
X129300500Y-105646446D01*
X129300500Y-102862791D01*
X129750000Y-102862791D01*
X129750000Y-102889998D01*
X129837127Y-102802871D01*
X129871775Y-102788519D01*
X129906423Y-102802871D01*
X131250000Y-104146448D01*
X132593576Y-102802872D01*
X132628224Y-102788520D01*
X132662872Y-102802872D01*
X132749999Y-102889999D01*
X132749999Y-102862792D01*
X132749547Y-102857816D01*
X132749231Y-102854342D01*
X134049500Y-102854342D01*
X134049500Y-106145653D01*
X134049501Y-106145668D01*
X134052253Y-106180646D01*
X134095759Y-106330391D01*
X134175130Y-106464600D01*
X134175134Y-106464605D01*
X134285394Y-106574865D01*
X134285399Y-106574869D01*
X134419608Y-106654240D01*
X134419609Y-106654240D01*
X134419612Y-106654242D01*
X134569353Y-106697746D01*
X134604345Y-106700500D01*
X136395654Y-106700499D01*
X136395659Y-106700498D01*
X136395668Y-106700498D01*
X136415366Y-106698948D01*
X136430647Y-106697746D01*
X136580388Y-106654242D01*
X136714605Y-106574866D01*
X136824866Y-106464605D01*
X136904242Y-106330388D01*
X136947746Y-106180647D01*
X136950500Y-106145655D01*
X136950500Y-106051455D01*
X162799500Y-106051455D01*
X162799500Y-106248544D01*
X162837947Y-106441827D01*
X162837949Y-106441836D01*
X162893053Y-106574869D01*
X162913368Y-106623914D01*
X163022861Y-106787782D01*
X163162218Y-106927139D01*
X163326086Y-107036632D01*
X163508165Y-107112051D01*
X163701459Y-107150500D01*
X163898541Y-107150500D01*
X164091835Y-107112051D01*
X164273914Y-107036632D01*
X164437782Y-106927139D01*
X164577139Y-106787782D01*
X164686632Y-106623914D01*
X164762051Y-106441835D01*
X164800500Y-106248541D01*
X164800500Y-106051459D01*
X164762051Y-105858165D01*
X164686632Y-105676086D01*
X164577139Y-105512218D01*
X164437782Y-105372861D01*
X164323552Y-105296535D01*
X166949500Y-105296535D01*
X166949500Y-105503465D01*
X166976290Y-105638150D01*
X166989869Y-105706417D01*
X166989871Y-105706423D01*
X167069058Y-105897596D01*
X167170256Y-106049052D01*
X167184023Y-106069655D01*
X167330345Y-106215977D01*
X167502402Y-106330941D01*
X167693580Y-106410130D01*
X167896535Y-106450500D01*
X167896538Y-106450500D01*
X168103462Y-106450500D01*
X168103465Y-106450500D01*
X168306420Y-106410130D01*
X168497598Y-106330941D01*
X168669655Y-106215977D01*
X168815977Y-106069655D01*
X168930941Y-105897598D01*
X169010130Y-105706420D01*
X169050500Y-105503465D01*
X169050500Y-105296535D01*
X169010130Y-105093580D01*
X168930941Y-104902402D01*
X168815977Y-104730345D01*
X168669655Y-104584023D01*
X168497598Y-104469059D01*
X168497596Y-104469058D01*
X168306423Y-104389871D01*
X168306417Y-104389869D01*
X168224572Y-104373589D01*
X168103465Y-104349500D01*
X167896535Y-104349500D01*
X167795520Y-104369592D01*
X167693582Y-104389869D01*
X167693576Y-104389871D01*
X167502403Y-104469058D01*
X167330345Y-104584022D01*
X167184022Y-104730345D01*
X167069058Y-104902403D01*
X166989871Y-105093576D01*
X166989869Y-105093582D01*
X166978747Y-105149500D01*
X166949500Y-105296535D01*
X164323552Y-105296535D01*
X164273914Y-105263368D01*
X164273911Y-105263366D01*
X164273910Y-105263366D01*
X164091836Y-105187949D01*
X164091827Y-105187947D01*
X163898544Y-105149500D01*
X163898541Y-105149500D01*
X163701459Y-105149500D01*
X163701455Y-105149500D01*
X163508172Y-105187947D01*
X163508163Y-105187949D01*
X163326089Y-105263366D01*
X163162218Y-105372860D01*
X163022860Y-105512218D01*
X162913366Y-105676089D01*
X162837949Y-105858163D01*
X162837947Y-105858172D01*
X162799500Y-106051455D01*
X136950500Y-106051455D01*
X136950499Y-102854346D01*
X136947746Y-102819353D01*
X136904242Y-102669612D01*
X136904240Y-102669608D01*
X136824869Y-102535399D01*
X136824865Y-102535394D01*
X136730159Y-102440688D01*
X137279498Y-102440688D01*
X137279498Y-102559311D01*
X137310198Y-102673884D01*
X137310199Y-102673887D01*
X137333802Y-102714767D01*
X137369509Y-102776613D01*
X137453385Y-102860489D01*
X137556112Y-102919799D01*
X137571365Y-102923886D01*
X137670686Y-102950500D01*
X137670689Y-102950500D01*
X137789309Y-102950500D01*
X137846595Y-102935149D01*
X137903884Y-102919799D01*
X138006611Y-102860489D01*
X138090487Y-102776613D01*
X138149797Y-102673886D01*
X138166915Y-102610000D01*
X138180498Y-102559311D01*
X138180498Y-102440688D01*
X138149797Y-102326115D01*
X138149796Y-102326113D01*
X138149795Y-102326112D01*
X138149155Y-102325002D01*
X138149070Y-102324359D01*
X138148567Y-102323144D01*
X138148892Y-102323009D01*
X138144258Y-102287820D01*
X138167087Y-102258066D01*
X138191589Y-102251500D01*
X148966233Y-102251500D01*
X149000881Y-102265852D01*
X149415148Y-102680119D01*
X149429500Y-102714767D01*
X149429500Y-102809311D01*
X149460200Y-102923884D01*
X149460201Y-102923887D01*
X149478902Y-102956277D01*
X149519511Y-103026613D01*
X149603387Y-103110489D01*
X149706114Y-103169799D01*
X149734758Y-103177474D01*
X149820688Y-103200500D01*
X149820691Y-103200500D01*
X149939311Y-103200500D01*
X149996597Y-103185149D01*
X150053886Y-103169799D01*
X150156613Y-103110489D01*
X150240489Y-103026613D01*
X150299799Y-102923886D01*
X150327809Y-102819352D01*
X150330500Y-102809311D01*
X150330500Y-102690688D01*
X150307474Y-102604758D01*
X150299799Y-102576114D01*
X150282751Y-102546587D01*
X162750000Y-102546587D01*
X162750000Y-102753412D01*
X162790349Y-102956271D01*
X162790351Y-102956277D01*
X162869501Y-103147360D01*
X162901378Y-103195067D01*
X163317038Y-102779407D01*
X163334076Y-102842992D01*
X163399902Y-102957006D01*
X163492994Y-103050098D01*
X163607008Y-103115924D01*
X163670591Y-103132961D01*
X163254931Y-103548621D01*
X163302639Y-103580498D01*
X163493722Y-103659648D01*
X163493728Y-103659650D01*
X163696587Y-103700000D01*
X163903413Y-103700000D01*
X164106271Y-103659650D01*
X164106277Y-103659648D01*
X164297358Y-103580499D01*
X164345066Y-103548620D01*
X163929407Y-103132961D01*
X163992992Y-103115924D01*
X164107006Y-103050098D01*
X164200098Y-102957006D01*
X164265924Y-102842992D01*
X164282961Y-102779407D01*
X164698620Y-103195066D01*
X164730500Y-103147356D01*
X164762148Y-103070953D01*
X164762148Y-103070952D01*
X164809648Y-102956277D01*
X164809650Y-102956271D01*
X164850000Y-102753412D01*
X164850000Y-102546587D01*
X164809650Y-102343728D01*
X164809648Y-102343722D01*
X164730498Y-102152639D01*
X164698621Y-102104931D01*
X164282961Y-102520591D01*
X164265924Y-102457008D01*
X164200098Y-102342994D01*
X164107006Y-102249902D01*
X163992992Y-102184076D01*
X163929408Y-102167038D01*
X164111076Y-101985370D01*
X166900000Y-101985370D01*
X166900000Y-102610000D01*
X167566988Y-102610000D01*
X167534075Y-102667007D01*
X167500000Y-102794174D01*
X167500000Y-102925826D01*
X167534075Y-103052993D01*
X167566988Y-103110000D01*
X166900000Y-103110000D01*
X166900000Y-103734629D01*
X166914503Y-103807542D01*
X166969759Y-103890240D01*
X167052457Y-103945496D01*
X167125370Y-103959999D01*
X167125376Y-103960000D01*
X167750000Y-103960000D01*
X167750000Y-103293012D01*
X167807007Y-103325925D01*
X167934174Y-103360000D01*
X168065826Y-103360000D01*
X168192993Y-103325925D01*
X168250000Y-103293012D01*
X168250000Y-103960000D01*
X168874624Y-103960000D01*
X168874629Y-103959999D01*
X168947542Y-103945496D01*
X169030240Y-103890240D01*
X169085496Y-103807542D01*
X169099999Y-103734629D01*
X169100000Y-103734624D01*
X169100000Y-103110000D01*
X168433012Y-103110000D01*
X168465925Y-103052993D01*
X168500000Y-102925826D01*
X168500000Y-102794174D01*
X168465925Y-102667007D01*
X168433012Y-102610000D01*
X169100000Y-102610000D01*
X169100000Y-101985376D01*
X169099999Y-101985370D01*
X169085496Y-101912457D01*
X169030240Y-101829759D01*
X168947542Y-101774503D01*
X168874629Y-101760000D01*
X168250000Y-101760000D01*
X168250000Y-102426988D01*
X168192993Y-102394075D01*
X168065826Y-102360000D01*
X167934174Y-102360000D01*
X167807007Y-102394075D01*
X167750000Y-102426988D01*
X167750000Y-101760000D01*
X167125370Y-101760000D01*
X167052457Y-101774503D01*
X166969759Y-101829759D01*
X166914503Y-101912457D01*
X166900000Y-101985370D01*
X164111076Y-101985370D01*
X164148125Y-101948321D01*
X164345067Y-101751378D01*
X164297360Y-101719501D01*
X164106277Y-101640351D01*
X164106271Y-101640349D01*
X163903413Y-101600000D01*
X163696587Y-101600000D01*
X163493728Y-101640349D01*
X163493722Y-101640351D01*
X163302641Y-101719500D01*
X163254932Y-101751378D01*
X163670592Y-102167038D01*
X163607008Y-102184076D01*
X163492994Y-102249902D01*
X163399902Y-102342994D01*
X163334076Y-102457008D01*
X163317038Y-102520591D01*
X162901379Y-102104932D01*
X162901378Y-102104932D01*
X162869500Y-102152641D01*
X162790351Y-102343722D01*
X162790349Y-102343728D01*
X162750000Y-102546587D01*
X150282751Y-102546587D01*
X150240489Y-102473387D01*
X150156613Y-102389511D01*
X150105499Y-102360000D01*
X150053887Y-102330201D01*
X150053884Y-102330200D01*
X149939312Y-102299500D01*
X149939309Y-102299500D01*
X149904767Y-102299500D01*
X149870119Y-102285148D01*
X149295511Y-101710540D01*
X149226990Y-101670979D01*
X149150564Y-101650500D01*
X149150562Y-101650500D01*
X137960438Y-101650500D01*
X137960436Y-101650500D01*
X137884010Y-101670979D01*
X137884008Y-101670979D01*
X137815488Y-101710540D01*
X137815488Y-101710541D01*
X137489539Y-102036490D01*
X137489538Y-102036490D01*
X137449977Y-102105010D01*
X137449976Y-102105014D01*
X137439499Y-102144112D01*
X137426818Y-102166077D01*
X137369508Y-102223388D01*
X137310199Y-102326112D01*
X137310198Y-102326115D01*
X137279498Y-102440688D01*
X136730159Y-102440688D01*
X136714605Y-102425134D01*
X136714600Y-102425130D01*
X136580391Y-102345759D01*
X136573400Y-102343728D01*
X136526841Y-102330201D01*
X136430645Y-102302253D01*
X136406790Y-102300376D01*
X136395655Y-102299500D01*
X136395650Y-102299500D01*
X134604346Y-102299500D01*
X134604331Y-102299501D01*
X134569353Y-102302253D01*
X134419608Y-102345759D01*
X134285399Y-102425130D01*
X134285394Y-102425134D01*
X134175134Y-102535394D01*
X134175130Y-102535399D01*
X134095759Y-102669608D01*
X134052253Y-102819352D01*
X134052253Y-102819356D01*
X134049500Y-102854342D01*
X132749231Y-102854342D01*
X132743895Y-102795613D01*
X132743894Y-102795607D01*
X132695730Y-102641047D01*
X132611976Y-102502501D01*
X132497498Y-102388023D01*
X132358952Y-102304269D01*
X132204392Y-102256105D01*
X132204386Y-102256104D01*
X132137208Y-102250000D01*
X130362793Y-102250000D01*
X130295612Y-102256104D01*
X130295607Y-102256105D01*
X130141047Y-102304269D01*
X130002501Y-102388023D01*
X129888023Y-102502501D01*
X129804269Y-102641047D01*
X129756105Y-102795607D01*
X129756104Y-102795613D01*
X129750000Y-102862791D01*
X129300500Y-102862791D01*
X129300500Y-101499500D01*
X129314852Y-101464852D01*
X129349500Y-101450500D01*
X169350500Y-101450500D01*
X169385148Y-101464852D01*
G37*
%TD.AperFunction*%
%TD*%
M02*
